<?xml version="1.0" encoding="UTF-8" standalone="no"?>
<!-- Created with Inkscape (http://www.inkscape.org/) -->

<svg
   width="1200"
   height="1200"
   viewBox="0 0 1200 1200"
   version="1.1"
   id="svg1138"
   inkscape:version="1.1.2 (1:1.1+202202050950+0a00cf5339)"
   sodipodi:docname="5g.svg"
   xmlns:inkscape="http://www.inkscape.org/namespaces/inkscape"
   xmlns:sodipodi="http://sodipodi.sourceforge.net/DTD/sodipodi-0.dtd"
   xmlns="http://www.w3.org/2000/svg"
   xmlns:svg="http://www.w3.org/2000/svg">
  <sodipodi:namedview
     id="namedview1140"
     pagecolor="#ffffff"
     bordercolor="#666666"
     borderopacity="1.0"
     inkscape:pageshadow="2"
     inkscape:pageopacity="0.0"
     inkscape:pagecheckerboard="0"
     inkscape:document-units="px"
     showgrid="false"
     units="px"
     inkscape:snap-global="false"
     showguides="true"
     inkscape:guide-bbox="true"
     inkscape:zoom="0.38740583"
     inkscape:cx="725.33756"
     inkscape:cy="811.81019"
     inkscape:window-width="1600"
     inkscape:window-height="840"
     inkscape:window-x="0"
     inkscape:window-y="0"
     inkscape:window-maximized="1"
     inkscape:current-layer="text3003" />
  <defs
     id="defs1135">
    <rect
       x="-310.38151"
       y="296.13339"
       width="1187.3829"
       height="1079.0822"
       id="rect3005" />
    <filter
       inkscape:collect="always"
       style="color-interpolation-filters:sRGB"
       id="filter13929"
       x="0"
       y="0"
       width="1"
       height="1">
      <feBlend
         inkscape:collect="always"
         mode="screen"
         in2="BackgroundImage"
         id="feBlend13931" />
    </filter>
  </defs>
  <g
     inkscape:label="Capa 1"
     inkscape:groupmode="layer"
     id="layer1">
    <g
       id="g7101"
       transform="translate(-72.698212,-28.35302)">
      <g
         aria-label="5G"
         transform="matrix(14.307923,0,0,14.307923,4678.6372,-3905.2874)"
         id="text3003"
         style="font-weight:bold;font-size:40px;line-height:1.25;-inkscape-font-specification:'sans-serif Bold';letter-spacing:0px;word-spacing:0px;white-space:pre;shape-inside:url(#rect3005)">
        <path
           id="path7122"
           style="stroke-width:14.3079"
           d="m 596.72461,167.48633 c -3.15816,-0.0252 -6.3255,0.0112 -9.5,0.11133 -90.29678,2.84822 -171.38952,56.28091 -209.63672,138.12695 a 14.95062,14.95062 0 1 0 27.08594,12.65625 c 33.50188,-71.69146 104.40042,-118.40359 183.49414,-120.89844 79.09371,-2.49484 152.79651,39.65426 190.75,109.0918 a 14.95062,14.95062 0 1 0 26.23437,-14.33984 c -16.58703,-30.34666 -39.17721,-56.1388 -65.81054,-76.25977 -3.80475,-2.87444 -7.69224,-5.63186 -11.65625,-8.27149 -38.22432,-25.45356 -83.58856,-39.83823 -130.96094,-40.21679 z m 0.0371,63.27929 c -59.15232,0.57816 -114.67634,28.76684 -150.05078,76.17969 a 16.21197,16.21197 0 1 0 25.98633,19.38867 c 29.33806,-39.32216 75.32444,-62.6709 124.38281,-63.15039 49.05839,-0.4795 95.49075,21.96387 125.5918,60.70508 A 16.21197,16.21197 0 1 0 748.27344,304 c -10.20781,-13.13786 -21.98072,-24.72474 -34.94532,-34.58008 -4.32151,-3.28514 -8.77691,-6.37957 -13.3496,-9.27344 C 669.49388,240.854 633.7319,230.40427 596.76172,230.76562 Z m -0.82227,61.62696 c -30.66875,0.27577 -61.26174,11.35542 -85.55273,33.25 a 14.95062,14.95062 0 1 0 20.01562,22.20508 c 38.13098,-34.36921 95.76777,-34.24089 133.7461,0.29687 a 14.95062,14.95062 0 1 0 20.11914,-22.11914 c -3.07223,-2.79391 -6.24951,-5.41351 -9.51367,-7.85937 -3.26412,-2.44591 -6.61798,-4.71848 -10.04883,-6.81641 -21.01391,-12.84977 -44.91216,-19.17152 -68.76563,-18.95703 z m 227.76172,92.61328 c -71.91229,0 -128.54748,19.28137 -169.90625,57.8457 -41.35886,38.56424 -62.03906,91.47374 -62.03906,158.72852 0,66.50942 20.30631,119.23301 60.91992,158.16992 40.61361,38.75062 95.66591,58.125 165.15625,58.125 30.73972,0 60.54915,-3.26075 89.42578,-9.78125 28.87663,-6.5205 56.72733,-16.3007 83.55469,-29.3418 V 578.10547 H 823.14258 v 72.09961 h 65.66992 v 81.04101 c -7.63833,2.98082 -16.30058,5.21663 -25.98828,6.70703 -9.50132,1.30403 -19.84142,1.95508 -31.01953,1.95508 -41.17248,0 -72.93684,-12.016 -95.29297,-36.04882 -22.35613,-24.03283 -33.5332,-58.12601 -33.5332,-102.2793 0,-44.52597 11.55105,-78.71206 34.65234,-102.5586 23.28767,-24.03282 56.35581,-36.04882 99.20508,-36.04882 23.10128,0 46.10844,3.25879 69.02344,9.77929 23.10138,6.52051 46.29631,16.39566 69.58398,29.62305 v -86.35156 c -22.54251,-10.24657 -46.57637,-17.97688 -72.09961,-23.19336 -25.33695,-5.21638 -51.88378,-7.82422 -79.64258,-7.82422 z m -598.02734,7.54492 v 234.73828 c 20.12056,-8.38358 38.93699,-14.53109 56.44922,-18.44336 17.51232,-4.09864 33.99984,-6.14843 49.46289,-6.14843 26.0821,0 46.57638,6.33538 61.48047,19.0039 15.09037,12.66843 22.63476,29.99301 22.63476,51.97656 0,21.79717 -7.54439,39.12371 -22.63476,51.97852 -14.90409,12.66852 -35.39837,19.00391 -61.48047,19.00391 -18.07129,0 -37.35266,-3.26066 -57.84571,-9.78125 -20.30685,-6.52051 -41.82402,-16.30265 -64.55273,-29.34375 v 84.67382 c 22.915,9.31503 45.92206,16.20847 69.02344,20.67969 23.28757,4.65752 46.76162,6.98633 70.42187,6.98633 54.77254,0 97.52982,-12.76192 128.26953,-38.28516 30.92591,-25.52323 46.38868,-60.82727 46.38868,-105.91211 0,-45.45751 -14.1588,-80.85445 -42.47657,-106.1914 -28.31776,-25.52324 -67.90739,-38.28516 -118.76757,-38.28516 -8.94246,0 -17.6048,0.65291 -25.98829,1.95703 -8.19729,1.11783 -16.39459,2.79373 -24.59179,5.0293 v -64.55273 h 181.64258 v -79.08399 z m 450.95703,455.49414 a 14.95062,14.95062 0 0 0 -12.48242,3.81055 c -37.97833,34.53776 -95.61512,34.66608 -133.7461,0.29687 a 14.95062,14.95062 0 1 0 -20.01562,22.20508 c 43.18398,38.9237 106.28657,43.66386 154.31836,14.29297 3.43085,-2.09793 6.78471,-4.3705 10.04883,-6.81641 3.26416,-2.44586 6.44144,-5.06546 9.51367,-7.85937 a 14.95062,14.95062 0 0 0 -7.63672,-25.92969 z m -214.61524,19.11719 a 16.21197,16.21197 0 0 0 -15.30468,25.89258 c 35.37444,47.41285 90.89846,75.60153 150.05078,76.17969 36.97018,0.36135 72.73216,-10.08838 103.2168,-29.38086 4.57269,-2.89387 9.02809,-5.9883 13.3496,-9.27344 12.9646,-9.85534 24.73751,-21.44222 34.94532,-34.58008 a 16.21197,16.21197 0 1 0 -25.60156,-19.88867 c -30.10105,38.74121 -76.53341,61.18458 -125.5918,60.70508 -49.05837,-0.47949 -95.04475,-23.82823 -124.38281,-63.15039 a 16.21197,16.21197 0 0 0 -10.68165,-6.50391 z m -74.10937,5.95117 a 14.95062,14.95062 0 0 0 -10.31836,21.16211 c 38.2472,81.84604 119.33994,135.27871 209.63672,138.12691 50.79194,1.6022 99.68833,-12.955 140.46094,-40.10542 3.96401,-2.63963 7.8515,-5.39705 11.65625,-8.27149 26.63333,-20.12097 49.22351,-45.91311 65.81054,-76.25977 a 14.95062,14.95062 0 1 0 -26.23437,-14.33984 c -37.95349,69.43754 -111.65629,111.58662 -190.75,109.09182 -79.09372,-2.4949 -149.99226,-49.207 -183.49414,-120.89846 a 14.95062,14.95062 0 0 0 -16.76758,-8.50586 z"
           transform="matrix(0.06989135,0,0,0.06989135,-321.91528,274.92742)" />
      </g>
      <g
         id="signal"
         transform="matrix(1.0510368,0.57058763,-0.57058763,1.0510368,319.71691,-254.01826)"
         style="filter:url(#filter13929)" />
      <g
         id="g7093"
         transform="matrix(1.0510368,-0.57058763,-0.57058763,-1.0510368,319.71691,1510.7243)"
         style="filter:url(#filter13929)" />
    </g>
  </g>
</svg>
