<?xml version="1.0" encoding="UTF-8" standalone="no"?>
<!-- Created with Inkscape (http://www.inkscape.org/) -->

<svg
   width="1200"
   height="1200"
   viewBox="0 0 1200 1200"
   version="1.1"
   id="svg5"
   inkscape:version="1.1.1 (3bf5ae0d25, 2021-09-20)"
   sodipodi:docname="camioneta-antena.svg"
   xmlns:inkscape="http://www.inkscape.org/namespaces/inkscape"
   xmlns:sodipodi="http://sodipodi.sourceforge.net/DTD/sodipodi-0.dtd"
   xmlns="http://www.w3.org/2000/svg"
   xmlns:svg="http://www.w3.org/2000/svg">
  <sodipodi:namedview
     id="namedview7"
     pagecolor="#ffffff"
     bordercolor="#666666"
     borderopacity="1.0"
     inkscape:pageshadow="2"
     inkscape:pageopacity="0.0"
     inkscape:pagecheckerboard="0"
     inkscape:document-units="px"
     showgrid="false"
     units="px"
     showguides="false"
     inkscape:guide-bbox="true"
     inkscape:snap-bbox="true"
     inkscape:bbox-paths="true"
     inkscape:bbox-nodes="true"
     inkscape:snap-bbox-edge-midpoints="true"
     inkscape:snap-bbox-midpoints="true"
     inkscape:zoom="0.64"
     inkscape:cx="601.5625"
     inkscape:cy="584.375"
     inkscape:window-width="1600"
     inkscape:window-height="837"
     inkscape:window-x="-8"
     inkscape:window-y="-8"
     inkscape:window-maximized="1"
     inkscape:current-layer="layer1">
    <sodipodi:guide
       position="0,1200"
       orientation="0,1200"
       id="guide846" />
    <sodipodi:guide
       position="1200,1200"
       orientation="1200,0"
       id="guide848" />
    <sodipodi:guide
       position="1200,0"
       orientation="0,-1200"
       id="guide850" />
    <sodipodi:guide
       position="0,0"
       orientation="-1200,0"
       id="guide852" />
    <inkscape:grid
       type="xygrid"
       id="grid854" />
    <sodipodi:guide
       position="412.875,480"
       orientation="0,-1"
       id="guide5964" />
    <sodipodi:guide
       position="720,792.5"
       orientation="1,0"
       id="guide6101" />
  </sodipodi:namedview>
  <defs
     id="defs2" />
  <g
     inkscape:label="Capa 1"
     inkscape:groupmode="layer"
     id="layer1">
    <path
       id="rect911"
       style="opacity:1;stroke-width:3;stroke-linecap:square;paint-order:markers stroke fill"
       d="m 393.46484,262.5 a 15,15 0 0 0 -15,15 15,15 0 0 0 15,15 15,15 0 0 0 3.25977,-0.39648 c 13.14425,15.85222 59.23199,73.99126 92.75195,147.80078 l -15.04297,7.4707 18.91602,10.86523 -6.07618,11.60157 12.99611,5.23437 -0.35158,23.2461 11.36915,-5.3086 c 28.32326,75.07896 50.19125,154.14891 53.59375,166.61133 H 114.41015 c -9.90221,0 -17.874995,7.97279 -17.874995,17.875 v 172.125 c 0,9.90221 7.972785,17.875 17.874995,17.875 h 63.0625 c -0.22542,-1.42984 -0.41428,-2.8652 -0.5664,-4.30469 0,-46.9442 38.0558,-85 85,-85 46.9442,0 85,38.0558 85,85 -0.15212,1.43949 -0.34098,2.87485 -0.56641,4.30469 h 250.51172 48.73828 158.82031 19.05469 32.29883 c 0.16135,-46.81452 38.14609,-84.68581 84.96097,-84.70703 46.8247,0.007 84.82486,37.88262 84.98626,84.70703 h 67.7539 c 0,0 6.2322,-0.23223 8,-2 1.7678,-1.76777 2,-3 2,-3 v -5 -10 -10 -10 c 0,0 0,-3 -1,-3 -1,0 -4,-2 -4,-2 l -2.5,-2.5 c 0,0 -0.9556,-1.1857 -1.5,-2.5 -0.5444,-1.3143 -1,-5 -1,-5 v -50 -27.5 c 0,0 -2.0147,-12.65857 -10,-22.5 -7.9853,-9.84143 -37.5,-15 -37.5,-15 l -47.49996,-10 -47.5,-10 -47.12891,-9.92188 0.12696,0.25391 -20,-5 c 0,0 -81.23602,-139.32223 -79.7246,-142.44531 1.26704,-2.61814 16.58007,-2.55469 16.58007,-2.55469 l -0.3125,-0.56641 v 0.0977 c -3.36698,-5.35002 -9.2814,-8.91797 -16.09571,-8.91797 H 596.85156 c -10.55653,0 -19.05664,8.49816 -19.05664,19.05469 v 122.54102 c -6.44737,-23.25063 -26.77507,-94.50028 -52.86913,-163.39649 l 13.5,-6.30469 -18.00783,-14.36523 7.73438,-13.81055 -14.08594,-2.48633 0.97071,-22.46484 -12.12109,6.01953 C 468.25752,357.09924 420.83214,297.59827 407.78125,281.92969 a 15,15 0 0 0 0.68359,-4.42969 15,15 0 0 0 -15,-15 z m 222.5,264 h 12.5 12.5 c 0,0 12.5,0.16545 12.5,6.15234 V 559 591.5 624 656.5 h -12.5 -12.5 -12.5 -12.5 V 624 591.5 559 c 0,0 0.18889,-22.1049 4.32031,-27.21289 4.13142,-5.10799 8.17969,-5.28711 8.17969,-5.28711 z m 67.5,0 h 110 l 71.11133,142.22266 -167.77735,-8.88868 z m -421.55078,271 a 70,70 0 0 0 -70,70 70,70 0 0 0 70,70 70,70 0 0 0 70,-70 70,70 0 0 0 -70,-70 z m 678.11328,0 a 70,70 0 0 0 -70,70 70,70 0 0 0 70,70 70,70 0 0 0 69.99996,-70 70,70 0 0 0 -69.99996,-70 z" />
  </g>
</svg>
