<?xml version="1.0" encoding="UTF-8" standalone="no"?>
<!-- Created with Inkscape (http://www.inkscape.org/) -->

<svg
   width="1200"
   height="1200"
   viewBox="0 0 1200 1200"
   version="1.1"
   id="svg5"
   inkscape:version="1.1.1 (3bf5ae0d25, 2021-09-20)"
   sodipodi:docname="comunication-soldier.svg"
   xmlns:inkscape="http://www.inkscape.org/namespaces/inkscape"
   xmlns:sodipodi="http://sodipodi.sourceforge.net/DTD/sodipodi-0.dtd"
   xmlns="http://www.w3.org/2000/svg"
   xmlns:svg="http://www.w3.org/2000/svg">
  <sodipodi:namedview
     id="namedview7"
     pagecolor="#ffffff"
     bordercolor="#666666"
     borderopacity="1.0"
     inkscape:pageshadow="2"
     inkscape:pageopacity="0.0"
     inkscape:pagecheckerboard="0"
     inkscape:document-units="px"
     showgrid="false"
     units="px"
     showguides="false"
     inkscape:guide-bbox="true"
     inkscape:snap-bbox="true"
     inkscape:bbox-paths="true"
     inkscape:bbox-nodes="true"
     inkscape:snap-bbox-edge-midpoints="true"
     inkscape:snap-bbox-midpoints="true"
     inkscape:zoom="0.32"
     inkscape:cx="765.625"
     inkscape:cy="728.125"
     inkscape:window-width="1600"
     inkscape:window-height="837"
     inkscape:window-x="-8"
     inkscape:window-y="-8"
     inkscape:window-maximized="1"
     inkscape:current-layer="layer1"
     inkscape:snap-global="true">
    <inkscape:grid
       type="xygrid"
       id="grid854" />
  </sodipodi:namedview>
  <defs
     id="defs2" />
  <g
     inkscape:label="Capa 1"
     inkscape:groupmode="layer"
     id="layer1">
    <path
       id="path24622"
       style="opacity:1;stroke-width:17.6702;stroke-linecap:square;paint-order:markers stroke fill"
       d="m 752.51929,118.36452 a 28.272178,28.272178 0 0 0 -28.27217,28.27217 28.272178,28.272178 0 0 0 17.11378,25.93504 v 159.85101 h -14.13609 v 205.3405 A 134.29285,134.29285 0 0 0 600,445.51145 134.29285,134.29285 0 0 0 479.84324,520.35266 v -96.04534 c 0,-3.9157 -3.15234,-7.06804 -7.06804,-7.06804 -3.9157,0 -7.06806,3.15234 -7.06806,7.06804 v 151.96296 3.53403 18.17398 a 42.408268,42.408268 0 0 0 -14.13608,31.30232 42.408268,42.408268 0 0 0 40.53358,42.28541 l 37.21491,42.53113 h 49.47632 l 7.06804,14.1361 h 28.27218 c 0,0 7.06804,-2.82723 7.06804,-16.25651 0,-13.42929 -7.06804,-15.5497 -7.06804,-15.5497 h -28.27218 l -7.06804,10.60206 h -42.40828 l -42.40826,-45.23548 v -32.51301 -14.13609 -28.27217 -7.06804 H 600 706.02067 v 33.57321 15.90309 42.40828 a 42.408268,42.408268 0 0 0 42.40827,-42.40828 42.408268,42.408268 0 0 0 -14.13609,-31.59775 v -23.17959 c 0,-0.56909 -0.0744,-1.11878 -0.20017,-1.64828 a 134.29285,134.29285 0 0 0 -2.71126,-20.6133 c 4.56287,0.85515 11.89045,2.64146 17.04752,6.35849 7.80027,5.62211 15.44053,14.00493 21.20413,28.27217 l 7.2627,2.46553 -0.19466,-256.91514 H 762.56503 V 172.98725 a 28.272178,28.272178 0 0 0 18.22645,-26.35056 28.272178,28.272178 0 0 0 -28.27219,-28.27217 z M 472.7752,373.4174 a 7.0680448,7.0680448 0 0 0 -7.06806,7.06804 7.0680448,7.0680448 0 0 0 3.3601,6.00784 7.0680448,7.0680448 0 0 0 -3.3601,6.00784 7.0680448,7.0680448 0 0 0 3.6845,6.18453 7.0680448,7.0680448 0 0 0 -3.6845,6.18454 7.0680448,7.0680448 0 0 0 7.06806,7.06805 7.0680448,7.0680448 0 0 0 7.06804,-7.06805 7.0680448,7.0680448 0 0 0 -3.66655,-6.19419 7.0680448,7.0680448 0 0 0 3.66655,-6.17488 7.0680448,7.0680448 0 0 0 -3.35319,-6.01198 7.0680448,7.0680448 0 0 0 3.35319,-6.0037 7.0680448,7.0680448 0 0 0 -7.06804,-7.06804 z m -106.02068,368.95193 42.40827,113.08872 -14.13608,226.17745 h 28.27217 v -21.2042 h 49.47632 v 21.2042 H 600 727.22481 v -21.2042 h 49.4763 v 21.2042 H 804.9733 L 790.8372,855.45805 833.24548,742.36933 h -56.54437 l -56.54434,98.95263 H 600 479.84324 l -56.54436,-98.95263 z m 84.81654,127.2248 h 127.22481 c 7.83139,0 14.13608,6.30471 14.13608,14.1361 v 70.68044 c 0,7.83139 -6.30469,14.13606 -14.13608,14.13606 H 451.57106 c -7.8314,0 -14.13609,-6.30467 -14.13609,-14.13606 v -70.68044 c 0,-7.83139 6.30469,-14.1361 14.13609,-14.1361 z m 212.7509,1.21483 h 75.55629 c 3.63601,0 6.56281,2.9268 6.56281,6.56279 v 32.8167 c 0,3.63598 -2.9268,6.56278 -6.56281,6.56278 h -75.55629 c -3.63599,0 -6.56279,-2.9268 -6.56279,-6.56278 v -32.8167 c 0,-3.63599 2.9268,-6.56279 6.56279,-6.56279 z" />
  </g>
</svg>
