<?xml version="1.0" encoding="UTF-8" standalone="no"?>
<svg
   width="103.44819mm"
   height="103.44854mm"
   viewBox="0 0 103.44819 103.44854"
   version="1.1"
   id="svg2963"
   inkscape:version="1.1.2 (1:1.1+202202050950+0a00cf5339)"
   sodipodi:docname="dentadas-v1.svg"
   xmlns:inkscape="http://www.inkscape.org/namespaces/inkscape"
   xmlns:sodipodi="http://sodipodi.sourceforge.net/DTD/sodipodi-0.dtd"
   xmlns="http://www.w3.org/2000/svg"
   xmlns:svg="http://www.w3.org/2000/svg"
   xmlns:rdf="http://www.w3.org/1999/02/22-rdf-syntax-ns#"
   xmlns:cc="http://creativecommons.org/ns#"
   xmlns:dc="http://purl.org/dc/elements/1.1/">
  <defs
     id="defs2957" />
  <sodipodi:namedview
     id="base"
     pagecolor="#ffffff"
     bordercolor="#666666"
     borderopacity="1.0"
     inkscape:pageopacity="0.0"
     inkscape:pageshadow="2"
     inkscape:zoom="1.4"
     inkscape:cx="144.64286"
     inkscape:cy="224.64286"
     inkscape:document-units="mm"
     inkscape:current-layer="layer1"
     inkscape:document-rotation="0"
     showgrid="false"
     fit-margin-top="0"
     fit-margin-left="0"
     fit-margin-right="0"
     fit-margin-bottom="0"
     inkscape:window-width="1600"
     inkscape:window-height="840"
     inkscape:window-x="0"
     inkscape:window-y="0"
     inkscape:window-maximized="1"
     inkscape:pagecheckerboard="0" />
  <metadata
     id="metadata2960">
    <rdf:RDF>
      <cc:Work
         rdf:about="">
        <dc:format>image/svg+xml</dc:format>
        <dc:type
           rdf:resource="http://purl.org/dc/dcmitype/StillImage" />
      </cc:Work>
    </rdf:RDF>
  </metadata>
  <g
     inkscape:label="Capa 1"
     inkscape:groupmode="layer"
     id="layer1"
     transform="translate(-64.692584,-136.5079)">
    <g
       id="g1061"
       transform="matrix(0.67335387,0,0,0.67335387,36.85894,66.441927)"
       style="fill:#000000;fill-opacity:0.99768203">
      <path
         id="path2771"
         style="fill:#000000;fill-opacity:0.99768203;stroke:none;stroke-width:0.579011;stroke-linecap:round;stroke-linejoin:round;stroke-miterlimit:4;stroke-dasharray:none;stroke-opacity:1;paint-order:markers stroke fill"
         inkscape:transform-center-x="3.4347248"
         inkscape:transform-center-y="-7.0633045"
         d="m 99.257254,175.1372 c -1.393758,0.25974 -2.74193,0.64043 -4.034602,1.12982 -0.07054,1.61405 -0.109644,3.34527 -0.24981,4.64326 -0.926713,0.45758 -1.810434,0.98673 -2.646285,1.57779 -1.20125,-0.49964 -2.734148,-1.29714 -4.18158,-2.01273 -1.066592,0.91586 -2.050703,1.92255 -2.94027,3.00757 0.746821,1.43391 1.577386,2.95151 2.101639,4.14209 -0.571068,0.84762 -1.077541,1.74022 -1.513268,2.67031 -1.29385,0.16818 -3.025827,0.24376 -4.640539,0.34819 -0.465881,1.30823 -0.819144,2.66562 -1.050533,4.05923 1.359376,0.86611 2.835159,1.76341 3.88874,2.53271 -0.06611,0.95649 -0.06315,1.92866 0.01533,2.91136 0.005,0.0631 0.01178,0.12555 0.01741,0.18843 -1.037872,0.79178 -2.49564,1.72079 -3.837404,2.61587 0.259743,1.39376 0.640421,2.74194 1.129816,4.0346 1.614242,0.0705 3.345701,0.10974 4.643745,0.25001 0.457522,0.92656 0.986342,1.81036 1.577301,2.64609 -0.499639,1.20121 -1.297106,2.73409 -2.012728,4.18158 0.91586,1.06659 1.922552,2.0507 3.00757,2.94027 1.433914,-0.74682 2.951518,-1.57738 4.142095,-2.10164 0.84762,0.57108 1.740209,1.07753 2.670308,1.51327 0.168183,1.29385 0.243758,3.02583 0.348194,4.64054 1.308316,0.46591 2.665777,0.81936 4.059485,1.05075 0.866122,-1.35942 1.763632,-2.83511 2.532932,-3.88876 0.95635,0.0661 1.92836,0.0632 2.9109,-0.0153 0.0632,-0.005 0.1259,-0.0118 0.1889,-0.0174 0.79174,1.03786 1.72062,2.49554 2.61562,3.83719 1.39368,-0.25974 2.74176,-0.64043 4.03436,-1.1298 0.0705,-1.61405 0.10982,-3.34528 0.25005,-4.64327 0.92661,-0.45753 1.8103,-0.98656 2.64607,-1.57754 1.20112,0.49972 2.73397,1.29719 4.18134,2.01275 1.06665,-0.91586 2.0509,-1.92256 2.94051,-3.00759 -0.74683,-1.43394 -1.57739,-2.95153 -2.10164,-4.14209 0.57111,-0.84765 1.07775,-1.74021 1.5135,-2.67033 1.29388,-0.16816 3.0259,-0.24377 4.64054,-0.34819 0.46593,-1.3083 0.81911,-2.66579 1.05052,-4.05947 -1.35937,-0.8661 -2.8351,-1.76342 -3.88874,-2.53271 0.0661,-0.95649 0.0631,-1.92866 -0.0153,-2.91136 -0.005,-0.0631 -0.0118,-0.12571 -0.0174,-0.18866 1.03792,-0.79175 2.49576,-1.72063 3.83742,-2.61564 -0.25974,-1.39376 -0.64042,-2.74193 -1.12982,-4.0346 -1.61423,-0.0705 -3.34564,-0.10975 -4.64374,-0.25001 -0.45755,-0.92662 -0.98631,-1.81055 -1.57732,-2.64632 0.49971,-1.20117 1.29718,-2.73396 2.01275,-4.18135 -0.91588,-1.06659 -1.92254,-2.0507 -3.00758,-2.94027 -1.43391,0.74682 -2.95151,1.57739 -4.14209,2.10164 -0.84762,-0.57108 -1.74021,-1.07753 -2.67031,-1.51327 -0.16818,-1.29385 -0.24375,-3.02583 -0.34819,-4.64054 -1.30839,-0.46595 -2.66594,-0.81933 -4.05972,-1.05073 -0.86612,1.35941 -1.76369,2.83511 -2.53294,3.88876 -0.95627,-0.0661 -1.92843,-0.0632 -2.9109,0.0153 -0.0631,0.005 -0.12571,0.0118 -0.18866,0.0174 -0.79174,-1.03786 -1.72061,-2.49553 -2.615612,-3.83719 z m 3.527556,12.87658 c 5.88911,-0.47031 10.9397,3.83303 11.41,9.72214 0.47031,5.88911 -3.83329,10.93948 -9.72239,11.40978 -5.889109,0.47031 -10.939461,-3.83305 -11.409768,-9.72216 -0.470306,-5.88911 3.833054,-10.93946 9.722158,-11.40976 z" />
      <path
         id="path823"
         style="fill:#000000;fill-opacity:0.99768203;stroke:none;stroke-width:0.579011;stroke-linecap:round;stroke-linejoin:round;stroke-miterlimit:4;stroke-dasharray:none;stroke-opacity:1;paint-order:markers stroke fill"
         inkscape:transform-center-x="3.4347248"
         inkscape:transform-center-y="-7.0633045"
         d="m 133.99361,147.12609 c -1.39376,0.25974 -2.74193,0.64043 -4.03461,1.12982 -0.0705,1.61405 -0.10964,3.34527 -0.24981,4.64326 -0.92671,0.45758 -1.81043,0.98673 -2.64628,1.57779 -1.20125,-0.49964 -2.73415,-1.29714 -4.18158,-2.01273 -1.06659,0.91586 -2.0507,1.92255 -2.94027,3.00757 0.74682,1.43391 1.57739,2.95151 2.10164,4.14209 -0.57107,0.84762 -1.07754,1.74022 -1.51327,2.67031 -1.29385,0.16818 -3.02583,0.24376 -4.64054,0.34819 -0.46588,1.30823 -0.81914,2.66562 -1.05053,4.05923 1.35937,0.86611 2.83516,1.76341 3.88874,2.53271 -0.0661,0.95649 -0.0631,1.92866 0.0153,2.91136 0.005,0.0631 0.0118,0.12555 0.0174,0.18843 -1.03787,0.79178 -2.49564,1.72079 -3.83741,2.61587 0.25975,1.39376 0.64043,2.74194 1.12982,4.0346 1.61424,0.0705 3.3457,0.10974 4.64375,0.25001 0.45752,0.92656 0.98634,1.81036 1.5773,2.64609 -0.49964,1.20121 -1.29711,2.73409 -2.01273,4.18158 0.91586,1.06659 1.92255,2.0507 3.00757,2.94027 1.43391,-0.74682 2.95152,-1.57738 4.14209,-2.10164 0.84762,0.57108 1.74021,1.07753 2.67031,1.51327 0.16818,1.29385 0.24376,3.02583 0.3482,4.64054 1.30831,0.46591 2.66577,0.81936 4.05948,1.05075 0.86613,-1.35942 1.76364,-2.83511 2.53294,-3.88876 0.95635,0.0661 1.92836,0.0632 2.9109,-0.0153 0.0632,-0.005 0.1259,-0.0118 0.1889,-0.0174 0.79174,1.03786 1.72062,2.49554 2.61562,3.83719 1.39368,-0.25974 2.74176,-0.64043 4.03436,-1.1298 0.0705,-1.61405 0.10982,-3.34528 0.25005,-4.64327 0.92661,-0.45753 1.8103,-0.98656 2.64607,-1.57754 1.20112,0.49972 2.73397,1.29719 4.18134,2.01275 1.06665,-0.91586 2.0509,-1.92256 2.94051,-3.00759 -0.74683,-1.43394 -1.57739,-2.95153 -2.10164,-4.14209 0.57111,-0.84765 1.07775,-1.74021 1.5135,-2.67033 1.29388,-0.16816 3.0259,-0.24377 4.64054,-0.34819 0.46593,-1.3083 0.81911,-2.66579 1.05052,-4.05947 -1.35937,-0.8661 -2.8351,-1.76342 -3.88874,-2.53271 0.0661,-0.95649 0.0631,-1.92866 -0.0153,-2.91136 -0.005,-0.0631 -0.0118,-0.12571 -0.0174,-0.18866 1.03792,-0.79175 2.49576,-1.72063 3.83742,-2.61564 -0.25974,-1.39376 -0.64042,-2.74193 -1.12982,-4.0346 -1.61423,-0.0705 -3.34564,-0.10975 -4.64374,-0.25001 -0.45755,-0.92662 -0.98631,-1.81055 -1.57732,-2.64632 0.49971,-1.20117 1.29718,-2.73396 2.01275,-4.18135 -0.91588,-1.06659 -1.92254,-2.0507 -3.00758,-2.94027 -1.43391,0.74682 -2.95151,1.57739 -4.14209,2.10164 -0.84762,-0.57108 -1.74021,-1.07753 -2.67031,-1.51327 -0.16818,-1.29385 -0.24375,-3.02583 -0.34819,-4.64054 -1.30839,-0.46595 -2.66594,-0.81933 -4.05972,-1.05073 -0.86612,1.35941 -1.76369,2.83511 -2.53294,3.88876 -0.95627,-0.0661 -1.92843,-0.0632 -2.9109,0.0153 -0.0631,0.005 -0.12571,0.0118 -0.18866,0.0174 -0.79174,-1.03786 -1.72061,-2.49553 -2.61562,-3.83719 z m 3.52756,12.87658 c 5.88911,-0.47031 10.9397,3.83303 11.41,9.72214 0.47031,5.88911 -3.83329,10.93948 -9.72239,11.40978 -5.88912,0.47031 -10.93947,-3.83305 -11.40978,-9.72216 -0.4703,-5.88911 3.83306,-10.93946 9.72217,-11.40976 z" />
    </g>
  </g>
</svg>
