<?xml version="1.0" encoding="UTF-8" standalone="no"?>
<svg
   width="103.44819mm"
   height="103.44854mm"
   viewBox="0 0 103.44819 103.44854"
   version="1.1"
   id="svg2963"
   inkscape:version="1.1.2 (1:1.1+202202050950+0a00cf5339)"
   sodipodi:docname="explorer-robot.svg"
   xmlns:inkscape="http://www.inkscape.org/namespaces/inkscape"
   xmlns:sodipodi="http://sodipodi.sourceforge.net/DTD/sodipodi-0.dtd"
   xmlns="http://www.w3.org/2000/svg"
   xmlns:svg="http://www.w3.org/2000/svg"
   xmlns:rdf="http://www.w3.org/1999/02/22-rdf-syntax-ns#"
   xmlns:cc="http://creativecommons.org/ns#"
   xmlns:dc="http://purl.org/dc/elements/1.1/">
  <defs
     id="defs2957">
    <filter
       inkscape:collect="always"
       style="color-interpolation-filters:sRGB"
       id="filter13929"
       x="0"
       y="0"
       width="1"
       height="1">
      <feBlend
         inkscape:collect="always"
         mode="screen"
         in2="BackgroundImage"
         id="feBlend13931" />
    </filter>
    <filter
       inkscape:collect="always"
       style="color-interpolation-filters:sRGB"
       id="filter13929-7"
       x="0"
       y="0"
       width="1"
       height="1">
      <feBlend
         inkscape:collect="always"
         mode="screen"
         in2="BackgroundImage"
         id="feBlend13931-0" />
    </filter>
  </defs>
  <sodipodi:namedview
     id="base"
     pagecolor="#ffffff"
     bordercolor="#666666"
     borderopacity="1.0"
     inkscape:pageopacity="0.0"
     inkscape:pageshadow="2"
     inkscape:zoom="0.70710678"
     inkscape:cx="146.3711"
     inkscape:cy="269.40768"
     inkscape:document-units="mm"
     inkscape:current-layer="layer1"
     inkscape:document-rotation="0"
     showgrid="false"
     fit-margin-top="0"
     fit-margin-left="0"
     fit-margin-right="0"
     fit-margin-bottom="0"
     inkscape:window-width="1600"
     inkscape:window-height="840"
     inkscape:window-x="0"
     inkscape:window-y="0"
     inkscape:window-maximized="1"
     inkscape:pagecheckerboard="0"
     showguides="false"
     inkscape:guide-bbox="true"
     inkscape:snap-bbox="true"
     inkscape:bbox-paths="true"
     inkscape:bbox-nodes="true"
     inkscape:snap-bbox-edge-midpoints="true"
     inkscape:snap-bbox-midpoints="true"
     inkscape:snap-global="false">
    <sodipodi:guide
       position="51.310267,42.877856"
       orientation="0,-1"
       id="guide6374" />
    <sodipodi:guide
       position="44.509116,21.20835"
       orientation="0,-1"
       id="guide6378" />
  </sodipodi:namedview>
  <metadata
     id="metadata2960">
    <rdf:RDF>
      <cc:Work
         rdf:about="">
        <dc:format>image/svg+xml</dc:format>
        <dc:type
           rdf:resource="http://purl.org/dc/dcmitype/StillImage" />
      </cc:Work>
    </rdf:RDF>
  </metadata>
  <g
     inkscape:label="Capa 1"
     inkscape:groupmode="layer"
     id="layer1"
     transform="translate(-64.692584,-136.5079)">
    <g
       id="signal"
       transform="matrix(0.04396469,-0.07810779,0.07810779,0.04396469,39.343315,239.11202)"
       style="filter:url(#filter13929)" />
    <g
       id="g1061"
       transform="matrix(0.37671708,0,0,0.37671708,70.802815,103.43348)"
       style="fill:#000000;fill-opacity:0.997682" />
    <g
       id="g4081"
       transform="matrix(-0.04396469,-0.07810779,-0.07810779,0.04396469,190.1583,239.11202)"
       style="filter:url(#filter13929)" />
    <g
       id="g4085"
       transform="matrix(-0.04118057,0.0521485,0.0521485,0.04118057,115.44339,118.85998)"
       style="filter:url(#filter13929)" />
    <g
       id="g12456"
       transform="matrix(1.4807889,0,0,1.4807889,-55.236969,-94.933465)">
      <path
         id="rect7541"
         style="fill:#000000;fill-opacity:1;stroke:none;stroke-width:1.20926;stroke-miterlimit:4;stroke-dasharray:none;stroke-opacity:1;paint-order:markers stroke fill"
         d="m 128.06024,173.31616 -4.96498,2.90631 -0.13481,1.40784 a 1.8628204,1.8599993 0 0 0 -1.79128,1.85742 1.8628204,1.8599993 0 0 0 1.09912,1.69495 v 0.51507 h -0.76369 v 3.23728 h 0.76369 v 2.40714 h -0.48645 v 4.19843 h 0.48645 v 4.97865 h -15.27107 l -1.10358,-0.77514 v -9.76273 a 1.1395043,1.1395043 0 0 0 0.58311,-0.99452 1.1395043,1.1395043 0 0 0 -1.1395,-1.13951 1.1395043,1.1395043 0 0 0 -1.13951,1.13951 1.1395043,1.1395043 0 0 0 0.57071,0.98721 v 8.97964 l -7.042737,-4.94718 -4.287449,0.0521 0.08076,7.01157 8.730056,5.96174 v 3.2e-4 h 3.11805 v 0.16533 l -3.93771,0.20698 -1.38623,1.39927 a 1.3286012,1.2930441 0 0 0 -0.167869,-0.0105 1.3286012,1.2930441 0 0 0 -1.328679,1.29307 1.3286012,1.2930441 0 0 0 0.01812,0.20952 l -1.453313,1.4673 a 4.8370556,4.8370556 0 0 0 -1.973466,-0.42413 4.8370556,4.8370556 0 0 0 -4.837171,4.83685 4.8370556,4.8370556 0 0 0 4.837171,4.83717 4.8370556,4.8370556 0 0 0 4.836852,-4.83717 4.8370556,4.8370556 0 0 0 -1.488604,-3.4875 l 1.300701,-1.31247 a 1.3286012,1.2930441 0 0 0 0.08839,0.004 1.3286012,1.2930441 0 0 0 1.328678,-1.29307 1.3286012,1.2930441 0 0 0 -0.007,-0.13322 l 0.94652,-0.95509 3.22393,-0.16979 v 0.66069 h 17.45151 v -0.5351 l 2.65991,0.28265 -1.8056,1.09563 a 1.1418447,1.1380366 0 0 0 -0.3332,-0.0496 1.1418447,1.1380366 0 0 0 -1.12233,0.93316 l -2.87357,1.74359 a 4.8370556,4.8370556 0 0 0 -3.38258,-1.37955 4.8370556,4.8370556 0 0 0 -4.83685,4.83717 4.8370556,4.8370556 0 0 0 4.83685,4.83686 4.8370556,4.8370556 0 0 0 4.83717,-4.83686 4.8370556,4.8370556 0 0 0 -0.49663,-2.13434 l 2.86339,-1.73787 a 1.1418447,1.1380366 0 0 0 0.17455,0.0137 1.1418447,1.1380366 0 0 0 1.08259,-0.77673 l 3.49323,-2.11972 4.89917,3.64139 a 4.8370556,4.8370556 0 0 0 -0.86671,2.76037 4.8370556,4.8370556 0 0 0 4.83686,4.83718 4.8370556,4.8370556 0 0 0 4.83717,-4.83718 4.8370556,4.8370556 0 0 0 -4.83717,-4.83717 4.8370556,4.8370556 0 0 0 -2.81506,0.90709 l -5.70102,-4.23753 -5.45017,-0.57897 v -0.28488 h 6.85515 v -4.49506 h 3.0958 v -2.01798 h -1.43678 v -4.22354 h -0.10523 l 6.68187,-6.49333 a 1.9534361,1.9534361 0 0 0 0.0792,0.0277 l 1.58812,8.54183 a 1.9534361,1.9534361 0 0 0 -0.69788,1.49496 1.9534361,1.9534361 0 0 0 0.0531,0.45052 h -0.84128 v 2.69043 h 0.56817 v 1.6498 h 0.85685 v 1.69241 h 0.75352 v -3.34221 h 1.08546 v 3.319 h 0.7532 v -1.75313 h 0.86321 v -1.56587 h 0.39743 v -2.69043 h -0.63588 a 1.9534361,1.9534361 0 0 0 0.0531,-0.45052 1.9534361,1.9534361 0 0 0 -1.63358,-1.92704 l -1.54584,-8.31705 a 1.9534361,1.9534361 0 0 0 0.92013,-1.65648 1.9534361,1.9534361 0 0 0 -1.95344,-1.95344 1.9534361,1.9534361 0 0 0 -1.95344,1.95344 1.9534361,1.9534361 0 0 0 0.12845,0.69502 l -7.84013,7.61948 0.0146,0.0149 h -0.86449 v 4.22354 h -4.20224 v -4.97866 h 0.48646 v -4.19842 h -0.48646 v -2.40715 h 2.33497 v -3.23728 h -2.33496 v -0.54209 a 1.8628204,1.8599993 0 0 0 0.81806,-0.78914 l 1.0349,0.009 3.29833,-1.24475 z" />
      <path
         style="color:#000000;font-style:normal;font-variant:normal;font-weight:normal;font-stretch:normal;font-size:medium;line-height:normal;font-family:sans-serif;font-variant-ligatures:normal;font-variant-position:normal;font-variant-caps:normal;font-variant-numeric:normal;font-variant-alternates:normal;font-feature-settings:normal;text-indent:0;text-align:start;text-decoration:none;text-decoration-line:none;text-decoration-style:solid;text-decoration-color:#000000;letter-spacing:normal;word-spacing:normal;text-transform:none;writing-mode:lr-tb;direction:ltr;text-orientation:mixed;dominant-baseline:auto;baseline-shift:baseline;text-anchor:start;white-space:normal;shape-padding:0;clip-rule:nonzero;display:inline;overflow:visible;visibility:visible;isolation:auto;mix-blend-mode:normal;color-interpolation:sRGB;color-interpolation-filters:linearRGB;solid-color:#000000;solid-opacity:1;vector-effect:none;fill:#000000;fill-opacity:1;fill-rule:nonzero;stroke:none;stroke-width:25;stroke-linecap:round;stroke-linejoin:round;stroke-miterlimit:4;stroke-dasharray:none;stroke-dashoffset:0;stroke-opacity:1;paint-order:normal;filter:url(#filter13929-7);color-rendering:auto;image-rendering:auto;shape-rendering:auto;text-rendering:auto;enable-background:accumulate"
         d="m 394.07617,133.61133 c -3.98718,0.0263 -7.96984,0.1724 -11.94336,0.43555 -40.87043,2.70661 -80.7299,17.90328 -113.63281,44.79101 -58.49406,47.80042 -85.16071,124.50096 -68.9375,198.2793 a 12.50125,12.50125 0 1 0 24.41602,-5.36914 c -14.21042,-64.62471 9.10505,-131.68093 60.34179,-173.55078 51.23674,-41.86985 121.59275,-51.36282 182.0918,-24.56446 a 12.50125,12.50125 0 1 0 10.125,-22.85742 c -26.44023,-11.71182 -54.55067,-17.34826 -82.46094,-17.16406 z m 9.9043,48.70508 c -4.53904,0.0164 -9.06932,0.22701 -13.57617,0.63086 -30.04567,2.6923 -59.09864,13.93795 -83.45703,32.97461 -38.97344,30.45866 -61.50031,77.40154 -60.87696,126.86132 a 13.555952,13.555952 0 1 0 27.10742,-0.34179 c -0.51696,-41.01982 18.14,-79.89907 50.46289,-105.16016 32.3229,-25.26111 74.55697,-33.97012 114.23633,-23.55664 a 13.555952,13.555952 0 1 0 6.88282,-26.2207 c -13.456,-3.53141 -27.16219,-5.23678 -40.7793,-5.1875 z m -0.82227,51.9707 c -3.41041,0.0359 -6.79255,0.23231 -10.13672,0.58398 -46.81826,4.92341 -86.29874,40.15423 -95.17578,87.94922 a 12.50125,12.50125 0 1 0 24.57813,4.56446 c 7.83832,-42.20245 46.16413,-71.42272 88.93555,-67.80469 a 12.50125,12.50125 0 1 0 2.10937,-24.91211 c -3.45996,-0.29268 -6.90013,-0.41681 -10.31055,-0.38086 z"
         transform="matrix(0.05849744,0.04153092,-0.04153092,0.05849744,96.273359,148.13051)"
         id="signals"
         inkscape:connector-curvature="0" />
    </g>
  </g>
</svg>
