<?xml version="1.0" encoding="UTF-8" standalone="no"?>
<!-- Created with Inkscape (http://www.inkscape.org/) -->

<svg
   width="1200"
   height="1200"
   viewBox="0 0 1200 1200"
   version="1.1"
   id="svg5"
   inkscape:version="1.1.1 (3bf5ae0d25, 2021-09-20)"
   sodipodi:docname="fibra-opt-structura.svg"
   xmlns:inkscape="http://www.inkscape.org/namespaces/inkscape"
   xmlns:sodipodi="http://sodipodi.sourceforge.net/DTD/sodipodi-0.dtd"
   xmlns="http://www.w3.org/2000/svg"
   xmlns:svg="http://www.w3.org/2000/svg">
  <sodipodi:namedview
     id="namedview7"
     pagecolor="#ffffff"
     bordercolor="#666666"
     borderopacity="1.0"
     inkscape:pageshadow="2"
     inkscape:pageopacity="0.0"
     inkscape:pagecheckerboard="0"
     inkscape:document-units="px"
     showgrid="false"
     units="px"
     showguides="false"
     inkscape:guide-bbox="true"
     inkscape:snap-bbox="true"
     inkscape:bbox-paths="true"
     inkscape:bbox-nodes="true"
     inkscape:snap-bbox-edge-midpoints="true"
     inkscape:snap-bbox-midpoints="true"
     inkscape:zoom="0.45254834"
     inkscape:cx="572.31455"
     inkscape:cy="605.46018"
     inkscape:window-width="1600"
     inkscape:window-height="837"
     inkscape:window-x="-8"
     inkscape:window-y="-8"
     inkscape:window-maximized="1"
     inkscape:current-layer="layer1"
     inkscape:snap-global="true">
    <inkscape:grid
       type="xygrid"
       id="grid854" />
    <sodipodi:guide
       position="707.8125,976.76692"
       orientation="0,-1"
       id="guide8521" />
    <sodipodi:guide
       position="773.75244,927.5"
       orientation="1,0"
       id="guide8523" />
    <sodipodi:guide
       position="717.05047,476.76692"
       orientation="0,-1"
       id="guide9039" />
    <sodipodi:guide
       position="889.40775,876.76691"
       orientation="0,-1"
       id="guide9123" />
    <sodipodi:guide
       position="773.75244,676.76691"
       orientation="0,-1"
       id="guide9149" />
    <sodipodi:guide
       position="531.43494,476.76758"
       orientation="0,-1"
       id="guide11400" />
  </sodipodi:namedview>
  <defs
     id="defs2" />
  <g
     inkscape:label="Capa 1"
     inkscape:groupmode="layer"
     id="layer1">
    <path
       id="circle24224"
       style="color:#000000;fill:#000000;stroke-width:0.441256;stroke-linecap:square;-inkscape-stroke:none;paint-order:markers stroke fill"
       d="m 599.99999,120.10499 c -127.26602,0 -249.34656,50.56753 -339.33724,140.5582 -89.99067,89.99067 -140.55736,212.07035 -140.55736,339.33639 0,127.26602 50.56669,249.34655 140.55736,339.33725 89.99068,89.99057 212.07122,140.55817 339.33724,140.55817 127.26603,0 249.34656,-50.5676 339.33723,-140.55817 89.99068,-89.9907 140.55738,-212.07123 140.55738,-339.33725 0,-127.26603 -50.5667,-249.34571 -140.55738,-339.33638 C 849.34655,170.67253 727.26602,120.105 599.99999,120.10499 Z m 0,51.44168 c 113.64251,0 222.60464,45.13433 302.96203,125.49172 80.35739,80.35739 125.49088,189.31866 125.49088,302.96119 0,113.64251 -45.13349,222.60465 -125.49088,302.96205 -80.35739,80.35739 -189.31952,125.49077 -302.96203,125.49077 -113.64254,0 -222.60463,-45.13338 -302.96202,-125.49077 -80.35743,-80.3574 -125.49088,-189.31954 -125.49088,-302.96205 0,-113.64252 45.13345,-222.60379 125.49088,-302.96118 80.35739,-80.35739 189.31948,-125.49172 302.96202,-125.49173 z m 0,15.82576 c -109.43335,0 -214.391,43.47487 -291.77207,120.85594 -77.38107,77.38107 -120.85505,182.33784 -120.85505,291.77121 0,109.43335 43.47398,214.39095 120.85505,291.77205 77.38107,77.3811 182.33872,120.85587 291.77207,120.85587 109.43335,0 214.39012,-43.47477 291.77119,-120.85587 77.38107,-77.3811 120.85592,-182.3387 120.85592,-291.77205 0,-109.43336 -43.47485,-214.39013 -120.85592,-291.7712 C 814.39011,230.8473 709.43334,187.37243 599.99999,187.37243 Z m 0,11.03141 c 106.51188,0 208.6555,42.30967 283.97078,117.62494 75.31527,75.31528 117.62493,177.4589 117.62493,283.9708 0,106.51188 -42.30966,208.65635 -117.62493,283.97164 -75.31528,75.3153 -177.4589,117.62488 -283.97078,117.62488 -106.51188,0 -208.65639,-42.30958 -283.97163,-117.62488 -75.31529,-75.31529 -117.62408,-177.45976 -117.62408,-283.97164 0,-106.51189 42.30879,-208.65551 117.62408,-283.97079 75.31524,-75.31527 177.45975,-117.62494 283.97163,-117.62495 z m 0,61.74484 A 339.85126,339.85126 0 0 0 260.14908,599.99957 339.85126,339.85126 0 0 0 599.99999,939.85132 339.85126,339.85126 0 0 0 939.85087,599.99957 339.85126,339.85126 0 0 0 599.99999,260.14868 Z m -11.70019,67.8035 c 2.54532,0.0844 5.25891,0.33604 8.11498,0.73686 39.98494,5.61149 107.95435,40.50679 134.26599,56.50924 33.84246,20.58264 120.09482,81.12871 136.81787,117.03545 14.85913,31.90468 0.10252,125.52855 -7.99863,159.77871 -9.11734,38.54646 -40.04824,139.28686 -69.02988,166.28728 -25.75143,23.9909 -119.3521,38.8875 -154.42934,41.7667 -39.47727,3.2404 -144.84452,4.9547 -179.47925,-14.2649 -30.7744,-17.0775 -73.86678,-101.49369 -87.44454,-133.96439 -15.28097,-36.54379 -49.47233,-136.22498 -41.89609,-175.10374 6.73181,-34.54539 73.70095,-101.61457 100.38663,-124.5618 30.03322,-25.82568 114.26944,-89.14607 153.58649,-93.95483 2.18343,-0.26705 4.56045,-0.34901 7.10577,-0.26458 z m -4.13074,14.5244 a 17.650249,17.650249 0 0 0 -19.6609,15.37933 17.650249,17.650249 0 0 0 15.37933,19.66089 17.650249,17.650249 0 0 0 19.6609,-15.37933 17.650249,17.650249 0 0 0 -15.37933,-19.66089 z m 43.79985,5.35195 a 17.650249,17.650249 0 0 0 -19.6609,15.37933 17.650249,17.650249 0 0 0 15.37933,19.6609 17.650249,17.650249 0 0 0 19.6609,-15.37932 17.650249,17.650249 0 0 0 -15.37933,-19.66091 z m -92.95166,33.09594 a 17.650249,17.650249 0 0 0 -19.66089,15.37933 17.650249,17.650249 0 0 0 15.37933,19.66089 17.650249,17.650249 0 0 0 19.66089,-15.37932 17.650249,17.650249 0 0 0 -15.37933,-19.6609 z m 43.79985,5.35195 a 17.650249,17.650249 0 0 0 -19.66089,15.37934 17.650249,17.650249 0 0 0 15.37933,19.66089 17.650249,17.650249 0 0 0 19.66089,-15.37933 17.650249,17.650249 0 0 0 -15.37933,-19.6609 z m 43.79985,5.35196 a 17.650249,17.650249 0 0 0 -19.66089,15.37933 17.650249,17.650249 0 0 0 15.37933,19.6609 17.650249,17.650249 0 0 0 19.66089,-15.37933 17.650249,17.650249 0 0 0 -15.37933,-19.6609 z m 43.79986,5.35196 a 17.650249,17.650249 0 0 0 -19.6609,15.37933 17.650249,17.650249 0 0 0 15.37933,19.66089 17.650249,17.650249 0 0 0 19.66089,-15.37933 17.650249,17.650249 0 0 0 -15.37932,-19.66089 z m 43.79984,5.35195 a 17.650249,17.650249 0 0 0 -19.66089,15.37933 17.650249,17.650249 0 0 0 15.37933,19.6609 17.650249,17.650249 0 0 0 19.66089,-15.37932 17.650249,17.650249 0 0 0 -15.37933,-19.66091 z m 43.79985,5.35196 a 17.650249,17.650249 0 0 0 -19.66089,15.37933 17.650249,17.650249 0 0 0 15.37933,19.66003 17.650249,17.650249 0 0 0 19.6609,-15.37847 17.650249,17.650249 0 0 0 -15.37934,-19.66089 z m -268.15105,11.68899 a 17.650249,17.650249 0 0 0 -19.66088,15.37847 17.650249,17.650249 0 0 0 15.37933,19.66088 17.650249,17.650249 0 0 0 19.66087,-15.37932 17.650249,17.650249 0 0 0 -15.37932,-19.66003 z m 43.79985,5.35109 a 17.650249,17.650249 0 0 0 -19.6609,15.37932 17.650249,17.650249 0 0 0 15.37933,19.66091 17.650249,17.650249 0 0 0 19.6609,-15.37933 17.650249,17.650249 0 0 0 -15.37933,-19.6609 z m 43.79985,5.35196 a 17.650249,17.650249 0 0 0 -19.6609,15.37933 17.650249,17.650249 0 0 0 15.37933,19.66089 17.650249,17.650249 0 0 0 19.6609,-15.37933 17.650249,17.650249 0 0 0 -15.37933,-19.66089 z m 43.79985,5.35195 a 17.650249,17.650249 0 0 0 -19.6609,15.37932 17.650249,17.650249 0 0 0 15.37933,19.66091 17.650249,17.650249 0 0 0 19.6609,-15.37933 17.650249,17.650249 0 0 0 -15.37933,-19.6609 z m 43.79985,5.35196 a 17.650249,17.650249 0 0 0 -19.6609,15.37933 17.650249,17.650249 0 0 0 15.37933,19.66089 17.650249,17.650249 0 0 0 19.6609,-15.37933 17.650249,17.650249 0 0 0 -15.37933,-19.66089 z m 43.79985,5.35195 a 17.650249,17.650249 0 0 0 -19.66089,15.37933 17.650249,17.650249 0 0 0 15.37932,19.6609 17.650249,17.650249 0 0 0 19.6609,-15.37933 17.650249,17.650249 0 0 0 -15.37933,-19.6609 z m 43.79985,5.35196 a 17.650249,17.650249 0 0 0 -19.66089,15.37933 17.650249,17.650249 0 0 0 15.37932,19.66003 17.650249,17.650249 0 0 0 19.6609,-15.37847 17.650249,17.650249 0 0 0 -15.37933,-19.66089 z m 43.79985,5.35195 a 17.650249,17.650249 0 0 0 -19.6609,15.37847 17.650249,17.650249 0 0 0 15.37933,19.6609 17.650249,17.650249 0 0 0 19.6609,-15.37933 17.650249,17.650249 0 0 0 -15.37933,-19.66004 z m -355.75075,0.98507 a 17.650249,17.650249 0 0 0 -19.66092,15.37933 17.650249,17.650249 0 0 0 15.37933,19.66004 17.650249,17.650249 0 0 0 19.66092,-15.37933 17.650249,17.650249 0 0 0 -15.37933,-19.66004 z m 43.79985,5.35196 a 17.650249,17.650249 0 0 0 -19.66092,15.37847 17.650249,17.650249 0 0 0 15.37936,19.66089 17.650249,17.650249 0 0 0 19.66088,-15.37933 17.650249,17.650249 0 0 0 -15.37932,-19.66003 z m 43.79984,5.35109 a 17.650249,17.650249 0 0 0 -19.66088,15.37933 17.650249,17.650249 0 0 0 15.37932,19.6609 17.650249,17.650249 0 0 0 19.66089,-15.37933 17.650249,17.650249 0 0 0 -15.37933,-19.6609 z m 43.79985,5.35196 a 17.650249,17.650249 0 0 0 -19.66089,15.37933 17.650249,17.650249 0 0 0 15.37933,19.66089 17.650249,17.650249 0 0 0 19.66089,-15.37933 17.650249,17.650249 0 0 0 -15.37933,-19.66089 z m 43.79985,5.35195 a 17.650249,17.650249 0 0 0 -19.66089,15.37933 17.650249,17.650249 0 0 0 15.37933,19.6609 17.650249,17.650249 0 0 0 19.66089,-15.37933 17.650249,17.650249 0 0 0 -15.37933,-19.6609 z m 43.79985,5.35196 a 17.650249,17.650249 0 0 0 -19.66089,15.37933 17.650249,17.650249 0 0 0 15.37933,19.66089 17.650249,17.650249 0 0 0 19.66089,-15.37933 17.650249,17.650249 0 0 0 -15.37933,-19.66089 z m 43.79985,5.35195 a 17.650249,17.650249 0 0 0 -19.66089,15.37933 17.650249,17.650249 0 0 0 15.37933,19.6609 17.650249,17.650249 0 0 0 19.66089,-15.37933 17.650249,17.650249 0 0 0 -15.37933,-19.6609 z m 43.79985,5.35196 a 17.650249,17.650249 0 0 0 -19.66003,15.37933 17.650249,17.650249 0 0 0 15.37847,19.66003 17.650249,17.650249 0 0 0 19.6609,-15.37847 17.650249,17.650249 0 0 0 -15.37934,-19.66089 z m -355.75077,0.98507 a 17.650249,17.650249 0 0 0 -19.66,15.37933 17.650249,17.650249 0 0 0 15.37844,19.66003 17.650249,17.650249 0 0 0 19.66092,-15.37847 17.650249,17.650249 0 0 0 -15.37936,-19.66089 z m 399.55062,4.36688 a 17.650249,17.650249 0 0 0 -19.66003,15.37933 17.650249,17.650249 0 0 0 15.37847,19.66004 17.650249,17.650249 0 0 0 19.66089,-15.37933 17.650249,17.650249 0 0 0 -15.37933,-19.66004 z m -355.75074,0.98507 a 17.650249,17.650249 0 0 0 -19.66004,15.37933 17.650249,17.650249 0 0 0 15.37845,19.66004 17.650249,17.650249 0 0 0 19.66092,-15.37933 17.650249,17.650249 0 0 0 -15.37933,-19.66004 z m 43.79984,5.35196 a 17.650249,17.650249 0 0 0 -19.66003,15.37847 17.650249,17.650249 0 0 0 15.37848,19.66089 17.650249,17.650249 0 0 0 19.66088,-15.37933 17.650249,17.650249 0 0 0 -15.37933,-19.66003 z m 43.79985,5.35109 a 17.650249,17.650249 0 0 0 -19.66004,15.37933 17.650249,17.650249 0 0 0 15.37847,19.6609 17.650249,17.650249 0 0 0 19.6609,-15.37933 17.650249,17.650249 0 0 0 -15.37933,-19.6609 z m 43.79985,5.35196 a 17.650249,17.650249 0 0 0 -19.66004,15.37933 17.650249,17.650249 0 0 0 15.37847,19.66089 17.650249,17.650249 0 0 0 19.6609,-15.37933 17.650249,17.650249 0 0 0 -15.37933,-19.66089 z m 43.79985,5.35195 a 17.650249,17.650249 0 0 0 -19.66004,15.37933 17.650249,17.650249 0 0 0 15.37847,19.6609 17.650249,17.650249 0 0 0 19.6609,-15.37933 17.650249,17.650249 0 0 0 -15.37933,-19.6609 z m 43.79985,5.35196 a 17.650249,17.650249 0 0 0 -19.66004,15.37933 17.650249,17.650249 0 0 0 15.37847,19.66088 17.650249,17.650249 0 0 0 19.6609,-15.37932 17.650249,17.650249 0 0 0 -15.37933,-19.66089 z m 43.79985,5.35195 a 17.650249,17.650249 0 0 0 -19.66003,15.37932 17.650249,17.650249 0 0 0 15.37846,19.6609 17.650249,17.650249 0 0 0 19.6609,-15.37933 17.650249,17.650249 0 0 0 -15.37933,-19.66089 z m 43.79985,5.35195 a 17.650249,17.650249 0 0 0 -19.66003,15.37933 17.650249,17.650249 0 0 0 15.37933,19.66003 17.650249,17.650249 0 0 0 19.66003,-15.37847 17.650249,17.650249 0 0 0 -15.37933,-19.66089 z m -355.75078,0.98507 a 17.650249,17.650249 0 0 0 -19.65999,15.37933 17.650249,17.650249 0 0 0 15.37932,19.66089 17.650249,17.650249 0 0 0 19.66004,-15.37933 17.650249,17.650249 0 0 0 -15.37937,-19.66089 z m 399.55063,4.36688 a 17.650249,17.650249 0 0 0 -19.66004,15.37933 17.650249,17.650249 0 0 0 15.37934,19.66004 17.650249,17.650249 0 0 0 19.66003,-15.37933 17.650249,17.650249 0 0 0 -15.37933,-19.66004 z m -355.75074,0.98507 a 17.650249,17.650249 0 0 0 -19.66004,15.37933 17.650249,17.650249 0 0 0 15.37844,19.66004 17.650249,17.650249 0 0 0 19.66092,-15.37847 17.650249,17.650249 0 0 0 -15.37932,-19.6609 z m 399.55059,4.36689 a 17.650249,17.650249 0 0 0 -19.66004,15.37847 17.650249,17.650249 0 0 0 15.37934,19.66089 17.650249,17.650249 0 0 0 19.66003,-15.37933 17.650249,17.650249 0 0 0 -15.37933,-19.66003 z m -355.75075,0.98507 a 17.650249,17.650249 0 0 0 -19.66004,15.37847 17.650249,17.650249 0 0 0 15.37933,19.66089 17.650249,17.650249 0 0 0 19.66004,-15.37933 17.650249,17.650249 0 0 0 -15.37933,-19.66003 z m 43.79984,5.35109 a 17.650249,17.650249 0 0 0 -19.66003,15.37933 17.650249,17.650249 0 0 0 15.37933,19.6609 17.650249,17.650249 0 0 0 19.66003,-15.37933 17.650249,17.650249 0 0 0 -15.37933,-19.6609 z m 43.79985,5.35196 a 17.650249,17.650249 0 0 0 -19.66003,15.37933 17.650249,17.650249 0 0 0 15.37933,19.66089 17.650249,17.650249 0 0 0 19.66003,-15.37933 17.650249,17.650249 0 0 0 -15.37933,-19.66089 z m 43.79985,5.35195 a 17.650249,17.650249 0 0 0 -19.66003,15.37933 17.650249,17.650249 0 0 0 15.37933,19.6609 17.650249,17.650249 0 0 0 19.66003,-15.37933 17.650249,17.650249 0 0 0 -15.37933,-19.6609 z m 43.80071,5.35196 a 17.650249,17.650249 0 0 0 -19.66089,15.37933 17.650249,17.650249 0 0 0 15.37933,19.66089 17.650249,17.650249 0 0 0 19.66003,-15.37933 17.650249,17.650249 0 0 0 -15.37847,-19.66089 z m 43.79985,5.35195 a 17.650249,17.650249 0 0 0 -19.66089,15.37933 17.650249,17.650249 0 0 0 15.37933,19.6609 17.650249,17.650249 0 0 0 19.66003,-15.37933 17.650249,17.650249 0 0 0 -15.37847,-19.6609 z m 43.79985,5.35196 a 17.650249,17.650249 0 0 0 -19.66089,15.37933 17.650249,17.650249 0 0 0 15.37933,19.66003 17.650249,17.650249 0 0 0 19.66003,-15.37847 17.650249,17.650249 0 0 0 -15.37847,-19.66089 z m -355.75163,0.98507 a 17.650249,17.650249 0 0 0 -19.66004,15.37933 17.650249,17.650249 0 0 0 15.37937,19.66089 17.650249,17.650249 0 0 0 19.65999,-15.37933 17.650249,17.650249 0 0 0 -15.37932,-19.66089 z m 399.55149,4.36688 a 17.650249,17.650249 0 0 0 -19.6609,15.37934 17.650249,17.650249 0 0 0 15.37933,19.66003 17.650249,17.650249 0 0 0 19.66003,-15.37933 17.650249,17.650249 0 0 0 -15.37846,-19.66004 z m -355.75076,0.98507 a 17.650249,17.650249 0 0 0 -19.66088,15.37934 17.650249,17.650249 0 0 0 15.37932,19.66003 17.650249,17.650249 0 0 0 19.66004,-15.37847 17.650249,17.650249 0 0 0 -15.37848,-19.6609 z m 43.79984,5.35196 a 17.650249,17.650249 0 0 0 -19.66088,15.37933 17.650249,17.650249 0 0 0 15.37932,19.66003 17.650249,17.650249 0 0 0 19.66004,-15.37933 17.650249,17.650249 0 0 0 -15.37848,-19.66003 z m 43.79984,5.35195 a 17.650249,17.650249 0 0 0 -19.66088,15.37847 17.650249,17.650249 0 0 0 15.37933,19.6609 17.650249,17.650249 0 0 0 19.66003,-15.37933 17.650249,17.650249 0 0 0 -15.37848,-19.66004 z m 43.79987,5.3511 a 17.650249,17.650249 0 0 0 -19.6609,15.37933 17.650249,17.650249 0 0 0 15.37933,19.66089 17.650249,17.650249 0 0 0 19.66004,-15.37933 17.650249,17.650249 0 0 0 -15.37847,-19.66089 z m 43.79985,5.35195 a 17.650249,17.650249 0 0 0 -19.6609,15.37933 17.650249,17.650249 0 0 0 15.37933,19.6609 17.650249,17.650249 0 0 0 19.66004,-15.37933 17.650249,17.650249 0 0 0 -15.37847,-19.6609 z m 43.79985,5.35196 a 17.650249,17.650249 0 0 0 -19.66089,15.37933 17.650249,17.650249 0 0 0 15.37932,19.66089 17.650249,17.650249 0 0 0 19.66004,-15.37933 17.650249,17.650249 0 0 0 -15.37847,-19.66089 z m 43.79985,5.35196 a 17.650249,17.650249 0 0 0 -19.66089,15.37932 17.650249,17.650249 0 0 0 15.37932,19.6609 17.650249,17.650249 0 0 0 19.6609,-15.37933 17.650249,17.650249 0 0 0 -15.37933,-19.66089 z m 43.79985,5.35195 a 17.650249,17.650249 0 0 0 -19.6609,15.37933 17.650249,17.650249 0 0 0 15.37934,19.66003 17.650249,17.650249 0 0 0 19.66089,-15.37847 17.650249,17.650249 0 0 0 -15.37933,-19.66089 z m -355.75075,0.98507 a 17.650249,17.650249 0 0 0 -19.66092,15.37933 17.650249,17.650249 0 0 0 15.37937,19.66089 17.650249,17.650249 0 0 0 19.65999,-15.37932 17.650249,17.650249 0 0 0 -15.37844,-19.6609 z m 399.5506,4.36688 a 17.650249,17.650249 0 0 0 -19.6609,15.37933 17.650249,17.650249 0 0 0 15.37934,19.66004 17.650249,17.650249 0 0 0 19.66089,-15.37933 17.650249,17.650249 0 0 0 -15.37933,-19.66004 z m -355.75076,0.98507 a 17.650249,17.650249 0 0 0 -19.66087,15.37934 17.650249,17.650249 0 0 0 15.37932,19.66003 17.650249,17.650249 0 0 0 19.66088,-15.37847 17.650249,17.650249 0 0 0 -15.37933,-19.6609 z m 399.55061,4.36689 a 17.650249,17.650249 0 0 0 -19.6609,15.37847 17.650249,17.650249 0 0 0 15.37934,19.66089 17.650249,17.650249 0 0 0 19.66089,-15.37933 17.650249,17.650249 0 0 0 -15.37933,-19.66003 z m -355.75076,0.98507 a 17.650249,17.650249 0 0 0 -19.66088,15.37933 17.650249,17.650249 0 0 0 15.37932,19.66003 17.650249,17.650249 0 0 0 19.66088,-15.37933 17.650249,17.650249 0 0 0 -15.37932,-19.66003 z m 43.79984,5.35195 a 17.650249,17.650249 0 0 0 -19.66088,15.37848 17.650249,17.650249 0 0 0 15.37932,19.66089 17.650249,17.650249 0 0 0 19.6609,-15.37933 17.650249,17.650249 0 0 0 -15.37934,-19.66004 z m 43.79986,5.3511 a 17.650249,17.650249 0 0 0 -19.66089,15.37933 17.650249,17.650249 0 0 0 15.37933,19.66089 17.650249,17.650249 0 0 0 19.66089,-15.37933 17.650249,17.650249 0 0 0 -15.37933,-19.66089 z m 43.79985,5.35195 a 17.650249,17.650249 0 0 0 -19.66089,15.37933 17.650249,17.650249 0 0 0 15.37933,19.6609 17.650249,17.650249 0 0 0 19.66089,-15.37933 17.650249,17.650249 0 0 0 -15.37933,-19.6609 z m 43.79985,5.35196 a 17.650249,17.650249 0 0 0 -19.66089,15.37933 17.650249,17.650249 0 0 0 15.37933,19.6609 17.650249,17.650249 0 0 0 19.6609,-15.37934 17.650249,17.650249 0 0 0 -15.37934,-19.66089 z m 43.79985,5.35196 a 17.650249,17.650249 0 0 0 -19.66089,15.37932 17.650249,17.650249 0 0 0 15.37933,19.6609 17.650249,17.650249 0 0 0 19.66089,-15.37933 17.650249,17.650249 0 0 0 -15.37933,-19.66089 z m 43.79986,5.35195 a 17.650249,17.650249 0 0 0 -19.6609,15.37933 17.650249,17.650249 0 0 0 15.37933,19.66003 17.650249,17.650249 0 0 0 19.66089,-15.37847 17.650249,17.650249 0 0 0 -15.37932,-19.66089 z m 43.79985,5.35196 a 17.650249,17.650249 0 0 0 -19.6609,15.37932 17.650249,17.650249 0 0 0 15.37933,19.66004 17.650249,17.650249 0 0 0 19.66089,-15.37933 17.650249,17.650249 0 0 0 -15.37932,-19.66003 z m -355.75076,0.98506 a 17.650249,17.650249 0 0 0 -19.66088,15.37934 17.650249,17.650249 0 0 0 15.37933,19.66003 17.650249,17.650249 0 0 0 19.66087,-15.37847 17.650249,17.650249 0 0 0 -15.37932,-19.6609 z m 43.79984,5.35196 a 17.650249,17.650249 0 0 0 -19.66087,15.37933 17.650249,17.650249 0 0 0 15.37932,19.66003 17.650249,17.650249 0 0 0 19.66088,-15.37933 17.650249,17.650249 0 0 0 -15.37933,-19.66003 z m 43.79984,5.35195 a 17.650249,17.650249 0 0 0 -19.66087,15.37847 17.650249,17.650249 0 0 0 15.37932,19.6609 17.650249,17.650249 0 0 0 19.6609,-15.37933 17.650249,17.650249 0 0 0 -15.37935,-19.66004 z m 43.79987,5.3511 a 17.650249,17.650249 0 0 0 -19.6609,15.37933 17.650249,17.650249 0 0 0 15.37933,19.66089 17.650249,17.650249 0 0 0 19.6609,-15.37933 17.650249,17.650249 0 0 0 -15.37933,-19.66089 z m 43.79985,5.35195 a 17.650249,17.650249 0 0 0 -19.6609,15.37934 17.650249,17.650249 0 0 0 15.37933,19.66089 17.650249,17.650249 0 0 0 19.6609,-15.37933 17.650249,17.650249 0 0 0 -15.37933,-19.6609 z m 43.79985,5.35196 a 17.650249,17.650249 0 0 0 -19.6609,15.37933 17.650249,17.650249 0 0 0 15.37933,19.66089 17.650249,17.650249 0 0 0 19.6609,-15.37933 17.650249,17.650249 0 0 0 -15.37933,-19.66089 z m 43.79985,5.35195 a 17.650249,17.650249 0 0 0 -19.6609,15.37933 17.650249,17.650249 0 0 0 15.37933,19.6609 17.650249,17.650249 0 0 0 19.6609,-15.37933 17.650249,17.650249 0 0 0 -15.37933,-19.6609 z m 43.79985,5.35196 a 17.650249,17.650249 0 0 0 -19.6609,15.37933 17.650249,17.650249 0 0 0 15.37934,19.66003 17.650249,17.650249 0 0 0 19.66089,-15.37847 17.650249,17.650249 0 0 0 -15.37933,-19.66089 z m 43.79985,5.35196 a 17.650249,17.650249 0 0 0 -19.6609,15.37932 17.650249,17.650249 0 0 0 15.37934,19.66004 17.650249,17.650249 0 0 0 19.66089,-15.37933 17.650249,17.650249 0 0 0 -15.37933,-19.66003 z m 43.79985,5.35195 a 17.650249,17.650249 0 0 0 -19.66089,15.37847 17.650249,17.650249 0 0 0 15.37932,19.66089 17.650249,17.650249 0 0 0 19.6609,-15.37933 17.650249,17.650249 0 0 0 -15.37933,-19.66003 z m -355.75076,0.98507 a 17.650249,17.650249 0 0 0 -19.66088,15.37933 17.650249,17.650249 0 0 0 15.37933,19.66003 17.650249,17.650249 0 0 0 19.66087,-15.37933 17.650249,17.650249 0 0 0 -15.37932,-19.66003 z m 43.79984,5.35195 a 17.650249,17.650249 0 0 0 -19.66087,15.37847 17.650249,17.650249 0 0 0 15.37932,19.6609 17.650249,17.650249 0 0 0 19.66088,-15.37933 17.650249,17.650249 0 0 0 -15.37933,-19.66004 z m 43.79986,5.3511 a 17.650249,17.650249 0 0 0 -19.66089,15.37933 17.650249,17.650249 0 0 0 15.37933,19.66089 17.650249,17.650249 0 0 0 19.66089,-15.37932 17.650249,17.650249 0 0 0 -15.37933,-19.6609 z m 43.79985,5.35195 a 17.650249,17.650249 0 0 0 -19.66089,15.37934 17.650249,17.650249 0 0 0 15.37933,19.66089 17.650249,17.650249 0 0 0 19.66089,-15.37933 17.650249,17.650249 0 0 0 -15.37933,-19.6609 z m 43.79985,5.35196 a 17.650249,17.650249 0 0 0 -19.66089,15.37933 17.650249,17.650249 0 0 0 15.37933,19.66089 17.650249,17.650249 0 0 0 19.66089,-15.37932 17.650249,17.650249 0 0 0 -15.37933,-19.6609 z m 43.79985,5.35195 a 17.650249,17.650249 0 0 0 -19.66089,15.37934 17.650249,17.650249 0 0 0 15.37933,19.66089 17.650249,17.650249 0 0 0 19.66089,-15.37933 17.650249,17.650249 0 0 0 -15.37933,-19.6609 z m 43.79986,5.35196 a 17.650249,17.650249 0 0 0 -19.6609,15.37933 17.650249,17.650249 0 0 0 15.37933,19.6609 17.650249,17.650249 0 0 0 19.66089,-15.37934 17.650249,17.650249 0 0 0 -15.37932,-19.66089 z m 43.79984,5.35196 a 17.650249,17.650249 0 0 0 -19.66089,15.37932 17.650249,17.650249 0 0 0 15.37933,19.66004 17.650249,17.650249 0 0 0 19.66089,-15.37847 17.650249,17.650249 0 0 0 -15.37933,-19.66089 z m -311.9509,6.33702 a 17.650249,17.650249 0 0 0 -19.66088,15.37933 17.650249,17.650249 0 0 0 15.37932,19.66003 17.650249,17.650249 0 0 0 19.66088,-15.37933 17.650249,17.650249 0 0 0 -15.37932,-19.66003 z m 43.79984,5.35196 a 17.650249,17.650249 0 0 0 -19.66088,15.37846 17.650249,17.650249 0 0 0 15.37933,19.66087 17.650249,17.650249 0 0 0 19.66087,-15.3793 17.650249,17.650249 0 0 0 -15.37932,-19.66003 z m 43.79985,5.35109 a 17.650249,17.650249 0 0 0 -19.66089,15.37933 17.650249,17.650249 0 0 0 15.37933,19.66091 17.650249,17.650249 0 0 0 19.6609,-15.37935 17.650249,17.650249 0 0 0 -15.37934,-19.66089 z m 43.79986,5.35195 a 17.650249,17.650249 0 0 0 -19.6609,15.37934 17.650249,17.650249 0 0 0 15.37933,19.66085 17.650249,17.650249 0 0 0 19.6609,-15.37929 17.650249,17.650249 0 0 0 -15.37933,-19.6609 z m 43.79985,5.35196 a 17.650249,17.650249 0 0 0 -19.6609,15.37933 17.650249,17.650249 0 0 0 15.37933,19.6609 17.650249,17.650249 0 0 0 19.6609,-15.3793 17.650249,17.650249 0 0 0 -15.37933,-19.66093 z m 43.79985,5.35195 a 17.650249,17.650249 0 0 0 -19.6609,15.37938 17.650249,17.650249 0 0 0 15.37934,19.6609 17.650249,17.650249 0 0 0 19.66089,-15.3794 17.650249,17.650249 0 0 0 -15.37933,-19.66088 z m 43.79985,5.35196 a 17.650249,17.650249 0 0 0 -19.6609,15.37932 17.650249,17.650249 0 0 0 15.37933,19.6609 17.650249,17.650249 0 0 0 19.6609,-15.3793 17.650249,17.650249 0 0 0 -15.37933,-19.66092 z m -224.35121,17.04092 a 17.650249,17.650249 0 0 0 -19.66088,15.3785 17.650249,17.650249 0 0 0 15.37932,19.6609 17.650249,17.650249 0 0 0 19.66088,-15.3793 17.650249,17.650249 0 0 0 -15.37932,-19.6601 z m 87.5997,10.7031 a 17.650249,17.650249 0 0 0 -19.66003,15.3793 17.650249,17.650249 0 0 0 15.37847,19.6609 17.650249,17.650249 0 0 0 19.66089,-15.3793 17.650249,17.650249 0 0 0 -15.37933,-19.6609 z" />
  </g>
</svg>
