<?xml version="1.0" encoding="UTF-8" standalone="no"?>
<!-- Created with Inkscape (http://www.inkscape.org/) -->

<svg
   width="1200"
   height="1200"
   viewBox="0 0 1200 1200"
   version="1.1"
   id="svg5"
   xml:space="preserve"
   inkscape:version="1.2.2 (1:1.2.2+202212051552+b0a8486541)"
   sodipodi:docname="freq-gen.svg"
   xmlns:inkscape="http://www.inkscape.org/namespaces/inkscape"
   xmlns:sodipodi="http://sodipodi.sourceforge.net/DTD/sodipodi-0.dtd"
   xmlns="http://www.w3.org/2000/svg"
   xmlns:svg="http://www.w3.org/2000/svg"><sodipodi:namedview
     id="namedview7"
     pagecolor="#ffffff"
     bordercolor="#000000"
     borderopacity="0.25"
     inkscape:showpageshadow="2"
     inkscape:pageopacity="0.0"
     inkscape:pagecheckerboard="0"
     inkscape:deskcolor="#d1d1d1"
     inkscape:document-units="px"
     showgrid="false"
     showguides="true"
     inkscape:zoom="0.2973261"
     inkscape:cx="798.78625"
     inkscape:cy="781.96969"
     inkscape:window-width="1920"
     inkscape:window-height="1029"
     inkscape:window-x="0"
     inkscape:window-y="0"
     inkscape:window-maximized="1"
     inkscape:current-layer="layer1" /><defs
     id="defs2"><rect
       x="498.56143"
       y="-381.76747"
       width="357.35887"
       height="251.65691"
       id="rect18751" /><rect
       x="-788.28979"
       y="487.66901"
       width="1047.2668"
       height="844.36262"
       id="rect5341" /><clipPath
       id="ZPsepLvTvXRR"><path
         fill="none"
         stroke="none"
         d=" M 0 0 L 986 0 L 986 705 L 0 705 L 0 0 Z"
         id="path10538" /></clipPath><rect
       x="-788.28979"
       y="487.66901"
       width="98.483204"
       height="89.141"
       id="rect6331" /><clipPath
       clipPathUnits="userSpaceOnUse"
       id="clipPath9686"><circle
         style="fill:none;stroke:#000000;stroke-width:35;stroke-linecap:round;stroke-linejoin:round;stroke-dasharray:none;paint-order:stroke fill markers"
         id="circle9688"
         cx="600"
         cy="600"
         r="538.21185" /></clipPath><rect
       x="-788.28979"
       y="487.66901"
       width="98.483204"
       height="89.141"
       id="rect11146" /><rect
       x="498.56143"
       y="-381.76747"
       width="357.35887"
       height="251.65691"
       id="rect19485" /></defs><g
     inkscape:label="Capa 1"
     inkscape:groupmode="layer"
     id="layer1"><path
       id="rect17157"
       style="fill:#000000;fill-opacity:1;stroke:none;stroke-width:5;stroke-linecap:round;stroke-linejoin:round;stroke-dasharray:none;stroke-opacity:1;paint-order:stroke fill markers"
       d="M 27.576172 400 L 27.576172 800 L 100 800 L 100 400 L 27.576172 400 z M 63.789062 426.12695 C 71.525901 426.12695 77.753906 432.35494 77.753906 440.0918 L 77.753906 479.75195 C 77.753906 487.4888 71.525901 493.7168 63.789062 493.7168 C 56.052226 493.7168 49.822266 487.4888 49.822266 479.75195 L 49.822266 440.0918 C 49.822266 432.35494 56.052226 426.12695 63.789062 426.12695 z M 63.789062 697.32812 C 71.525901 697.32812 77.753906 703.55809 77.753906 711.29492 L 77.753906 750.95312 C 77.753906 758.68998 71.525901 764.91992 63.789062 764.91992 C 56.052226 764.91992 49.822266 758.68998 49.822266 750.95312 L 49.822266 711.29492 C 49.822266 703.55809 56.052226 697.32812 63.789062 697.32812 z " /><path
       id="rect17153"
       style="fill:#000000;fill-opacity:1;stroke:none;stroke-width:5;stroke-linecap:round;stroke-linejoin:round;stroke-dasharray:none;stroke-opacity:1;paint-order:stroke fill markers"
       d="M 100 400 L 100 800 L 1100 800 L 1100 400 L 100 400 z M 175.11719 467.82812 L 484.5957 467.82812 C 492.33255 467.82812 498.56055 474.05613 498.56055 481.79297 L 498.56055 518.9707 C 498.56055 526.70755 492.33255 532.9375 484.5957 532.9375 L 175.11719 532.9375 C 167.38035 532.9375 161.15039 526.70755 161.15039 518.9707 L 161.15039 481.79297 C 161.15039 474.05613 167.38035 467.82813 175.11719 467.82812 z M 899.3418 500 A 100 100 0 0 1 999.3418 600 A 100 100 0 0 1 899.3418 700 A 100 100 0 0 1 799.3418 600 A 100 100 0 0 1 899.3418 500 z M 179.33398 624.7207 A 10 10 0 0 1 189.33398 634.7207 A 10 10 0 0 1 179.33398 644.7207 A 10 10 0 0 1 169.33398 634.7207 A 10 10 0 0 1 179.33398 624.7207 z " /><path
       id="rect17213"
       style="fill:#000000;fill-opacity:1;stroke:none;stroke-width:5;stroke-linecap:round;stroke-linejoin:round;stroke-dasharray:none;stroke-opacity:1;paint-order:stroke fill markers"
       d="M 1100 400 L 1100 800 L 1172.4238 800 L 1172.4238 400 L 1100 400 z M 1136.2109 426.12695 C 1143.9478 426.12695 1150.1777 432.35494 1150.1777 440.0918 L 1150.1777 479.75195 C 1150.1777 487.4888 1143.9478 493.7168 1136.2109 493.7168 C 1128.474 493.7168 1122.2461 487.4888 1122.2461 479.75195 L 1122.2461 440.0918 C 1122.2461 432.35494 1128.474 426.12695 1136.2109 426.12695 z M 1136.2109 697.32812 C 1143.9478 697.32812 1150.1777 703.55809 1150.1777 711.29492 L 1150.1777 750.95312 C 1150.1777 758.68998 1143.9478 764.91992 1136.2109 764.91992 C 1128.474 764.91992 1122.2461 758.68998 1122.2461 750.95312 L 1122.2461 711.29492 C 1122.2461 703.55809 1128.474 697.32812 1136.2109 697.32812 z " /><rect
       style="fill:none;fill-opacity:1;stroke:#000000;stroke-width:5;stroke-linecap:round;stroke-linejoin:round;stroke-dasharray:none;stroke-opacity:1;paint-order:stroke fill markers"
       id="rect18003"
       width="25"
       height="45"
       x="177.77277"
       y="477.88202"
       ry="0" /><rect
       style="fill:none;fill-opacity:1;stroke:#000000;stroke-width:5;stroke-linecap:round;stroke-linejoin:round;stroke-dasharray:none;stroke-opacity:1;paint-order:stroke fill markers"
       id="rect18005"
       width="25"
       height="45"
       x="202.77277"
       y="477.88202"
       ry="0" /><rect
       style="fill:none;fill-opacity:1;stroke:#000000;stroke-width:5;stroke-linecap:round;stroke-linejoin:round;stroke-dasharray:none;stroke-opacity:1;paint-order:stroke fill markers"
       id="rect18007"
       width="25"
       height="45"
       x="227.77277"
       y="477.88202"
       ry="0" /><rect
       style="fill:none;fill-opacity:1;stroke:#000000;stroke-width:5;stroke-linecap:round;stroke-linejoin:round;stroke-dasharray:none;stroke-opacity:1;paint-order:stroke fill markers"
       id="rect18009"
       width="25"
       height="45"
       x="252.77277"
       y="477.88202"
       ry="0" /><rect
       style="fill:none;fill-opacity:1;stroke:#000000;stroke-width:5;stroke-linecap:round;stroke-linejoin:round;stroke-dasharray:none;stroke-opacity:1;paint-order:stroke fill markers"
       id="rect18011"
       width="25"
       height="45"
       x="277.77277"
       y="477.88202"
       ry="0" /><rect
       style="fill:none;fill-opacity:1;stroke:#000000;stroke-width:5;stroke-linecap:round;stroke-linejoin:round;stroke-dasharray:none;stroke-opacity:1;paint-order:stroke fill markers"
       id="rect18013"
       width="25"
       height="45"
       x="302.77277"
       y="477.88202"
       ry="0" /><rect
       style="fill:none;fill-opacity:1;stroke:#000000;stroke-width:5;stroke-linecap:round;stroke-linejoin:round;stroke-dasharray:none;stroke-opacity:1;paint-order:stroke fill markers"
       id="rect18015"
       width="25"
       height="45"
       x="327.77277"
       y="477.88202"
       ry="0" /><rect
       style="fill:none;fill-opacity:1;stroke:#000000;stroke-width:5;stroke-linecap:round;stroke-linejoin:round;stroke-dasharray:none;stroke-opacity:1;paint-order:stroke fill markers"
       id="rect18017"
       width="25"
       height="45"
       x="352.77277"
       y="477.88202"
       ry="0" /><rect
       style="fill:none;fill-opacity:1;stroke:#000000;stroke-width:5;stroke-linecap:round;stroke-linejoin:round;stroke-dasharray:none;stroke-opacity:1;paint-order:stroke fill markers"
       id="rect18019"
       width="25"
       height="45"
       x="377.77277"
       y="477.88202"
       ry="0" /><rect
       style="fill:none;fill-opacity:1;stroke:#000000;stroke-width:5;stroke-linecap:round;stroke-linejoin:round;stroke-dasharray:none;stroke-opacity:1;paint-order:stroke fill markers"
       id="rect18021"
       width="25"
       height="45"
       x="402.77277"
       y="477.88202"
       ry="0" /><path
       style="fill:none;fill-opacity:1;stroke:#000000;stroke-width:5;stroke-linecap:round;stroke-linejoin:round;stroke-dasharray:none;stroke-opacity:1;paint-order:stroke fill markers"
       d="m 796.841,605.19539 c 0,0 3.92982,23.27152 13.65439,23.27152 9.72456,0 25.57598,-69.84553 35.83497,-69.31761 10.25899,0.52792 9.02027,91.76282 24.47364,92.07125 15.45336,0.30844 14.89707,-117.38299 31.34599,-117.11254 16.44891,0.27044 13.78662,117.70841 28.48308,117.79743 14.69646,0.089 14.9046,-76.57266 25.97655,-76.32176 11.07196,0.25089 12.71984,52.33167 23.99499,52.88323 11.27514,0.55156 16.23639,-23.27152 16.23639,-23.27152"
       id="path20278"
       sodipodi:nodetypes="czzzzzzzc" /></g></svg>
