<?xml version="1.0" encoding="UTF-8" standalone="no"?>
<!-- Created with Inkscape (http://www.inkscape.org/) -->

<svg
   width="1200"
   height="1200"
   viewBox="0 0 600 600"
   version="1.1"
   id="svg8"
   inkscape:version="1.1.2 (1:1.1+202202050950+0a00cf5339)"
   sodipodi:docname="global-com.svg"
   inkscape:export-filename="D:\workstation\Empresas\goleta\clientes\designhill\sruvcon\survcon-geomatics-inc.png"
   inkscape:export-xdpi="299"
   inkscape:export-ydpi="299"
   xmlns:inkscape="http://www.inkscape.org/namespaces/inkscape"
   xmlns:sodipodi="http://sodipodi.sourceforge.net/DTD/sodipodi-0.dtd"
   xmlns:xlink="http://www.w3.org/1999/xlink"
   xmlns="http://www.w3.org/2000/svg"
   xmlns:svg="http://www.w3.org/2000/svg"
   xmlns:rdf="http://www.w3.org/1999/02/22-rdf-syntax-ns#"
   xmlns:cc="http://creativecommons.org/ns#"
   xmlns:dc="http://purl.org/dc/elements/1.1/">
  <title
     id="title2803">SurvCon Geomatics Inc</title>
  <defs
     id="defs2">
    <color-profile
       id="color-profile4174"
       xlink:href="C:\Windows\system32\spool\drivers\color\sRGB_v4_ICC_preference_displayclass.icc"
       name="sRGB-v4-ICC-preference-perceptual-intent-beta-display-class" />
  </defs>
  <sodipodi:namedview
     id="base"
     pagecolor="#ffffff"
     bordercolor="#666666"
     borderopacity="1.0"
     inkscape:pageopacity="0.0"
     inkscape:pageshadow="2"
     inkscape:zoom="0.49497474"
     inkscape:cx="629.32504"
     inkscape:cy="594.97986"
     inkscape:document-units="px"
     inkscape:current-layer="layer1"
     showgrid="false"
     units="px"
     inkscape:window-width="1600"
     inkscape:window-height="840"
     inkscape:window-x="0"
     inkscape:window-y="0"
     inkscape:window-maximized="1"
     showguides="true"
     inkscape:guide-bbox="true"
     inkscape:snap-bbox="true"
     inkscape:bbox-nodes="true"
     inkscape:bbox-paths="true"
     inkscape:snap-bbox-midpoints="true"
     inkscape:snap-bbox-edge-midpoints="true"
     inkscape:snap-global="true"
     inkscape:pagecheckerboard="0" />
  <metadata
     id="metadata5">
    <rdf:RDF>
      <cc:Work
         rdf:about="">
        <dc:format>image/svg+xml</dc:format>
        <dc:type
           rdf:resource="http://purl.org/dc/dcmitype/StillImage" />
        <dc:title>SurvCon Geomatics Inc</dc:title>
        <cc:license
           rdf:resource="" />
        <dc:date>25/02/21</dc:date>
        <dc:rights>
          <cc:Agent>
            <dc:title>-</dc:title>
          </cc:Agent>
        </dc:rights>
        <dc:creator>
          <cc:Agent>
            <dc:title>La Goleta</dc:title>
          </cc:Agent>
        </dc:creator>
        <dc:publisher>
          <cc:Agent>
            <dc:title>David R. Digan</dc:title>
          </cc:Agent>
        </dc:publisher>
        <dc:source>Bahía Blanca</dc:source>
        <dc:language>English</dc:language>
      </cc:Work>
    </rdf:RDF>
  </metadata>
  <g
     inkscape:groupmode="layer"
     id="layer2"
     inkscape:label="fondo" />
  <g
     inkscape:label="Capa 1"
     inkscape:groupmode="layer"
     id="layer1"
     transform="translate(0,20.500017)">
    <path
       style="opacity:1;fill:#333333;fill-opacity:1;fill-rule:evenodd;stroke:none;stroke-width:1.01015;stroke-linecap:square;stroke-linejoin:miter;stroke-miterlimit:4;stroke-dasharray:none;stroke-dashoffset:0;stroke-opacity:1;paint-order:markers stroke fill"
       d=""
       id="path1965"
       inkscape:connector-curvature="0"
       transform="matrix(0.5,0,0,0.5,0,-20.500017)" />
    <path
       style="opacity:1;fill:#333333;fill-opacity:1;fill-rule:evenodd;stroke:none;stroke-width:1.01015;stroke-linecap:square;stroke-linejoin:miter;stroke-miterlimit:4;stroke-dasharray:none;stroke-dashoffset:0;stroke-opacity:1;paint-order:markers stroke fill"
       d=""
       id="path1971"
       inkscape:connector-curvature="0"
       transform="matrix(0.5,0,0,0.5,0,-20.500017)" />
    <path
       style="opacity:1;fill:#333333;fill-opacity:1;fill-rule:evenodd;stroke:none;stroke-width:1.01015;stroke-linecap:square;stroke-linejoin:miter;stroke-miterlimit:4;stroke-dasharray:none;stroke-dashoffset:0;stroke-opacity:1;paint-order:markers stroke fill"
       d=""
       id="path1975"
       inkscape:connector-curvature="0"
       transform="matrix(0.5,0,0,0.5,0,-20.500017)" />
    <path
       style="opacity:1;fill:#333333;fill-opacity:1;fill-rule:evenodd;stroke:none;stroke-width:1.01015;stroke-linecap:square;stroke-linejoin:miter;stroke-miterlimit:4;stroke-dasharray:none;stroke-dashoffset:0;stroke-opacity:1;paint-order:markers stroke fill"
       d=""
       id="path1977"
       inkscape:connector-curvature="0"
       transform="matrix(0.5,0,0,0.5,0,-20.500017)" />
    <g
       transform="matrix(0,1.7066223,-1.7066223,0,754.81148,-227.3417)"
       id="g2653">
      <g
         id="g2490"
         transform="rotate(180,366.66833,312.21485)">
        <path
           id="path2352"
           style="opacity:1;fill:#010101;fill-opacity:1;fill-rule:evenodd;stroke:none;stroke-width:6.06092;stroke-linecap:square;stroke-linejoin:miter;stroke-miterlimit:4;stroke-dasharray:none;stroke-dashoffset:0;stroke-opacity:1;paint-order:markers stroke fill"
           d="m 607.12891,385.11914 c -3.30244,-0.0248 -9.13529,0.22245 -14.42579,0.52539 a 20.892856,20.892856 0 0 1 2.04688,3.06055 c 5.89198,-1.13159 11.42502,-2.02735 13.23633,-2.02735 0.46751,0 1.26176,-0.15799 1.76562,-0.34961 1.44738,-0.55029 1.07589,-0.999 -0.95898,-1.1582 -0.38455,-0.0301 -0.953,-0.0455 -1.66406,-0.0508 z m 19.20117,6.97461 c -4.54613,-0.0193 -8.68294,0.06 -11.09766,0.26172 -5.39116,0.45031 -10.43959,1.88437 -17.23633,4.82226 a 20.892856,20.892856 0 0 1 0.46485,2.3418 c 1.22409,0.10823 2.66392,0.21743 4.67968,0.35352 29.59461,1.99811 62.22083,11.52384 89.23438,26.04883 a 10,10 0 0 1 6.32812,-2.66797 10,10 0 0 1 0.0391,0.004 c -0.0615,-2.28879 -0.28977,-4.68738 -0.6543,-5.53906 -1.23089,-2.8758 -9.2075,-11.17052 -14.19531,-14.76172 -2.41241,-1.7369 -3.63897,-2.32401 -7.25977,-3.47461 -9.25417,-2.9406 -20.09114,-5.29727 -30.25,-6.57617 -3.76324,-0.47381 -12.47585,-0.7804 -20.05273,-0.8125 z m -48.66211,0.93555 a 7,7 0 0 0 -7,7 7,7 0 0 0 7,7 7,7 0 0 0 7,-7 7,7 0 0 0 -7,-7 z m -27.71289,1.8457 c -1.80537,-0.0308 -3.5513,0.1 -5.20313,0.39258 -7.95033,1.4081 -27.56446,10.1968 -40.86914,18.3125 -5.20451,3.1746 -11.29996,7.2438 -11.61523,7.7539 -0.5784,0.9359 0.40782,0.59361 5.14453,-1.77929 15.32287,-7.6761 31.1641,-13.04201 49.08594,-16.62891 4.56853,-0.9144 7.13936,-1.64729 10.06445,-2.86719 0.10295,-0.0429 0.12389,-0.051 0.22656,-0.0937 a 20.892856,20.892856 0 0 1 0.79492,-4.00195 c -2.59183,-0.63094 -5.16901,-1.04589 -7.6289,-1.08789 z m 47.44336,11.01367 a 20.892856,20.892856 0 0 1 -4.32617,7.97266 c 6.96831,10.53557 14.59582,24.60945 21.85546,40.61328 2.46962,5.44425 5.12856,11.70138 6.95704,16.16211 a 10,10 0 0 1 6.29296,4.36719 c 0.96049,-0.26648 1.44582,-0.36319 2.94336,-0.8125 27.66108,-8.29921 49.91414,-20.93568 60.71289,-34.14649 a 10,10 0 0 1 -3.13086,-6.79101 10,10 0 0 1 0.47461,-1.77149 c -0.20641,-0.11051 -0.17334,-0.11256 -0.38476,-0.22461 -28.344,-15.02249 -60.66815,-23.9428 -91.39453,-25.36914 z m -39.06641,1.96875 c -17.97395,3.93981 -54.91768,29.42715 -74.05664,51.51953 l -2.66992,3.08203 a 10,10 0 0 1 0.95117,4.18164 10,10 0 0 1 -0.19922,0.74219 l 2.91406,1.94531 c 3.35113,2.2378 8.47208,4.9501 11.38086,6.02735 1.71594,0.63548 2.7469,1.00058 3.90235,1.41211 a 10,10 0 0 1 8.42969,-4.76953 10,10 0 0 1 1.17578,0.11523 c 0.72828,-1.1644 1.3105,-2.06308 2.33007,-3.70117 13.75832,-22.10468 32.94922,-44.53814 47.89844,-55.99414 0.32252,-0.24715 0.28095,-0.24012 0.5918,-0.48047 a 20.892856,20.892856 0 0 1 -2.64844,-4.08008 z m 144.41602,3.0586 c -0.77737,0 -0.14579,1.14219 4.49414,8.12109 2.66387,4.0068 6.77603,11.14869 9.13867,15.87109 l 1.36328,2.72266 a 10,10 0 0 1 1.67383,-0.44922 10,10 0 0 1 10,10 10,10 0 0 1 -0.71289,2.66016 c 19.25041,15.51154 36.65438,35.18652 48.94531,55.52539 1.53522,2.54046 2.24589,3.50571 3.08789,4.72656 a 10,10 0 0 1 1.53711,-0.41211 10,10 0 0 1 0.77344,0.0762 c 0.11281,-0.66309 0.21223,-1.07844 0.35156,-2.11914 0.35891,-2.68081 -0.28176,-8.49361 -1.30664,-11.86914 -2.0824,-6.85858 -13.03322,-24.58122 -22.57227,-36.52734 -12.50804,-15.66426 -28.07746,-29.95803 -44.74804,-41.08203 -5.03337,-3.3586 -11.48358,-7.24414 -12.02539,-7.24414 z m -176.1836,3.67773 c -0.34886,0.0178 -1.37085,0.37675 -4.33789,1.39844 -13.82845,4.7619 -27.05216,11.27927 -39.41406,19.42187 -8.21118,5.4087 -8.98744,6.08904 -9.79492,8.61524 -0.85545,2.6763 -1.12471,6.96756 -0.59375,9.44336 0.18914,0.88194 0.64518,2.13245 1.08984,3.26172 a 10,10 0 0 1 3.29297,0.89453 c 0.88018,-1.04195 3.3748,-3.74047 5.58594,-6.04102 12.92211,-13.4444 24.49865,-23.20856 38.72265,-32.66016 3.09375,-2.0558 5.625,-3.886 5.625,-4.0664 0,-0.1671 0.0335,-0.27825 -0.17578,-0.26758 z m 39.58985,2.38672 c -0.5155,0.41519 -0.67812,0.51327 -1.24219,0.96875 -15.96438,12.8909 -32.33933,31.79372 -44.80078,51.7168 -1.72152,2.75231 -2.56636,4.33888 -3.45703,5.99218 a 10,10 0 0 1 2.29882,6.02344 c 2.48785,0.4621 5.68468,0.9892 9.30274,1.49609 20.52449,2.87556 56.37324,1.26824 79.69922,-3.57421 0.84553,-0.17554 1.4511,-0.34154 2.17187,-0.51563 a 10,10 0 0 1 2.20899,-4.91211 c -0.6811,-2.20421 -1.28063,-4.18253 -2.84571,-8.94922 -5.70923,-17.38844 -13.99536,-34.00135 -22.98242,-46.45898 a 20.892856,20.892856 0 0 1 -8.83984,2.1543 20.892856,20.892856 0 0 1 -11.51367,-3.94141 z m 138.75586,23.72656 a 10,10 0 0 1 -6.20704,2.54688 10,10 0 0 1 -0.96874,-0.25977 c -10.67526,13.9952 -33.07939,27.32952 -60.9961,36.10352 -3.62921,1.14062 -5.78836,1.8503 -7.24219,2.33789 a 10,10 0 0 1 -1.35547,4.25586 c 0.4051,1.23123 0.74474,2.29881 1.67579,4.77539 1.67093,4.44467 5.25655,14.67254 7.96679,22.72851 l 2.86328,8.51172 a 10,10 0 0 1 2.2461,-0.5957 10,10 0 0 1 9.33398,6.49023 l 0.50391,-0.0117 c 27.83355,-0.70149 67.1219,-0.14808 78.81641,1.00391 a 10,10 0 0 1 3.57617,-4.34766 c -0.23714,-1.70386 -0.30828,-2.35906 -0.6836,-4.88086 -3.39052,-22.78124 -8.46759,-42.70383 -15.65039,-62.35156 a 10,10 0 0 1 -9.37109,-9.83203 10,10 0 0 1 0.7832,-2.92383 c -0.64207,-0.4329 -1.09137,-0.7463 -1.91015,-1.29297 z m 21.17773,15.66602 c -0.22,0 0.26313,1.91087 1.07227,4.24609 6.08533,17.56263 11.20879,40.14114 14.24414,62.00977 a 10,10 0 0 1 8.91601,8.16992 c 0.33244,0.0457 0.45671,0.0649 0.81836,0.11523 2.97599,0.41386 7.77118,1.25815 11.42774,1.96094 a 10,10 0 0 1 8.28125,-4.62109 10,10 0 0 1 3.9414,0.82226 c 0.42946,-0.61753 0.87133,-1.3218 1.26758,-1.95312 a 10,10 0 0 1 -3.78125,-7.44141 10,10 0 0 1 2.49219,-6.15234 c -9.17497,-16.01437 -19.2654,-29.29596 -32.71094,-42.80664 -7.23654,-7.27161 -15.11366,-14.34961 -15.96875,-14.34961 z m -266.51367,11.10937 c -5.51166,-0.19216 -12.08618,2.95681 -17.47656,8.43555 -4.80622,4.88501 -8.08992,9.78724 -12.6875,18.94336 -6.18941,12.32627 -8.74543,19.78779 -10.40821,30.38672 -0.88816,5.66124 -0.88647,19.08655 0.004,25.17968 0.37062,2.53728 1.08798,6.11218 1.82031,9.44922 a 20.892856,20.892856 0 0 1 1.90821,-0.3789 20.892856,20.892856 0 0 1 2.31835,0.46093 c 1.11723,-4.96242 2.51846,-10.75899 3.66407,-14.73632 7.26451,-25.22108 19.6843,-50.38845 35.49414,-71.92188 0.2653,-0.36135 0.32591,-0.48893 0.54687,-0.79883 a 10,10 0 0 1 -1.83398,-4.49218 c -0.78239,-0.16939 -1.59302,-0.36324 -2.26172,-0.44336 -0.35732,-0.0428 -0.72045,-0.0712 -1.08789,-0.084 z m 16.15234,8.3086 a 10,10 0 0 1 -3.16992,0.8496 10,10 0 0 1 -1.79297,-0.48046 c -4.59589,5.30811 -13.95737,20.36054 -20.67383,33.73632 -8.51795,16.96344 -14.93743,34.95617 -18.53711,51.74024 a 20.892856,20.892856 0 0 1 8.67774,8.05078 c 5.74242,-2.54975 15.8206,-6.55653 22.91601,-9.0918 l 5.3418,-1.9082 a 10,10 0 0 1 9.74024,-9.17773 l 1.51367,-5.26758 c 2.5268,-8.79033 6.92406,-21.86518 9.87695,-29.73633 a 10,10 0 0 1 -3.84766,-7.50781 10,10 0 0 1 4.54493,-8.20508 c -0.65394,-1.40661 -1.32048,-2.82764 -2.29493,-4.8125 -3.34266,-6.80876 -8.84276,-14.74859 -12.29492,-18.18945 z m 14.28321,4.97656 c -0.11775,-0.006 -0.19585,0.008 -0.22852,0.041 -0.23014,0.23014 1.3431,3.76177 3.49414,7.84961 l 3.91016,7.4336 2.58398,-4.9668 c 0.82072,-1.5779 1.03296,-2.1339 1.51758,-3.16406 a 10,10 0 0 1 -1.73438,-3.83985 c -3.27301,-1.4326 -8.35409,-3.29678 -9.54296,-3.35351 z m 121.89453,5.41797 c -1.74077,0.19532 -3.49322,0.37616 -6.13477,0.87304 -16.30504,3.06702 -22.88894,3.73384 -42.71484,4.33399 -19.51865,0.59084 -33.31799,-0.32414 -46.72657,-3.07813 a 10,10 0 0 1 -7.34374,3.6836 10,10 0 0 1 -1.48047,-0.39649 l -2.38282,4.93946 c -0.83396,1.72896 -1.17557,2.72016 -1.74023,4.04296 a 10,10 0 0 1 2.39062,6.41407 10,10 0 0 1 -2.625,6.28515 c 1.76481,6.22885 4.05713,16.03044 5.34375,23.38282 0.37191,2.12526 0.76868,3.81025 1.1543,5.42578 a 10,10 0 0 1 5.33399,3.77539 c 2.89985,-0.56327 8.4006,-1.64412 17.77148,-3.50781 23.46394,-4.66657 56.19103,-9.56549 75.41211,-11.28907 4.44212,-0.39833 6.20451,-0.65635 8.89258,-0.9707 a 10,10 0 0 1 5.70898,-6.85547 c -2.55393,-15.41352 -4.9161,-28.02344 -6.375,-33.75586 a 10,10 0 0 1 -4.48437,-3.30273 z m 14.42578,14.71875 c -0.36468,-0.0399 -0.0881,1.85433 1.27344,10.02734 0.80898,4.8561 1.75015,10.93237 2.09179,13.50195 l 0.6211,4.67188 h 1.9082 c 1.049,0 2.26567,-0.13803 2.70508,-0.30664 0.43941,-0.16862 0.79883,-0.55285 0.79883,-0.85352 0,-0.93455 -8.64226,-26.34014 -9.13282,-26.84765 -0.10864,-0.1124 -0.19809,-0.18598 -0.26562,-0.19336 z m -129.08399,15.69922 a 10,10 0 0 1 -1.42578,0.38086 c -1.68556,3.88705 -5.85177,15.66817 -8.11328,23.2207 -1.25415,4.18839 -2.60855,9.22778 -3.18164,11.55078 a 10,10 0 0 1 1.82227,1.89648 c 0.5668,-0.14309 0.98492,-0.23377 1.76757,-0.45312 2.09985,-0.58854 5.92435,-1.61437 8.95508,-2.41211 a 10,10 0 0 1 5.68164,-8.05078 c -1.05649,-6.8164 -2.42943,-14.16986 -3.96289,-20.24805 -0.77043,-3.05378 -1.23409,-4.84201 -1.54297,-5.88476 z m 294.4668,5.17773 a 10,10 0 0 1 -2.79101,4.91406 v 0.002 c 1.27156,2.85178 2.95455,6.87337 3.74023,8.93554 0.78568,2.06217 1.70917,3.84121 2.05078,3.95508 0.83537,0.27846 0.7889,-0.46798 -0.39258,-6.54297 -0.7561,-3.88776 -1.70367,-7.83724 -2.60742,-11.26367 z m -8.83008,7.73828 a 10,10 0 0 1 -0.55273,0.14649 c -0.35697,0.39411 -1.11063,1.40918 -2.20508,3.0957 l -0.50977,0.78516 a 10,10 0 0 1 1.14258,3.80078 l 1.28516,0.43164 c 2.33619,0.78505 4.34908,1.42773 4.47461,1.42773 0.12553,0 0.23137,-0.17052 0.23437,-0.37891 0.008,-0.62589 -3.3464,-8.64707 -3.86914,-9.30859 z m -94.42187,3.96094 c -6.07046,-0.0223 -12.02688,0.0316 -17.4375,0.17578 -9.95264,0.26525 -15.09833,0.47054 -19.00196,0.70508 a 10,10 0 0 1 -5.73632,5.84179 c 3.58349,12.32565 6.81418,24.12263 9.6582,35.56641 1.46503,5.89499 2.06317,8.00635 2.83789,10.89063 a 10,10 0 0 1 7.09961,4.19336 c 7.89371,-2.21634 22.2566,-6.86999 30.70898,-10.1211 12.40344,-4.77085 26.17424,-11.18184 35.99414,-16.68359 a 10,10 0 0 1 -0.30859,-1.15235 10,10 0 0 1 5.76172,-8.86523 c -0.18974,-3.3935 -0.55536,-8.54408 -0.85938,-11.90039 l -0.0449,-0.49219 a 10,10 0 0 1 -5.94922,-6.51172 c -9.56561,-0.94595 -26.35005,-1.58626 -42.72265,-1.64648 z m 55.64062,3.08984 c -0.67373,0.0174 -0.78861,0.20184 -0.78711,0.56641 0.009,2.09217 1.50069,18.89522 1.69532,19.08984 0.48852,0.48853 12.41849,-8.59864 17.61914,-13.41992 1.31951,-1.22326 2.40039,-2.37926 2.40039,-2.57031 0,-0.39637 -9.47589,-2.21544 -16.79492,-3.22461 -2.22778,-0.30717 -3.45909,-0.45878 -4.13282,-0.44141 z M 617.75,536.99219 c -9.98475,0.9964 -29.38634,3.34353 -42.8125,5.26562 -18.11602,2.5935 -47.86563,8.03982 -58.43359,10.64258 a 10,10 0 0 1 -5.0293,7.49805 l 0.35156,4.27734 c 0.46828,5.70642 0.60126,17.02032 0.29492,25.14063 l -0.33398,8.8125 a 10,10 0 0 1 6.42383,6.74804 c 3.7116,0.35819 11.93161,0.83225 20.59765,1.13867 24.12867,0.85317 56.44711,-1.44796 81.43164,-5.79882 l 0.19922,-0.0352 a 10,10 0 0 1 6.25586,-6.64844 v -10.41797 c 0,-10.02946 -0.98187,-31.84528 -1.74804,-41.77734 a 10,10 0 0 1 -7.19727,-4.8457 z m 17.33203,0.34375 a 10,10 0 0 1 -3.51367,3.46094 c 0.0539,0.72351 0.005,0.71907 0.0781,1.53124 1.18985,13.15153 1.54083,21.9732 1.54883,38.8711 l 0.006,12.65625 a 10,10 0 0 1 4.88281,3.8125 L 638.88477,597.5 c 2.76407,-0.58265 6.46829,-1.42075 9.08984,-2.03516 a 10,10 0 0 1 4.34961,-7.21289 c -3.30733,-13.6154 -7.40724,-29.39214 -10.33399,-39.59179 -1.27792,-4.45356 -1.64977,-5.8571 -2.32421,-8.28907 a 10,10 0 0 1 -4.58399,-3.03515 z m 143.96875,6.375 a 10,10 0 0 1 -8.20312,4.54297 10,10 0 0 1 -3.64844,-0.97852 c -4.84537,4.63061 -9.84616,8.67033 -15.46289,12.52734 a 10,10 0 0 1 0.53906,3.09375 10,10 0 0 1 -6.91797,9.17383 l -0.17187,13.76172 c -0.442,35.30061 -3.4092,61.74748 -10.0293,89.39649 -0.58525,2.44432 -0.69817,3.44631 -0.87695,4.63086 a 10,10 0 0 1 1.5332,1.42187 c 1.07938,-0.47469 2.50522,-1.15036 4.05273,-1.93359 22.74172,-11.51011 41.40103,-26.14226 50.56055,-39.65039 2.56177,-3.778 3.0376,-4.87909 3.8711,-8.94727 1.07961,-5.26952 2.85508,-17.35673 3.54101,-24.11523 0.68997,-6.7984 0.21428,-21.68272 -0.94336,-29.54883 -1.42297,-9.66898 -2.82433,-16.06971 -5.39258,-24.6211 -1.22422,-4.07623 -1.30513,-4.1931 -3.69531,-5.40429 -1.34372,-0.68091 -5.22539,-2.16954 -8.62695,-3.30664 z m -280.59961,13.19922 c -2.77252,0.70667 -6.25511,1.63911 -10.22461,2.75781 a 10,10 0 0 1 -7.59179,9.19726 c -0.48779,2.40974 -0.79723,3.59724 -1.16016,5.64063 -0.85055,4.78878 -1.82209,11.37878 -2.50391,16.57031 a 10,10 0 0 1 7.01368,9.49414 10,10 0 0 1 -0.0469,0.17188 c 4.06463,0.85283 8.87215,1.78366 12.19531,2.31836 2.03465,0.32737 2.49168,0.37578 3.68946,0.55859 a 10,10 0 0 1 5.35156,-4.62305 c 0.14405,-2.17339 0.31864,-5.78927 0.41015,-9.17968 0.10335,-3.81964 0.15203,-8.36537 0.10743,-10.10157 -0.0446,-1.7362 -0.13899,-5.37159 -0.20899,-8.08007 -0.0797,-3.08587 -0.31752,-7.13017 -0.57031,-10.51172 a 10,10 0 0 1 -6.46094,-4.21289 z m -28.13867,8.28906 c -1.00773,0.33357 -1.01325,0.31674 -2.23438,0.72851 -7.90676,2.66628 -14.19478,5.04246 -20.88671,7.89258 -1.27197,0.54174 -2.9077,1.33619 -4.46094,2.05274 a 20.892856,20.892856 0 0 1 0.89844,4.51757 20.892856,20.892856 0 0 1 -1.18946,5.98047 c 4.2909,2.28594 9.09923,4.54417 14.21485,6.48829 2.40854,0.91533 5.59649,1.89011 8.63086,2.85351 a 10,10 0 0 1 5.40429,-4.25977 c 0.99976,-8.06425 2.24474,-16.02295 3.61914,-23.01757 a 10,10 0 0 1 -3.99609,-3.23633 z m 265.35156,4.74609 c -1.84544,0.9186 -4.56334,2.27556 -9.77929,4.89453 -17.28919,8.68104 -37.5076,16.43985 -57.78125,22.17578 -0.31774,0.0899 -0.28531,0.0902 -0.5918,0.17774 a 10,10 0 0 1 -4.67383,7.86523 c 0.42553,2.26936 0.49316,2.89946 1.19141,6.34766 5.05987,24.98748 9.20892,52.96431 10.83203,73.03906 0.38132,4.71633 0.79169,9.77149 1.03125,12.71485 a 10,10 0 0 1 5.98828,4.50586 l 1.32031,-0.38086 c 11.16728,-3.22143 26.65889,-8.66264 35.45313,-12.23047 a 10,10 0 0 1 -0.32227,-1.20117 10,10 0 0 1 9.41602,-9.84375 c 1.28833,-5.13103 2.81026,-11.76899 3.94336,-17.51563 2.91577,-14.78776 5.4768,-35.33501 6.52343,-52.3457 0.43733,-7.10772 0.57871,-28.86371 0.3418,-36.24805 a 10,10 0 0 1 -2.89258,-1.95508 z m -312.92968,3.44531 a 7,7 0 0 0 -7,7 7,7 0 0 0 7,7 7,7 0 0 0 7,-7 7,7 0 0 0 -7,-7 z m 16.87304,18.63477 a 20.892856,20.892856 0 0 1 -4.18164,4.53125 c 0.40623,0.72104 0.89442,1.66429 1.22852,2.22656 5.78362,9.73356 13.25647,19.90023 21.42187,29.14844 2.30999,2.61633 6.56743,7.01557 8.52735,8.94727 a 10,10 0 0 1 1.88281,-0.50586 c 0.0763,-1.6402 0.15817,-4.61486 0.17578,-10.25391 0.0249,-7.97387 0.16505,-13.76536 0.38477,-16.87109 a 10,10 0 0 1 -4.64844,-7.13282 c -8.69339,-2.67678 -17.58901,-6.33526 -24.79102,-10.08984 z m -27.75586,5.74023 c -0.25893,0.44417 -0.54982,0.89782 -0.74414,1.32227 -1.19989,2.62092 -1.06791,5.68018 0.69336,16.01758 3.15813,18.53598 9.13093,36.88908 17.54883,53.91797 2.67572,5.41282 3.26131,6.43945 3.66601,6.43945 0.17152,0 0.21082,-0.17399 0.0996,-0.44141 -0.98844,-2.37772 -3.45047,-9.41781 -4.57031,-13.07031 -5.92947,-19.33977 -8.77091,-40.47971 -8.33203,-61.16992 a 20.892856,20.892856 0 0 1 -8.36133,-3.01563 z m 18.12305,2.07813 a 20.892856,20.892856 0 0 1 -3.42188,0.67969 c -0.14136,5.20328 0.0463,14.98888 0.50196,20.31445 1.96925,23.01666 7.69082,44.15661 17.31054,63.95703 l 2.96289,6.09961 3.33985,2.1543 c 4.9006,3.15863 4.77399,3.11119 8.33984,3.11719 3.95594,0.007 7.37726,-1.00074 11.0625,-3.33008 a 10,10 0 0 1 -1.08593,-4.05274 10,10 0 0 1 5.39062,-8.76562 c -1.64369,-7.49547 -3.22534,-16.97087 -4.16992,-24.79102 a 10,10 0 0 1 -8.7207,-9.65625 10,10 0 0 1 0.99218,-3.70312 c -11.7646,-11.64662 -24.34735,-27.85928 -32.50195,-42.02344 z m 219.35547,2.01563 c -1.53091,0.32335 -2.41832,0.48216 -4.25781,0.90234 -2.11832,0.48386 -3.63604,0.80574 -5.51758,1.21875 a 10,10 0 0 1 -7.1875,8.5332 c -2.04184,31.23411 -8.22953,64.05057 -16.89258,89.32617 -1.5042,4.3887 -2.25739,6.86879 -2.80664,8.73633 a 10,10 0 0 1 2.32812,4.02344 c 3.16673,0.0395 9.04906,-0.73144 19.47071,-2.44531 8.06448,-1.32624 21.33828,-3.97208 28.94726,-5.67578 a 10,10 0 0 1 5.89258,-8.61719 c -0.35737,-7.4767 -1.38512,-19.60128 -2.79687,-31.27149 -2.09027,-17.27907 -4.52801,-32.12859 -8.66993,-52.8125 l -1.51953,-7.58984 a 10,10 0 0 1 -6.99023,-4.32812 z m -167.71094,4.73632 a 10,10 0 0 1 -6.37305,3.63672 c -0.36975,6.30415 -0.44928,17.47977 -0.18554,26.02344 a 10,10 0 0 1 6.42383,9.31445 10,10 0 0 1 -1.11524,4.16211 c 3.66731,3.16341 7.86485,6.66597 10.41992,8.58594 a 10,10 0 0 1 3.25586,-1.38086 c 0.49338,-1.33436 1.06457,-2.99343 1.97461,-5.87305 3.19689,-10.11573 5.63955,-21.35723 7.4375,-34.22656 0.0154,-0.10992 0.0142,-0.14004 0.0293,-0.25 a 10,10 0 0 1 -4.38867,-6.76953 c -5.53374,-0.83936 -11.87926,-2.01445 -17.47852,-3.22266 z m 139.40234,1.31446 c -2.48056,0.27764 -5.96808,0.6932 -12.03125,1.54101 -23.91311,3.34379 -43.59422,4.40557 -69.67382,3.75977 -9.81056,-0.24293 -17.27195,-0.58888 -21.82422,-0.90235 a 10,10 0 0 1 -7.50196,5.39649 c -1.34929,10.71234 -4.66372,25.63253 -8.00781,35.95312 l -1.18164,3.64844 a 10,10 0 0 1 5.6836,8.97656 10,10 0 0 1 -0.63672,2.375 l 3.5332,2.29297 c 28.38432,18.42153 56.69087,31.04183 89.16406,39.81641 a 10,10 0 0 1 6.92969,-3.26953 10,10 0 0 1 0.73047,0.0723 l 1.33398,-3.46679 c 6.52097,-16.94418 13.38154,-47.79473 16.54688,-74.40235 1.00608,-8.45701 1.45034,-14.07482 1.42578,-17.6289 a 10,10 0 0 1 -4.49024,-4.16211 z m 167.7793,44.75195 c 0.0155,-0.17509 -1.93945,1.59338 -4.3457,3.93164 -8.03556,7.80854 -19.33883,16.13683 -30.98242,22.82617 -3.11361,1.78879 -9.83051,5.22949 -15.19336,7.89649 a 10,10 0 0 1 0.0527,0.53711 10,10 0 0 1 -9.44726,9.85156 c -1.12351,3.49212 -2.56966,7.7705 -3.29883,9.71289 -0.0207,0.0552 -0.0166,0.0488 -0.0371,0.10351 a 10,10 0 0 1 2.29687,2.51368 c 2.20677,-0.81918 4.91307,-1.87508 7.05469,-2.78125 19.73487,-8.35032 35.13334,-20.61544 45.41602,-36.17969 2.98695,-4.52117 4.82029,-8.20294 6.88086,-13.8086 0.86645,-2.35712 1.58801,-4.42842 1.60351,-4.60351 z m -311.96094,3.06445 c -0.0511,0.009 -0.0813,0.0404 -0.0918,0.0918 -0.18403,0.89895 1.29238,10.48882 2.64257,17.16211 1.46812,7.25601 1.69471,8.13261 2.14063,8.28125 0.46733,0.15578 3.79071,-5.17621 6.48242,-10.40234 1.22048,-2.36963 2.21971,-4.4696 2.22071,-4.66602 10e-4,-0.19643 -0.91728,-1.02796 -2.04102,-1.84766 -1.12373,-0.8197 -4.13198,-3.20199 -6.68555,-5.29492 -2.92307,-2.39577 -4.31034,-3.38885 -4.66797,-3.32422 z m 25.25586,18.60547 a 10,10 0 0 1 -5.61132,1.95117 10,10 0 0 1 -3.64844,-0.97656 c -1.60713,3.02995 -3.33217,5.85257 -5.20313,8.54688 a 10,10 0 0 1 1.35157,4.92968 10,10 0 0 1 -3.52735,7.1875 c 0.78977,2.38327 1.58495,4.54714 2.36133,6.5918 a 10,10 0 0 1 0.82031,-0.2207 10,10 0 0 1 9.91211,9.10742 c 4.97117,1.05389 11.20851,2.23392 15.89063,2.92969 14.60182,2.16985 25.36264,3.05804 43.67382,3.60547 6.85372,0.20488 26.37678,-0.2568 32.60157,-0.77149 1.53289,-0.12675 2.72951,-0.38575 2.66601,-0.57617 -0.0633,-0.18995 -2.03897,-0.89616 -4.38867,-1.57031 -6.89563,-1.97843 -19.46233,-6.27579 -26.77148,-9.1543 -21.67309,-8.53536 -40.83929,-18.62367 -60.12696,-31.58008 z m -23.70312,20.27344 -1.47852,1.19726 c -2.23819,1.81551 -5.47214,3.78809 -7.69726,4.69336 -1.09708,0.44635 -1.93147,0.94603 -1.85547,1.11133 0.24936,0.54258 13.4842,5.48047 14.68945,5.48047 0.53452,0 0.46869,-0.25543 -1.23437,-4.86133 -0.87136,-2.35658 -1.77284,-5.03544 -2.00391,-5.95312 z m 243.26953,0.23828 c -7.96291,3.42829 -24.9507,9.25505 -37.29688,12.78906 L 683,708.02344 a 10,10 0 0 1 -4.65234,7.41015 10,10 0 0 1 4.0664,4.00196 c 11.06201,-1.01403 18.69515,-2.15012 27.00586,-4.02539 a 10,10 0 0 1 -0.0156,-0.0566 10,10 0 0 1 10,-10 10,10 0 0 1 0.10547,0.01 c 0.60763,-1.64299 1.15932,-3.07136 1.67382,-4.52539 v -0.002 c 0.85384,-2.41303 1.32565,-3.97891 1.56836,-4.90235 a 10,10 0 0 1 -1.08984,-1.08984 z m 43.17187,2.54297 c -0.30938,0.0865 -1.64648,0.96441 -3.23632,2.13672 -8.7913,6.48247 -20.76314,12.56325 -32.42969,16.71484 a 10,10 0 0 1 -9.76367,9.11524 10,10 0 0 1 -1.21289,-0.32422 c -2.09668,4.31414 -4.9038,9.83318 -6.41602,12.41406 -2.43986,4.16409 -4.8263,7.77028 -7.86523,11.88867 -1.27375,1.7262 -2.2222,3.23093 -2.10938,3.34375 0.11282,0.11281 2.05059,-0.76426 4.30664,-1.94922 18.75437,-9.85043 40.41336,-28.93314 55.96485,-49.30859 1.55554,-2.03807 2.82812,-3.84623 2.82812,-4.01758 0,-0.0214 -0.0222,-0.026 -0.0664,-0.0137 z m -309.78125,5.85937 c -0.17016,0.17016 4.99692,7.4563 7.62696,10.75391 9.0441,11.33974 19.92101,21.67102 31.32812,29.75586 4.89931,3.47241 18.12542,11.54492 18.91407,11.54492 0.5031,0 -0.03,-0.6766 -2.91211,-3.70312 -7.36128,-7.7302 -14.7398,-18.45538 -20.50196,-29.48828 a 10,10 0 0 1 -0.86914,0.23242 10,10 0 0 1 -9.89453,-9.60938 c -6.74761,-2.15254 -15.31699,-5.48094 -20.04102,-7.85156 -1.93614,-0.97162 -3.57809,-1.70707 -3.65039,-1.63477 z m 210.37891,9.31641 -0.44141,0.10742 c -4.75936,1.15272 -17.94449,3.87591 -23.21484,4.79492 -2.39135,0.417 -3.02211,0.73945 -2.30664,1.18164 0.7983,0.49337 16.75067,1.26382 25.37695,1.32227 a 10,10 0 0 1 3.8418,-4.34375 10,10 0 0 1 -3.25586,-3.0625 z m -168.51562,5.16211 a 10,10 0 0 1 -1.61914,1.61914 c 1.21744,2.5073 4.07618,7.65855 6.25,11.02148 6.59095,10.1964 14.19106,18.8159 22.84765,25.91407 3.65643,2.99817 11.14674,7.75579 15.82813,10.05468 l 4.80468,2.35938 5.02539,-0.0312 c 3.95217,-0.0258 5.62636,-0.19679 7.83204,-0.79883 14.34476,-3.91546 28.25648,-17.86611 39.70312,-39.81445 0.90329,-1.73201 1.14158,-2.25685 1.59766,-3.17969 a 10,10 0 0 1 -1.72266,-1.72266 c -1.25138,0.0861 -1.89893,0.11833 -4.16797,0.29883 -10.48955,0.8344 -46.12285,0.81141 -55.89453,-0.0351 -14.69996,-1.27383 -26.64577,-2.91273 -37.11523,-5.09375 -1.80247,-0.37549 -2.25457,-0.40303 -3.36914,-0.5918 z m 214.98242,3.7832 c -0.5074,0.0455 -1.15644,0.15273 -2.98242,0.5586 -7.22726,1.60638 -17.69409,3.0664 -25.60938,3.64257 a 10,10 0 0 1 -7.54297,8.01758 c -0.83545,11.82744 -2.85695,23.05342 -5.36133,29.22461 -0.47177,1.16253 -0.79911,2.17159 -0.72851,2.24219 0.0706,0.0706 3.36826,-0.9351 7.32812,-2.23438 8.11011,-2.66104 8.67297,-2.99695 13.98243,-8.33984 7.00089,-7.04499 13.59663,-16.55966 19.3125,-27.85742 1.22145,-2.41433 2.03944,-4.13931 2.2246,-4.63086 a 10,10 0 0 1 -0.62304,-0.62305 z m -96.76758,0.0703 c -0.22469,-0.0125 -0.54073,0.0441 -0.76172,0.043 a 10,10 0 0 1 -8.89453,5.87696 10,10 0 0 1 -0.4082,-0.10938 c -4.38645,8.99436 -10.206,18.40525 -15.47852,24.95313 -3.70281,4.59847 -10.86342,11.49954 -14.87305,14.33398 -1.76407,1.24703 -5.02387,3.1582 -7.24414,4.24805 -2.22026,1.08985 -3.90776,2.10219 -3.75,2.24805 0.32775,0.30295 6.67978,1.1717 13.50196,1.84765 7.33288,0.72654 32.99634,0.60061 41.07226,-0.20117 13.55124,-1.34538 25.34413,-3.2014 36.78516,-5.79297 l 5.94922,-1.34766 1.04297,-1.81445 c 3.68208,-6.39327 6.22691,-17.81127 7.41211,-32.70703 a 10,10 0 0 1 -5.23829,-6.79687 l -4.43359,-0.0918 c -13.67301,-0.28515 -27.30631,-1.64654 -40.04883,-4 -2.22823,-0.41154 -3.49442,-0.62606 -4.63281,-0.68946 z"
           transform="matrix(0,0.5,-0.5,0,726.5054,55.81166)" />
        <path
           transform="matrix(0.5,0,0,0.5,0,-20.500017)"
           inkscape:connector-curvature="0"
           id="path2378"
           d="m 990.07598,621.23859 c 1.48194,-3.74534 2.0912,-10.98303 1.23657,-14.68999 -0.19844,-0.86074 -0.25898,-1.66432 -0.13454,-1.78571 0.12445,-0.1214 3.21882,2.83285 6.87638,6.56499 l 6.65011,6.78571 -3.0247,0.26783 c -3.35235,0.29685 -7.1181,1.31551 -9.70024,2.62398 -2.0214,1.02432 -2.22655,1.04945 -1.90358,0.23319 z"
           style="opacity:1;fill:#333333;fill-opacity:1;fill-rule:evenodd;stroke:none;stroke-width:2.14286;stroke-linecap:square;stroke-linejoin:miter;stroke-miterlimit:4;stroke-dasharray:none;stroke-dashoffset:0;stroke-opacity:1;paint-order:markers stroke fill" />
        <path
           transform="matrix(0.5,0,0,0.5,0,-20.500017)"
           inkscape:connector-curvature="0"
           id="path2414"
           d="m 1017.8503,861.35641 c 0,-0.12757 0.625,-1.26895 1.389,-2.5364 1.2716,-2.10971 1.517,-2.27727 2.9042,-1.98292 3.0991,0.65761 3.0562,1.01067 -0.3546,2.91806 -3.1779,1.77723 -3.9386,2.08647 -3.9386,1.60126 z"
           style="opacity:1;fill:#333333;fill-opacity:1;fill-rule:evenodd;stroke:none;stroke-width:3.03046;stroke-linecap:square;stroke-linejoin:miter;stroke-miterlimit:4;stroke-dasharray:none;stroke-dashoffset:0;stroke-opacity:1;paint-order:markers stroke fill" />
      </g>
    </g>
  </g>
</svg>
