<?xml version="1.0" encoding="UTF-8" standalone="no"?>
<!-- Created with Inkscape (http://www.inkscape.org/) -->

<svg
   width="101.07056"
   height="254.81171"
   viewBox="0 0 101.07056 254.81171"
   version="1.1"
   id="svg837"
   inkscape:version="1.2.2 (1:1.2.2+202305151914+b0a8486541)"
   sodipodi:docname="handies.svg"
   xmlns:inkscape="http://www.inkscape.org/namespaces/inkscape"
   xmlns:sodipodi="http://sodipodi.sourceforge.net/DTD/sodipodi-0.dtd"
   xmlns:xlink="http://www.w3.org/1999/xlink"
   xmlns="http://www.w3.org/2000/svg"
   xmlns:svg="http://www.w3.org/2000/svg"
   xmlns:rdf="http://www.w3.org/1999/02/22-rdf-syntax-ns#"
   xmlns:cc="http://creativecommons.org/ns#"
   xmlns:dc="http://purl.org/dc/elements/1.1/">
  <title
     id="title-handy">handy</title>
  <defs
     id="defs1454">
    <color-profile
       name="sRGB-v4-ICC-preference-perceptual-intent-beta-display-class"
       xlink:href="C:\Windows\system32\spool\drivers\color\sRGB_v4_ICC_preference_displayclass.icc"
       id="color-profile300" />
  </defs>
  <sodipodi:namedview
     id="base"
     pagecolor="#ffffff"
     bordercolor="#666666"
     borderopacity="1.0"
     inkscape:pageopacity="0.0"
     inkscape:pageshadow="2"
     inkscape:zoom="0.49497475"
     inkscape:cx="114.14724"
     inkscape:cy="-302.03561"
     inkscape:document-units="px"
     inkscape:current-layer="layer1"
     showgrid="true"
     units="px"
     width="1000px"
     inkscape:window-width="1920"
     inkscape:window-height="1029"
     inkscape:window-x="0"
     inkscape:window-y="0"
     inkscape:window-maximized="1"
     fit-margin-top="0"
     fit-margin-left="0"
     fit-margin-right="0"
     fit-margin-bottom="0"
     inkscape:showpageshadow="2"
     inkscape:pagecheckerboard="0"
     inkscape:deskcolor="#d1d1d1">
    <inkscape:grid
       type="xygrid"
       id="grid-handy"
       originx="-292.50001"
       originy="-712.6883" />
  </sodipodi:namedview>
  <metadata
     id="metadata-handy">
    <rdf:RDF>
      <cc:Work
         rdf:about="">
        <dc:format>image/svg+xml</dc:format>
        <dc:type
           rdf:resource="http://purl.org/dc/dcmitype/StillImage" />
        <dc:title>handy</dc:title>
        <cc:license
           rdf:resource="http://creativecommons.org/publicdomain/zero/1.0/" />
        <dc:date>16/11/2020</dc:date>
        <dc:creator>
          <cc:Agent>
            <dc:title>La Goleta</dc:title>
          </cc:Agent>
        </dc:creator>
        <dc:rights>
          <cc:Agent>
            <dc:title>Creative Commons</dc:title>
          </cc:Agent>
        </dc:rights>
        <dc:publisher>
          <cc:Agent>
            <dc:title>David Digan</dc:title>
          </cc:Agent>
        </dc:publisher>
        <dc:source>Bahia Blanca - Argentina</dc:source>
        <dc:language>English</dc:language>
      </cc:Work>
      <cc:License
         rdf:about="http://creativecommons.org/publicdomain/zero/1.0/">
        <cc:permits
           rdf:resource="http://creativecommons.org/ns#Reproduction" />
        <cc:permits
           rdf:resource="http://creativecommons.org/ns#Distribution" />
        <cc:permits
           rdf:resource="http://creativecommons.org/ns#DerivativeWorks" />
      </cc:License>
    </rdf:RDF>
  </metadata>
  <g
     inkscape:label="Capa 1"
     inkscape:groupmode="layer"
     id="layer1"
     transform="translate(-292.5,-705.10496)">
    <g
       id="g2036"
       transform="matrix(0.28470582,0,0,0.28470582,203.52943,692.31692)">
      <path
         style="color:#000000;font-style:normal;font-variant:normal;font-weight:normal;font-stretch:normal;font-size:medium;line-height:normal;font-family:sans-serif;font-variant-ligatures:normal;font-variant-position:normal;font-variant-caps:normal;font-variant-numeric:normal;font-variant-alternates:normal;font-feature-settings:normal;text-indent:0;text-align:start;text-decoration:none;text-decoration-line:none;text-decoration-style:solid;text-decoration-color:#000000;letter-spacing:normal;word-spacing:normal;text-transform:none;writing-mode:lr-tb;direction:ltr;text-orientation:mixed;dominant-baseline:auto;baseline-shift:baseline;text-anchor:start;white-space:normal;shape-padding:0;clip-rule:nonzero;display:inline;overflow:visible;visibility:visible;opacity:1;isolation:auto;mix-blend-mode:normal;color-interpolation:sRGB;color-interpolation-filters:linearRGB;solid-color:#000000;solid-opacity:1;vector-effect:none;fill:#000000;fill-opacity:1;fill-rule:nonzero;stroke:none;stroke-width:15;stroke-linecap:butt;stroke-linejoin:miter;stroke-miterlimit:4;stroke-dasharray:none;stroke-dashoffset:0;stroke-opacity:1;color-rendering:auto;image-rendering:auto;shape-rendering:auto;text-rendering:auto;enable-background:accumulate"
         d="m 590,32.5 c -14.5,0 -24.47904,6.230505 -30.01953,12.5625 -5.5405,6.331994 -7.25586,13.119141 -7.25586,13.119141 L 552.5,59.078125 V 352.5 h -45 v -20 h -55 v 20 h -25 v -40 h -55 v 40 H 340 c 0,0 -3.21641,-0.004 -7.0957,0.77148 -3.8793,0.77586 -8.93927,2.15802 -13.20703,6.42579 -4.26777,4.26777 -5.64993,9.32774 -6.42579,13.20703 C 312.49563,376.7836 312.5,380 312.5,380 v 36.89453 l -20,20 v 86.21289 l 20,20 V 900 c 0,0 -0.004,3.21641 0.77148,7.0957 0.77586,3.87929 2.15802,8.94123 6.42579,13.20899 4.26776,4.26777 9.32773,5.64993 13.20703,6.42578 C 336.78359,927.50633 340,927.5 340,927.5 h 280 c 0,0 3.21641,0.006 7.0957,-0.76953 3.8793,-0.77585 8.93927,-2.15801 13.20703,-6.42578 4.26777,-4.26776 5.64993,-9.3297 6.42579,-13.20899 C 647.50437,903.21641 647.5,900 647.5,900 V 380 c 0,0 0.004,-3.2164 -0.77148,-7.0957 -0.77586,-3.87929 -2.15802,-8.93926 -6.42579,-13.20703 -4.1342,-4.1342 -8.9751,-5.51613 -12.80273,-6.30665 V 59.078125 l -0.22461,-0.896484 c 0,0 -1.71536,-6.787147 -7.25586,-13.119141 C 614.47904,38.730505 604.5,32.5 590,32.5 Z m 0,15 c 10.5,0 15.52096,3.771447 18.73047,7.439453 2.75548,3.149122 3.55095,5.563979 3.76953,6.296875 V 367.5 h 7.5 c 0,0 1.78359,0.006 4.1543,0.48047 2.3707,0.47415 4.81073,1.59199 5.54297,2.32422 0.73223,0.73224 1.85007,3.1703 2.32421,5.54101 C 632.49563,378.21641 632.5,380 632.5,380 v 520 c 0,0 -0.004,1.7836 -0.47852,4.1543 -0.47414,2.37071 -1.59198,4.81074 -2.32421,5.54297 -0.73224,0.73223 -3.17227,1.85007 -5.54297,2.32421 C 621.78359,912.49562 620,912.5 620,912.5 H 340 c 0,0 -1.78359,-0.004 -4.1543,-0.47852 -2.3707,-0.47414 -4.81073,-1.59198 -5.54297,-2.32421 -0.73223,-0.73223 -1.85007,-3.17226 -2.32421,-5.54297 C 327.50437,901.7836 327.5,900 327.5,900 V 558.10742 401.89453 380 c 0,0 0.004,-1.78359 0.47852,-4.1543 0.47414,-2.37071 1.59198,-4.80877 2.32421,-5.54101 0.73224,-0.73223 3.17227,-1.85007 5.54297,-2.32422 C 338.21641,367.50633 340,367.5 340,367.5 h 47.5 v -40 h 25 v 40 h 55 v -20 h 25 v 20 h 75 V 360 61.236328 c 0.21858,-0.732896 1.01405,-3.147753 3.76953,-6.296875 C 574.47904,51.271447 579.5,47.5 590,47.5 Z M 312.5,438.10742 v 83.78711 l -5,-5 v -73.78711 z"
         transform="translate(20,12.41667)"
         id="handy"
         inkscape:connector-curvature="0" />
      <path
         inkscape:connector-curvature="0"
         id="speaker-1"
         d="M 380,872.41667 H 620"
         style="fill:none;stroke:#000000;stroke-width:15;stroke-linecap:round;stroke-linejoin:miter;stroke-miterlimit:4;stroke-dasharray:none;stroke-opacity:1" />
      <path
         inkscape:connector-curvature="0"
         id="speaker-2"
         d="M 380,812.41667 H 620"
         style="fill:none;stroke:#000000;stroke-width:15;stroke-linecap:round;stroke-linejoin:miter;stroke-miterlimit:4;stroke-dasharray:none;stroke-opacity:1" />
      <path
         inkscape:connector-curvature="0"
         id="speaker-3"
         d="M 380,752.41667 H 620"
         style="fill:none;stroke:#000000;stroke-width:15;stroke-linecap:round;stroke-linejoin:miter;stroke-miterlimit:4;stroke-dasharray:none;stroke-opacity:1" />
      <rect
         y="472.41666"
         x="380"
         height="219.99995"
         width="240"
         id="display"
         style="opacity:1;fill:none;fill-opacity:0.5625;fill-rule:nonzero;stroke:#000000;stroke-width:15;stroke-linecap:round;stroke-linejoin:bevel;stroke-miterlimit:4;stroke-dasharray:none;stroke-dashoffset:0;stroke-opacity:1;paint-order:normal" />
      <rect
         y="402.41666"
         x="380"
         height="50"
         width="240"
         id="little-display"
         style="opacity:1;fill:none;fill-opacity:0.5625;fill-rule:nonzero;stroke:#000000;stroke-width:15;stroke-linecap:round;stroke-linejoin:bevel;stroke-miterlimit:4;stroke-dasharray:none;stroke-dashoffset:0;stroke-opacity:1;paint-order:normal" />
    </g>
  </g>
</svg>
