<?xml version="1.0" encoding="UTF-8" standalone="no"?>
<svg
   width="103.44819mm"
   height="103.44854mm"
   viewBox="0 0 103.44819 103.44854"
   version="1.1"
   id="svg2963"
   inkscape:version="1.1.2 (1:1.1+202202050950+0a00cf5339)"
   sodipodi:docname="iot-v1.svg"
   xmlns:inkscape="http://www.inkscape.org/namespaces/inkscape"
   xmlns:sodipodi="http://sodipodi.sourceforge.net/DTD/sodipodi-0.dtd"
   xmlns="http://www.w3.org/2000/svg"
   xmlns:svg="http://www.w3.org/2000/svg"
   xmlns:rdf="http://www.w3.org/1999/02/22-rdf-syntax-ns#"
   xmlns:cc="http://creativecommons.org/ns#"
   xmlns:dc="http://purl.org/dc/elements/1.1/">
  <defs
     id="defs2957">
    <filter
       inkscape:collect="always"
       style="color-interpolation-filters:sRGB"
       id="filter13929"
       x="0"
       y="0"
       width="1"
       height="1">
      <feBlend
         inkscape:collect="always"
         mode="screen"
         in2="BackgroundImage"
         id="feBlend13931" />
    </filter>
  </defs>
  <sodipodi:namedview
     id="base"
     pagecolor="#ffffff"
     bordercolor="#666666"
     borderopacity="1.0"
     inkscape:pageopacity="0.0"
     inkscape:pageshadow="2"
     inkscape:zoom="0.49497475"
     inkscape:cx="104.04571"
     inkscape:cy="358.60415"
     inkscape:document-units="mm"
     inkscape:current-layer="layer1"
     inkscape:document-rotation="0"
     showgrid="false"
     fit-margin-top="0"
     fit-margin-left="0"
     fit-margin-right="0"
     fit-margin-bottom="0"
     inkscape:window-width="1600"
     inkscape:window-height="840"
     inkscape:window-x="0"
     inkscape:window-y="0"
     inkscape:window-maximized="1"
     inkscape:pagecheckerboard="0"
     showguides="false"
     inkscape:guide-bbox="true"
     inkscape:snap-bbox="true"
     inkscape:bbox-paths="true"
     inkscape:bbox-nodes="true"
     inkscape:snap-bbox-edge-midpoints="true"
     inkscape:snap-bbox-midpoints="true"
     inkscape:snap-global="true">
    <sodipodi:guide
       position="28.728543,26.639332"
       orientation="0.70710678,-0.70710678"
       id="guide3490" />
    <sodipodi:guide
       position="71.24255,26.639332"
       orientation="-0.70710678,-0.70710678"
       id="guide3492" />
    <sodipodi:guide
       position="49.985554,15.152912"
       orientation="1,0"
       id="guide3494" />
    <sodipodi:guide
       position="28.728543,26.639332"
       orientation="0,-1"
       id="guide3644" />
    <sodipodi:guide
       position="49.985553,41.838421"
       orientation="0.70710678,-0.70710678"
       id="guide3646" />
    <sodipodi:guide
       position="49.985553,41.838423"
       orientation="-0.70710678,-0.70710678"
       id="guide3648" />
    <sodipodi:guide
       position="41.529234,33.382103"
       orientation="1,0"
       id="guide3730" />
    <sodipodi:guide
       position="58.065694,33.758282"
       orientation="1,0"
       id="guide3732" />
    <sodipodi:guide
       position="22.016327,46.434455"
       orientation="0,-1"
       id="guide4438" />
    <sodipodi:guide
       position="24.327862,50.404851"
       orientation="0,-1"
       id="guide4440" />
    <sodipodi:guide
       position="40.205812,50.294162"
       orientation="0,-1"
       id="guide5219" />
  </sodipodi:namedview>
  <metadata
     id="metadata2960">
    <rdf:RDF>
      <cc:Work
         rdf:about="">
        <dc:format>image/svg+xml</dc:format>
        <dc:type
           rdf:resource="http://purl.org/dc/dcmitype/StillImage" />
      </cc:Work>
    </rdf:RDF>
  </metadata>
  <g
     inkscape:label="Capa 1"
     inkscape:groupmode="layer"
     id="layer1"
     transform="translate(-64.692584,-136.5079)">
    <path
       id="path847"
       style="color:#000000;fill:#000001;stroke-width:0.824691;-inkscape-stroke:none;paint-order:markers stroke fill"
       d="m 115.64638,150.5692 c -8.24295,0.005 -15.37413,5.32311 -17.980558,12.9215 -1.16896,-0.2722 -2.35556,-0.45934 -3.559377,-0.45941 -8.678885,-7e-5 -15.750058,7.07109 -15.749988,15.74997 0.0023,6.94047 4.56493,13.07019 11.207435,15.07154 1.407353,0.46809 2.922332,0.67632 4.542553,0.67632 h 5.296875 v -0.004 a 1.6371741,1.6371741 0 0 0 0.120601,0.005 1.6371741,1.6371741 0 0 0 1.636919,-1.63736 1.6371741,1.6371741 0 0 0 -1.636919,-1.63691 1.6371741,1.6371741 0 0 0 -0.120601,0.005 v -0.004 h -5.296875 c -1.347482,0 -2.505362,-0.17137 -3.521022,-0.51056 l -0.02429,-0.008 -0.02599,-0.006 c -5.289692,-1.57969 -8.90315,-6.42946 -8.905687,-11.94985 v -0.001 c 8.29e-4,-6.90925 5.567529,-12.47535 12.476997,-12.4753 1.389341,9e-5 2.768578,0.23195 4.081436,0.68656 l 1.691471,0.58599 0.43128,-1.73793 c 1.739,-6.9998 8.02109,-11.99146 15.33576,-11.9967 v 4.5e-4 h 0.001 c 6.04128,8.1e-4 11.54771,3.43498 14.20512,8.86051 l 0.70702,1.44344 1.45622,-0.67975 c 1.92308,-0.89899 4.01842,-1.36682 6.14155,-1.36929 8.04204,0 14.525,6.47867 14.53838,14.51751 -0.0958,3.05625 -1.04501,6.72404 -3.34202,9.55985 -2.30276,2.84292 -5.90869,4.98666 -11.91319,5.08166 h -2.95591 a 1.6371741,1.6371741 0 0 0 -0.0208,-4.3e-4 1.6371741,1.6371741 0 0 0 -1.63735,1.63734 1.6371741,1.6371741 0 0 0 1.63735,1.63693 1.6371741,1.6371741 0 0 0 0.0529,-8.7e-4 h 2.96274 0.0128 c 6.79565,-0.10759 11.52309,-2.73717 14.40456,-6.29454 2.88147,-3.55738 3.96616,-7.90206 4.07548,-11.54582 v -0.0256 -0.0243 c 0,-9.8192 -7.99557,-17.81478 -17.81478,-17.81478 h -10e-4 c -2.12757,0.003 -4.20408,0.47872 -6.19013,1.22098 -3.41336,-5.77832 -9.53456,-9.47541 -16.31808,-9.47585 z m -0.57277,6.72668 c -1.25166,0.0335 -2.50751,0.28105 -3.71194,0.75305 -2.16798,0.84958 -3.9643,2.34547 -5.19119,4.22504 -0.11928,0.18274 -0.23303,0.36897 -0.34136,0.55872 -0.75835,1.32824 -1.24423,2.82228 -1.39486,4.39978 a 0.68505398,0.68505398 0 1 0 1.36375,0.13041 c 0.34466,-3.60955 2.68756,-6.71544 6.06355,-8.03843 3.376,-1.32298 7.2053,-0.63591 9.9106,1.77841 a 0.68505398,0.68505398 0 1 0 0.912,-1.02196 c -2.12332,-1.89495 -4.8569,-2.85856 -7.61055,-2.78502 z m -0.0575,2.92652 c -0.99065,0.0488 -1.97735,0.26748 -2.91543,0.65885 -1.56349,0.65229 -2.88086,1.73836 -3.81636,3.10124 -0.14032,0.20444 -0.27195,0.41522 -0.39463,0.63159 -0.36805,0.64912 -0.65497,1.34937 -0.84766,2.08696 a 0.74285117,0.74285117 0 1 0 1.43748,0.37545 c 0.56819,-2.17503 2.11839,-3.95868 4.19309,-4.82425 2.0747,-0.86556 4.43298,-0.71249 6.37849,0.41382 a 0.74285042,0.74285042 0 1 0 0.74409,-1.28577 c -1.46612,-0.84878 -3.12799,-1.23924 -4.77907,-1.15789 z m 0.52547,2.77777 c -1.90519,3.1e-4 -3.72789,0.92352 -4.84727,2.50163 -0.1066,0.15029 -0.20672,0.30642 -0.30002,0.46836 -0.0933,0.16193 -0.17975,0.32975 -0.25869,0.50288 a 0.68505398,0.68505398 0 1 0 1.24655,0.56808 c 0.97583,-2.14023 3.40077,-3.186 5.62716,-2.42704 a 0.68505398,0.68505398 0 1 0 0.44194,-1.29641 c -0.63036,-0.21489 -1.27461,-0.3176 -1.90967,-0.3175 z m 9.39961,2.91629 c -0.26907,0.42233 -0.54771,0.88085 -0.7867,1.20819 -0.2971,-0.0206 -0.59911,-0.0197 -0.90434,0.005 -0.0195,0.001 -0.0392,0.004 -0.0588,0.005 -0.24598,-0.32243 -0.53465,-0.77517 -0.81271,-1.192 -0.43301,0.0806 -0.85177,0.1987 -1.25337,0.35075 -0.0219,0.50144 -0.034,1.03933 -0.0776,1.44258 -0.28791,0.14216 -0.56241,0.3069 -0.82209,0.49053 -0.3732,-0.15523 -0.84929,-0.4033 -1.29897,-0.62562 -0.33136,0.28453 -0.63733,0.5975 -0.9137,0.93459 0.23201,0.44548 0.49002,0.91673 0.65289,1.28661 -0.17741,0.26333 -0.33469,0.5408 -0.47006,0.82975 -0.40198,0.0523 -0.94009,0.0758 -1.44174,0.10823 -0.14474,0.40644 -0.25455,0.82808 -0.32644,1.26103 0.42232,0.26908 0.88086,0.54771 1.20819,0.78671 -0.0206,0.29716 -0.0197,0.59947 0.005,0.90476 0.001,0.0196 0.004,0.0388 0.005,0.0584 -0.32245,0.24599 -0.77515,0.53463 -1.192,0.81271 0.0808,0.43301 0.1987,0.85178 0.35073,1.25337 0.50151,0.0219 1.03932,0.034 1.4426,0.0776 0.14213,0.28786 0.3065,0.56245 0.49009,0.82209 -0.0484,0.11654 -0.10759,0.24533 -0.17047,0.378 -0.2838,-0.33012 -0.59559,-0.63524 -0.93161,-0.91072 -0.44547,0.23202 -0.91672,0.49003 -1.28661,0.6529 -0.26333,-0.17743 -0.54078,-0.3347 -0.82975,-0.47007 -0.0523,-0.40197 -0.0758,-0.94008 -0.10823,-1.44174 -0.40649,-0.14475 -0.82803,-0.25455 -1.26104,-0.32645 -0.26909,0.42234 -0.54815,0.88086 -0.78714,1.2082 -0.29708,-0.0206 -0.5991,-0.0197 -0.90432,0.005 -0.0196,0.001 -0.0389,0.004 -0.0584,0.005 -0.24598,-0.32243 -0.53465,-0.77518 -0.81272,-1.192 -0.433,0.0806 -0.85176,0.1987 -1.25336,0.35075 -0.0219,0.50144 -0.0344,1.03932 -0.078,1.44258 -0.2879,0.14215 -0.5624,0.30647 -0.82208,0.49009 -0.3732,-0.15521 -0.84929,-0.40287 -1.29897,-0.62518 -0.33136,0.28453 -0.63692,0.59749 -0.91328,0.93458 0.23202,0.44549 0.49002,0.91673 0.65289,1.28661 -0.17741,0.26333 -0.33512,0.5408 -0.47049,0.82975 -0.40197,0.0523 -0.93966,0.0758 -1.44131,0.10823 -0.14474,0.40644 -0.25456,0.82808 -0.32645,1.26103 0.42233,0.26909 0.88088,0.54771 1.2082,0.78672 -0.0205,0.29716 -0.0197,0.59946 0.005,0.90476 0.002,0.0196 0.003,0.0388 0.005,0.0584 -0.32244,0.246 -0.77515,0.53464 -1.192,0.81271 0.0807,0.43301 0.19912,0.85178 0.35116,1.25337 0.50151,0.0219 1.03932,0.034 1.44259,0.0776 0.14214,0.28785 0.3065,0.56244 0.4901,0.82208 -0.15523,0.37319 -0.4033,0.8497 -0.62562,1.29939 0.28453,0.33137 0.5975,0.63692 0.93459,0.91329 0.44548,-0.23202 0.91715,-0.49002 1.28704,-0.65289 0.26333,0.17741 0.54037,0.33468 0.82932,0.47007 0.0523,0.40196 0.0758,0.94008 0.10825,1.44172 0.40646,0.14475 0.82804,0.25457 1.26104,0.32645 0.26908,-0.42233 0.54813,-0.88085 0.78713,-1.20819 0.29712,0.0206 0.59908,0.0197 0.90434,-0.005 0.0197,-10e-4 0.0392,-0.004 0.0588,-0.005 0.24597,0.32245 0.53422,0.77561 0.81227,1.19243 0.43299,-0.0808 0.8518,-0.19913 1.25338,-0.35116 0.0219,-0.50144 0.0344,-1.03934 0.0779,-1.44259 0.28787,-0.14214 0.56244,-0.30649 0.82209,-0.4901 0.37315,0.15526 0.8493,0.4029 1.29897,0.6252 0.33137,-0.28453 0.6369,-0.59707 0.91328,-0.93416 -0.23203,-0.4455 -0.49003,-0.91717 -0.6529,-1.28705 0.17744,-0.26333 0.33512,-0.54036 0.47049,-0.82932 0.40198,-0.0523 0.9401,-0.0758 1.44174,-0.10823 0.14475,-0.40645 0.25413,-0.82847 0.32602,-1.26146 -0.42233,-0.26907 -0.88085,-0.54771 -1.20819,-0.78672 0.0206,-0.29715 0.0197,-0.59902 -0.005,-0.90432 -10e-4,-0.0196 -0.004,-0.0392 -0.005,-0.0588 0.32244,-0.24597 0.77517,-0.53465 1.192,-0.81271 -0.0806,-0.433 -0.19912,-0.85177 -0.35117,-1.25336 -0.50149,-0.0219 -1.0393,-0.034 -1.44258,-0.0776 -0.14216,-0.28788 -0.30649,-0.56243 -0.49011,-0.82209 0.0484,-0.11653 0.10798,-0.24494 0.1709,-0.37758 0.2838,0.33012 0.59518,0.63482 0.93118,0.91029 0.44549,-0.23201 0.91716,-0.49002 1.28703,-0.65289 0.26335,0.17742 0.5408,0.33469 0.82977,0.47006 0.0523,0.40198 0.0758,0.94009 0.10823,1.44174 0.40646,0.14475 0.82805,0.25457 1.26104,0.32644 0.26908,-0.42233 0.54771,-0.88085 0.7867,-1.20819 0.29712,0.0206 0.5991,0.0197 0.90434,-0.005 0.0197,-0.001 0.0392,-0.004 0.0588,-0.005 0.24597,0.32245 0.53465,0.77561 0.81271,1.19244 0.43297,-0.0808 0.85178,-0.19914 1.25336,-0.35117 0.0219,-0.50145 0.034,-1.03934 0.0776,-1.44258 0.28788,-0.14215 0.56243,-0.3065 0.82209,-0.49011 0.37316,0.15525 0.8493,0.40289 1.29896,0.6252 0.33138,-0.28454 0.63733,-0.59708 0.91371,-0.93417 -0.23202,-0.4455 -0.49002,-0.91716 -0.65289,-1.28704 0.17742,-0.26333 0.33469,-0.54037 0.47007,-0.82932 0.40198,-0.0523 0.94011,-0.0758 1.44173,-0.10823 0.14476,-0.40645 0.25455,-0.82805 0.32645,-1.26103 -0.42233,-0.26908 -0.88086,-0.54815 -1.2082,-0.78715 0.0206,-0.29716 0.0197,-0.59903 -0.005,-0.90432 -0.001,-0.0195 -0.004,-0.0392 -0.005,-0.0588 0.32245,-0.24597 0.7756,-0.53422 1.19242,-0.81227 -0.0806,-0.43302 -0.19912,-0.85221 -0.35117,-1.2538 -0.50149,-0.0219 -1.0393,-0.034 -1.44258,-0.0776 -0.14216,-0.28788 -0.30649,-0.56244 -0.4901,-0.82209 0.15525,-0.37317 0.40289,-0.8493 0.62519,-1.29897 -0.28455,-0.33136 -0.59707,-0.63733 -0.93416,-0.9137 -0.44549,0.23201 -0.91716,0.49002 -1.28704,0.65289 -0.26333,-0.17743 -0.54079,-0.3347 -0.82975,-0.47007 -0.0523,-0.40197 -0.0754,-0.94008 -0.10785,-1.44174 -0.40648,-0.14475 -0.82846,-0.25456 -1.26147,-0.32645 z m -1.12679,4.01666 c 1.68047,0.0332 3.06824,1.31525 3.20523,3.03049 0.14612,1.82961 -1.1911,3.39878 -3.02069,3.54489 -1.82961,0.14612 -3.39878,-1.1911 -3.54489,-3.02069 -0.14612,-1.82961 1.19109,-3.39836 3.02069,-3.54447 0.11436,-0.009 0.22763,-0.0128 0.33966,-0.0102 z m -10.79192,8.7024 c 1.68046,0.0332 3.06825,1.31526 3.20523,3.0305 0.14612,1.82959 -1.19067,3.39878 -3.02026,3.54489 -1.82961,0.14611 -3.39878,-1.1911 -3.54489,-3.0207 -0.14612,-1.8296 1.19067,-3.39835 3.02027,-3.54446 0.11436,-0.009 0.22763,-0.0128 0.33965,-0.0102 z m 3.91097,11.11667 a 1.0885778,1.0885778 0 0 0 -1.08844,1.08843 h -0.003 v 25.76756 c -1.62748,0.46869 -2.83957,1.95622 -2.83957,3.71834 0,2.13803 1.78436,3.87217 3.93015,3.87217 2.14579,0 3.93185,-1.73414 3.93185,-3.87217 0,-1.7616 -1.21241,-3.24877 -2.83958,-3.71792 v -25.76798 h -0.004 a 1.0885778,1.0885778 0 0 0 -1.08887,-1.08843 z m -6.97343,0.50586 a 1.0885778,1.0885778 0 0 0 -1.08844,1.08843 h -0.003 v 8.49955 l -7.60245,7.60246 c -0.55643,-0.29794 -1.19159,-0.46666 -1.861944,-0.46666 -2.145784,0 -3.931848,1.73414 -3.931848,3.87219 0,2.13803 1.786064,3.87219 3.931848,3.87219 2.145794,0 3.930144,-1.73416 3.930144,-3.87219 0,-0.6843 -0.18311,-1.32744 -0.50203,-1.88537 l 8.21871,-8.21871 v -9.40346 h -0.003 a 1.0885778,1.0885778 0 0 0 -1.08844,-1.08843 z m 13.63874,0.31706 a 1.0885779,1.0885779 0 0 0 -1.08844,1.08035 h -0.004 v 8.78337 l 8.52853,8.52982 c -0.31915,0.55793 -0.50203,1.20107 -0.50203,1.88537 0,2.13803 1.78606,3.87219 3.93185,3.87219 2.14579,0 3.93014,-1.73416 3.93014,-3.87219 0,-2.13805 -1.78435,-3.87219 -3.93014,-3.87219 -0.67076,0 -1.30634,0.16923 -1.86322,0.46751 l -7.91229,-7.91399 v -7.87989 h -0.003 a 1.0885779,1.0885779 0 0 0 -1.08844,-1.08035 z m -32.043768,7.52916 a 0.92406555,0.92406555 0 0 0 -0.710001,0.0737 c -1.891138,0.99637 -3.506551,2.368 -4.775241,3.99492 -0.181242,0.23242 -0.355178,0.47007 -0.52206,0.71257 -1.716498,2.49407 -2.66252,5.50225 -2.611573,8.64273 0.09057,5.58309 3.316088,10.64527 8.338028,13.08642 a 0.92406555,0.92406555 0 1 0 0.808019,-1.66206 c -4.398871,-2.13828 -7.218835,-6.56423 -7.298171,-11.45462 -0.07934,-4.8904 2.595092,-9.40534 6.922289,-11.68517 a 0.92406555,0.92406555 0 0 0 -0.15129,-1.70852 z m 50.877528,0 a 0.92406555,0.92406555 0 0 0 -0.1513,1.70852 c 4.3272,2.27983 7.00163,6.79477 6.92229,11.68517 -0.0794,4.89039 -2.89887,9.31634 -7.29774,11.45462 a 0.92406555,0.92406555 0 1 0 0.8076,1.66206 c 5.02193,-2.44115 8.24745,-7.50333 8.33802,-13.08642 0.051,-3.14048 -0.89507,-6.14866 -2.61158,-8.64273 -0.16688,-0.2425 -0.3408,-0.48015 -0.52205,-0.71257 -1.2687,-1.62692 -2.8841,-2.99855 -4.77525,-3.99492 a 0.92406555,0.92406555 0 0 0 -0.70999,-0.0737 z m -50.167102,3.39872 a 1.0020269,1.0020269 0 0 0 -0.747077,0.20115 c -0.821587,0.61841 -1.548726,1.33512 -2.170061,2.12701 -0.207113,0.26397 -0.402389,0.53626 -0.585558,0.81612 -1.221135,1.86571 -1.900853,4.06609 -1.913506,6.35122 -0.02024,3.6562 1.669325,7.11446 4.565992,9.34549 a 1.0020508,1.0020508 0 1 0 1.222684,-1.5879 c -2.402372,-1.85032 -3.801614,-4.71422 -3.784822,-7.74651 0.01679,-3.03229 1.44734,-5.88071 3.870055,-7.70431 a 1.0020269,1.0020269 0 0 0 -0.457707,-1.80227 z m 49.456672,0 a 1.0020269,1.0020269 0 0 0 -0.4577,1.80227 c 2.4227,1.8236 3.85368,4.67202 3.87047,7.70431 0.0167,3.03229 -1.38287,5.89619 -3.78524,7.74651 a 1.0021808,1.0021808 0 1 0 1.22311,1.5879 c 2.89666,-2.23103 4.5858,-5.68929 4.56556,-9.34549 -0.0128,-2.28513 -0.69194,-4.48551 -1.91307,-6.35122 -0.18318,-0.27986 -0.37888,-0.55215 -0.58599,-0.81612 -0.62134,-0.79189 -1.34848,-1.5086 -2.17007,-2.12701 a 1.0020269,1.0020269 0 0 0 -0.74707,-0.20115 z m -48.257002,3.87985 a 0.92406555,0.92406555 0 0 0 -0.646074,0.29789 c -0.175573,0.18722 -0.340539,0.38103 -0.494785,0.58045 -0.154247,0.1994 -0.297958,0.40449 -0.430857,0.61454 -1.860592,2.94059 -1.627368,6.84484 0.737274,9.55048 a 0.92406555,0.92406555 0 1 0 1.391447,-1.21587 c -2.087954,-2.38903 -2.025495,-5.95075 0.144899,-8.26515 a 0.92406555,0.92406555 0 0 0 -0.701904,-1.56234 z m 47.057332,0 a 0.92406555,0.92406555 0 0 0 -0.70191,1.56234 c 2.1704,2.3144 2.23286,5.87612 0.14491,8.26515 a 0.92406555,0.92406555 0 1 0 1.39144,1.21587 c 2.36464,-2.70564 2.59787,-6.60989 0.73728,-9.55048 -0.13291,-0.21005 -0.27661,-0.41514 -0.43086,-0.61454 -0.15424,-0.19942 -0.31921,-0.39323 -0.49478,-0.58045 a 0.92406555,0.92406555 0 0 0 -0.64608,-0.29789 z m -41.118218,3.78141 c 0.990828,0 1.747298,0.75575 1.747298,1.68977 0,0.93402 -0.75647,1.69104 -1.747298,1.69104 -0.990829,0 -1.74943,-0.75702 -1.74943,-1.69104 0,-0.93402 0.758601,-1.68977 1.74943,-1.68977 z m 35.060628,0 c 0.99082,0 1.7473,0.75575 1.7473,1.68977 0,0.93402 -0.75648,1.69104 -1.7473,1.69104 -0.99082,0 -1.74943,-0.75702 -1.74943,-1.69104 0,-0.93402 0.75861,-1.68977 1.74943,-1.68977 z m -17.53138,9.47249 c 0.99084,0 1.74943,0.75576 1.74943,1.68978 0,0.93401 -0.75859,1.69104 -1.74943,1.69104 -0.99082,0 -1.74772,-0.75703 -1.74772,-1.69104 0,-0.93402 0.7569,-1.68978 1.74772,-1.68978 z" />
    <g
       id="signal"
       transform="matrix(0.04396469,-0.07810779,0.07810779,0.04396469,39.343315,239.11202)"
       style="filter:url(#filter13929)" />
    <g
       id="g1061"
       transform="matrix(0.37671708,0,0,0.37671708,70.802815,103.43348)"
       style="fill:#000000;fill-opacity:0.997682" />
    <g
       id="g4081"
       transform="matrix(-0.04396469,-0.07810779,-0.07810779,0.04396469,190.1583,239.11202)"
       style="filter:url(#filter13929)" />
    <g
       id="g4085"
       transform="matrix(-0.04118057,0.0521485,0.0521485,0.04118057,115.44339,118.85998)"
       style="filter:url(#filter13929)" />
  </g>
</svg>
