<?xml version="1.0" encoding="UTF-8" standalone="no"?>
<!-- Created with Inkscape (http://www.inkscape.org/) -->

<svg
   width="1200"
   height="1200"
   viewBox="0 0 1200 1200"
   version="1.1"
   id="svg7395"
   inkscape:version="1.1.2 (1:1.1+202202050950+0a00cf5339)"
   sodipodi:docname="letter-mensaje.svg"
   xmlns:inkscape="http://www.inkscape.org/namespaces/inkscape"
   xmlns:sodipodi="http://sodipodi.sourceforge.net/DTD/sodipodi-0.dtd"
   xmlns="http://www.w3.org/2000/svg"
   xmlns:svg="http://www.w3.org/2000/svg">
  <sodipodi:namedview
     id="namedview7397"
     pagecolor="#ffffff"
     bordercolor="#666666"
     borderopacity="1.0"
     inkscape:pageshadow="2"
     inkscape:pageopacity="0.0"
     inkscape:pagecheckerboard="0"
     inkscape:document-units="px"
     showgrid="false"
     units="px"
     showguides="true"
     inkscape:guide-bbox="true"
     inkscape:snap-bbox="true"
     inkscape:bbox-paths="true"
     inkscape:bbox-nodes="true"
     inkscape:snap-bbox-edge-midpoints="true"
     inkscape:snap-bbox-midpoints="true"
     inkscape:zoom="0.38740583"
     inkscape:cx="449.14141"
     inkscape:cy="618.21475"
     inkscape:window-width="1600"
     inkscape:window-height="840"
     inkscape:window-x="0"
     inkscape:window-y="0"
     inkscape:window-maximized="1"
     inkscape:current-layer="layer1" />
  <defs
     id="defs7392" />
  <g
     inkscape:label="Capa 1"
     inkscape:groupmode="layer"
     id="layer1">
    <path
       id="rect7478"
       style="color:#000000;fill:#000000;stroke-linecap:round;-inkscape-stroke:none;paint-order:markers stroke fill"
       d="m 295,367.5 c -39.77577,0 -72.5,32.72423 -72.5,72.5 v 320 c 0,39.77577 32.72423,72.5 72.5,72.5 h 610 c 39.77577,0 72.5,-32.72423 72.5,-72.5 V 440 c 0,-39.77577 -32.72423,-72.5 -72.5,-72.5 z m 27.31641,45 H 877.68359 L 600,576.76367 Z m -52.1836,15.60547 319.6836,189.10742 a 20.002,20.002 0 0 0 20.36718,0 L 929.86719,428.10547 C 931.51545,431.68418 932.5,435.6741 932.5,440 v 320 c 0,15.62417 -11.87583,27.5 -27.5,27.5 H 295 c -15.62417,0 -27.5,-11.87583 -27.5,-27.5 V 440 c 0,-4.3259 0.98455,-8.31582 2.63281,-11.89453 z" />
  </g>
</svg>
