<?xml version="1.0" encoding="UTF-8" standalone="no"?>
<!-- Created with Inkscape (http://www.inkscape.org/) -->

<svg
   width="1200"
   height="1200"
   viewBox="0 0 1200 1200"
   version="1.1"
   id="svg5"
   xml:space="preserve"
   inkscape:version="1.2.2 (1:1.2.2+202212051552+b0a8486541)"
   sodipodi:docname="low-freq.svg"
   xmlns:inkscape="http://www.inkscape.org/namespaces/inkscape"
   xmlns:sodipodi="http://sodipodi.sourceforge.net/DTD/sodipodi-0.dtd"
   xmlns="http://www.w3.org/2000/svg"
   xmlns:svg="http://www.w3.org/2000/svg"><sodipodi:namedview
     id="namedview7"
     pagecolor="#ffffff"
     bordercolor="#000000"
     borderopacity="0.25"
     inkscape:showpageshadow="2"
     inkscape:pageopacity="0.0"
     inkscape:pagecheckerboard="0"
     inkscape:deskcolor="#d1d1d1"
     inkscape:document-units="px"
     showgrid="false"
     showguides="false"
     inkscape:zoom="0.4204826"
     inkscape:cx="538.66676"
     inkscape:cy="588.60937"
     inkscape:window-width="1920"
     inkscape:window-height="1029"
     inkscape:window-x="0"
     inkscape:window-y="0"
     inkscape:window-maximized="1"
     inkscape:current-layer="layer1"><sodipodi:guide
       position="600,1138.2119"
       orientation="1,0"
       id="guide3799"
       inkscape:locked="false" /></sodipodi:namedview><defs
     id="defs2"><rect
       x="-788.28979"
       y="487.66901"
       width="1047.2668"
       height="844.36262"
       id="rect5341" /><clipPath
       id="ZPsepLvTvXRR"><path
         fill="none"
         stroke="none"
         d=" M 0 0 L 986 0 L 986 705 L 0 705 L 0 0 Z"
         id="path10538" /></clipPath><rect
       x="-788.28979"
       y="487.66901"
       width="98.483204"
       height="89.141"
       id="rect6331" /></defs><g
     inkscape:label="Capa 1"
     inkscape:groupmode="layer"
     id="layer1"><path
       style="fill:none;stroke:#ababab;stroke-width:10;stroke-linecap:round;stroke-linejoin:round;stroke-dasharray:none;stroke-opacity:1;paint-order:stroke fill markers"
       d="M 1138.2119,600.00002 H 61.788123"
       id="path4559" /><path
       style="fill:none;stroke:#ababab;stroke-width:10;stroke-linecap:round;stroke-linejoin:round;stroke-dasharray:none;stroke-opacity:1;paint-order:stroke fill markers"
       d="M 600,61.788147 V 1138.2119"
       id="path3801" /><circle
       style="fill:none;stroke:#000000;stroke-width:35;stroke-linecap:round;stroke-linejoin:round;paint-order:stroke fill markers;stroke-dasharray:none"
       id="path234"
       cx="600"
       cy="600"
       r="538.21185" /><path
       fill="none"
       stroke="#2e7d32"
       paint-order="fill stroke markers"
       d="m 61.412898,604.29616 4.20778,-0.073 2.103767,-0.35782 2.103852,-0.55578 4.20778,-1.60967 4.207627,-2.05143 4.207737,-2.16906 4.207738,-1.94398 4.20766,-1.41174 4.207739,-0.65644 2.103889,-0.008 2.103889,0.20989 4.207624,1.02956 4.20774,1.69391 4.20766,2.0906 4.20774,2.15698 4.20773,1.88253 4.20766,1.31069 2.10389,0.37162 2.10385,0.16009 4.20778,-0.33126 2.10373,-0.47813 2.10389,-0.66377 4.20774,-1.77211 4.20766,-2.12231 4.20774,-2.13721 4.20778,-1.81442 4.20762,-1.20494 2.10389,-0.3097 2.10389,-0.0954 4.20774,0.45877 2.10377,0.53585 2.10389,0.71429 4.20774,1.84401 4.20766,2.14649 4.20773,2.10984 4.20774,1.73982 4.20766,1.09493 2.10385,0.24669 2.10389,0.0303 4.2077,-0.58466 4.20771,-1.35396 4.20772,-1.90932 4.20771,-2.16302 4.20771,-2.07495 4.20771,-1.65904 4.20772,-0.98101 2.10386,-0.1828 2.10385,0.0348 4.2077,0.70845 4.20772,1.45294 4.20771,1.96786 4.20771,2.17184 4.20772,2.03269 4.20771,1.57235 4.20771,0.86359 2.10386,0.11827 2.10386,-0.0999 4.2077,-0.82973 4.20772,-1.54675 4.20772,-2.01938 4.2077,-2.17295 4.20771,-1.98318 4.20772,-1.48006 4.20771,-0.74311 2.10385,-0.0533 2.10386,0.16457 4.2077,0.94806 4.20773,1.63508 4.2077,2.06371 4.20771,2.16631 4.20771,1.92661 4.20772,1.3825 4.20771,0.61998 2.10385,-0.0119 2.10386,-0.22868 4.20771,-1.06301 4.20772,-1.71754 4.2077,-2.10071 4.20772,-2.15197 4.20771,-1.86317 4.20771,-1.28004 2.10386,-0.35353 2.10386,-0.14111 4.2077,0.36891 2.10386,0.49531 2.10386,0.67889 4.2077,1.79391 4.20772,2.13023 4.20771,2.12994 4.20771,1.79313 4.20771,1.173 2.10386,0.29128 2.10386,0.0762 4.2077,-0.49599 2.10386,-0.55247 2.10385,-0.7287 4.20772,-1.86392 4.20772,-2.15215 4.2077,-2.10034 4.20771,-1.71669 4.20772,-1.0618 2.10386,-0.22799 2.10385,-0.0111 4.20771,0.62131 4.2077,1.38359 4.20772,1.92727 4.20772,2.16642 4.2077,2.06326 4.20772,1.63415 4.20771,0.94681 2.10386,0.16387 2.10385,-0.054 4.20772,-0.74443 4.2077,-1.4811 4.20771,-1.98374 4.20772,-2.17297 4.20771,-2.01887 4.20771,-1.54576 4.20772,-0.82845 2.10385,-0.0992 2.10386,0.11895 4.20771,0.86488 4.20772,1.57333 4.2077,2.03319 4.20772,2.17178 4.20771,1.96726 4.20771,1.4519 4.20772,0.70714 2.10385,0.0341 2.10386,-0.1835 4.2077,-0.98225 4.20771,-1.65995 4.20771,-2.07537 4.20772,-2.16289 4.20771,-1.90865 4.2077,-1.35285 4.20773,-0.58332 2.10385,0.031 2.10386,0.2474 4.20771,1.09612 4.2077,1.74066 4.20771,2.11018 4.20773,2.14627 4.2077,1.84325 4.20772,1.249 2.10384,0.33534 2.10387,0.12207 4.20771,-0.40647 2.10386,-0.51231 2.10386,-0.6938 4.2077,-1.81519 4.20771,-2.13746 4.20772,-2.12202 4.20771,-1.77129 4.20771,-1.1407 2.10385,-0.27275 2.10385,-0.0571 4.20772,0.53307 2.10385,0.56893 2.10386,0.74286 4.20771,1.88324 4.20771,2.15716 4.20772,2.0902 4.20771,1.69302 4.20771,1.02834 2.10386,0.20921 2.10385,-0.008 4.20772,-0.65779 4.2077,-1.41281 4.20772,-1.9446 4.20771,-2.16915 4.20771,-2.05097 4.20772,-1.60872 4.2077,-0.91231 2.10386,-0.1449 2.10386,0.0732 4.20772,0.78015 4.2077,1.5088 4.20771,1.99903 4.20771,2.17343 4.20773,2.00442 4.2077,1.51871 4.2077,0.79304 2.10386,0.0801 2.10385,-0.138 4.20773,-0.89974 4.20771,-1.59941 4.2077,-2.04636 4.20771,-2.16997 4.20772,-1.95073 4.20771,-1.42328 4.20772,-0.67095 2.10384,-0.015 2.10386,0.20236 4.20771,1.01615 4.20772,1.68432 4.20771,2.08639 4.20771,2.15879 4.20771,1.8901 4.20771,1.3228 2.10386,0.3788 2.10386,0.16765 4.2077,-0.31621 2.10387,-0.47123 2.10385,-0.65767 4.20771,-1.76326 4.20771,-2.11898 4.20771,-2.13993 4.20772,-1.82275 4.20771,-1.21757 2.10384,-0.31705 2.10387,-0.10302 4.2077,0.44387 2.10387,0.52918 2.10386,0.7085 4.2077,1.83589 4.20771,2.14405 4.20771,2.11343 4.20773,1.74892 4.2077,1.10804 2.10385,0.25414 2.10385,0.0379 4.2077,-0.56998 4.20774,-1.34202 4.2077,-1.90199 4.2077,-2.16149 4.20773,-2.07942 4.20771,-1.66885 4.20769,-0.99457 2.10385,-0.19034 2.10386,0.0272 4.20773,0.69405 4.2077,1.44159 4.2077,1.96134 4.20774,2.1712 4.2077,2.03804 4.2077,1.58282 4.20774,0.87754 2.10385,0.12586 2.10385,-0.0923 4.20769,-0.81564 4.20775,-1.53602 4.2077,-2.01371 4.2077,-2.17322 4.20769,-1.98936 4.20778,-1.49117 4.2077,-0.7574 2.10385,-0.0609 2.10385,0.157 4.2077,0.93434 4.2077,1.62499 4.2077,2.0589 4.20778,2.16749 4.2077,1.93361 4.2077,1.39422 4.20778,0.63455 2.10385,-0.004 2.10384,-0.22119 4.20771,-1.04971 4.20769,-1.70817 4.20769,-2.09676 4.2077,-2.15404 4.2077,-1.87097 4.2078,-1.29232 2.1038,-0.36076 2.1039,-0.14868 4.2077,0.35391 2.1038,0.48846 2.1039,0.67288 4.2077,1.78528 4.2077,2.12716 4.2078,2.13291 4.2077,1.8017 4.2077,1.18578 2.1038,0.29864 2.1039,0.0839 4.2076,-0.48117 2.1039,-0.54586 2.1038,-0.72297 4.2078,-1.85605 4.2078,-2.14996 4.2077,-2.10422 4.2076,-1.72598 4.2077,-1.07505 2.1039,-0.23547 2.1038,-0.0188 4.2077,0.60671 4.2078,1.37181 4.2078,1.92018 4.2076,2.16514 4.2077,2.06802 4.2077,1.64414 4.2077,0.96048 2.1038,0.17144 2.104,-0.0463 4.2077,-0.7301 4.2077,-1.4699 4.2077,-1.97749 4.2077,-2.17237"
       stroke-opacity="0.8"
       stroke-linecap="round"
       stroke-linejoin="round"
       stroke-miterlimit="10"
       stroke-width="2.73118"
       id="path10763"
       style="stroke:#000000;stroke-opacity:1;stroke-width:5;stroke-dasharray:none" /><path
       fill="none"
       stroke="#2e7d32"
       paint-order="fill stroke markers"
       d="m 61.412898,577.06022 4.20778,-0.073 2.103767,-0.35782 2.103852,-0.55578 4.20778,-1.60967 4.207627,-2.05143 4.207737,-2.16906 4.207738,-1.94398 4.20766,-1.41174 4.207739,-0.65644 2.103889,-0.008 2.103889,0.20989 4.207624,1.02956 4.20774,1.69391 4.20766,2.0906 4.20774,2.15698 4.20773,1.88253 4.20766,1.31069 2.10389,0.37162 2.10385,0.16009 4.20778,-0.33126 2.10373,-0.47813 2.10389,-0.66377 4.20774,-1.77211 4.20766,-2.12231 4.20774,-2.13721 4.20778,-1.81442 4.20762,-1.20494 2.10389,-0.3097 2.10389,-0.0954 4.20774,0.45877 2.10377,0.53585 2.10389,0.71429 4.20774,1.84401 4.20766,2.14649 4.20773,2.10984 4.20774,1.73982 4.20766,1.09493 2.10385,0.24669 2.10389,0.0303 4.2077,-0.58466 4.20771,-1.35396 4.20772,-1.90932 4.20771,-2.16302 4.20771,-2.07495 4.20771,-1.65904 4.20772,-0.98101 2.10386,-0.1828 2.10385,0.0348 4.2077,0.70845 4.20772,1.45294 4.20771,1.96786 4.20771,2.17184 4.20772,2.03269 4.20771,1.57235 4.20771,0.86359 2.10386,0.11827 2.10386,-0.0999 4.2077,-0.82973 4.20772,-1.54675 4.20772,-2.01938 4.2077,-2.17295 4.20771,-1.98318 4.20772,-1.48006 4.20771,-0.74311 2.10385,-0.0533 2.10386,0.16457 4.2077,0.94806 4.20773,1.63508 4.2077,2.06371 4.20771,2.16631 4.20771,1.92661 4.20772,1.3825 4.20771,0.61998 2.10385,-0.0119 2.10386,-0.22868 4.20771,-1.06301 4.20772,-1.71754 4.2077,-2.10071 4.20772,-2.15197 4.20771,-1.86317 4.20771,-1.28004 2.10386,-0.35353 2.10386,-0.14111 4.2077,0.36891 2.10386,0.49531 2.10386,0.67889 4.2077,1.79391 4.20772,2.13023 4.20771,2.12994 4.20771,1.79313 4.20771,1.173 2.10386,0.29128 2.10386,0.0762 4.2077,-0.49599 2.10386,-0.55247 2.10385,-0.7287 4.20772,-1.86392 4.20772,-2.15215 4.2077,-2.10034 4.20771,-1.71669 4.20772,-1.0618 2.10386,-0.22799 2.10385,-0.0111 4.20771,0.62131 4.2077,1.38359 4.20772,1.92727 4.20772,2.16642 4.2077,2.06326 4.20772,1.63415 4.20771,0.94681 2.10386,0.16387 2.10385,-0.054 4.20772,-0.74443 4.2077,-1.4811 4.20771,-1.98374 4.20772,-2.17297 4.20771,-2.01887 4.20771,-1.54576 4.20772,-0.82845 2.10385,-0.0992 2.10386,0.11895 4.20771,0.86488 4.20772,1.57333 4.2077,2.03319 4.20772,2.17178 4.20771,1.96726 4.20771,1.4519 4.20772,0.70714 2.10385,0.0341 2.10386,-0.1835 4.2077,-0.98225 4.20771,-1.65995 4.20771,-2.07537 4.20772,-2.16289 4.20771,-1.90865 4.2077,-1.35285 4.20773,-0.58332 2.10385,0.031 2.10386,0.2474 4.20771,1.09612 4.2077,1.74066 4.20771,2.11018 4.20773,2.14627 4.2077,1.84325 4.20772,1.249 2.10384,0.33534 2.10387,0.12207 4.20771,-0.40647 2.10386,-0.51231 2.10386,-0.6938 4.2077,-1.81519 4.20771,-2.13746 4.20772,-2.12202 4.20771,-1.77129 4.20771,-1.1407 2.10385,-0.27275 2.10385,-0.0571 4.20772,0.53307 2.10385,0.56893 2.10386,0.74286 4.20771,1.88324 4.20771,2.15716 4.20772,2.0902 4.20771,1.69302 4.20771,1.02834 2.10386,0.20921 2.10385,-0.008 4.20772,-0.65779 4.2077,-1.41281 4.20772,-1.9446 4.20771,-2.16915 4.20771,-2.05097 4.20772,-1.60872 4.2077,-0.91231 2.10386,-0.1449 2.10386,0.0732 4.20772,0.78015 4.2077,1.5088 4.20771,1.99903 4.20771,2.17343 4.20773,2.00442 4.2077,1.51871 4.2077,0.79304 2.10386,0.0801 2.10385,-0.138 4.20773,-0.89974 4.20771,-1.59941 4.2077,-2.04636 4.20771,-2.16997 4.20772,-1.95073 4.20771,-1.42328 4.20772,-0.67095 2.10384,-0.015 2.10386,0.20236 4.20771,1.01615 4.20772,1.68432 4.20771,2.08639 4.20771,2.15879 4.20771,1.8901 4.20771,1.3228 2.10386,0.3788 2.10386,0.16765 4.2077,-0.31621 2.10387,-0.47123 2.10385,-0.65767 4.20771,-1.76326 4.20771,-2.11898 4.20771,-2.13993 4.20772,-1.82275 4.20771,-1.21757 2.10384,-0.31705 2.10387,-0.10302 4.2077,0.44387 2.10387,0.52918 2.10386,0.7085 4.2077,1.83589 4.20771,2.14405 4.20771,2.11343 4.20773,1.74892 4.2077,1.10804 2.10385,0.25414 2.10385,0.0379 4.2077,-0.56998 4.20774,-1.34202 4.2077,-1.90199 4.2077,-2.16149 4.20773,-2.07942 4.20771,-1.66885 4.20769,-0.99457 2.10385,-0.19034 2.10386,0.0272 4.20773,0.69405 4.2077,1.44159 4.2077,1.96134 4.20774,2.1712 4.2077,2.03804 4.2077,1.58282 4.20774,0.87754 2.10385,0.12586 2.10385,-0.0923 4.20769,-0.81564 4.20775,-1.53602 4.2077,-2.01371 4.2077,-2.17322 4.20769,-1.98936 4.20778,-1.49117 4.2077,-0.7574 2.10385,-0.0609 2.10385,0.157 4.2077,0.93434 4.2077,1.62499 4.2077,2.0589 4.20778,2.16749 4.2077,1.93361 4.2077,1.39422 4.20778,0.63455 2.10385,-0.004 2.10384,-0.22119 4.20771,-1.04971 4.20769,-1.70817 4.20769,-2.09676 4.2077,-2.15404 4.2077,-1.87097 4.2078,-1.29232 2.1038,-0.36076 2.1039,-0.14868 4.2077,0.35391 2.1038,0.48846 2.1039,0.67288 4.2077,1.78528 4.2077,2.12716 4.2078,2.13291 4.2077,1.8017 4.2077,1.18578 2.1038,0.29864 2.1039,0.0839 4.2076,-0.48117 2.1039,-0.54586 2.1038,-0.72297 4.2078,-1.85605 4.2078,-2.14996 4.2077,-2.10422 4.2076,-1.72598 4.2077,-1.07505 2.1039,-0.23547 2.1038,-0.0188 4.2077,0.60671 4.2078,1.37181 4.2078,1.92018 4.2076,2.16514 4.2077,2.06802 4.2077,1.64414 4.2077,0.96048 2.1038,0.17144 2.104,-0.0463 4.2077,-0.7301 4.2077,-1.4699 4.2077,-1.97749 4.2077,-2.17237"
       stroke-opacity="0.8"
       stroke-linecap="round"
       stroke-linejoin="round"
       stroke-miterlimit="10"
       stroke-width="2.73118"
       id="path3791"
       style="stroke:#000000;stroke-opacity:1;stroke-width:5;stroke-dasharray:none" /><path
       fill="none"
       stroke="#2e7d32"
       paint-order="fill stroke markers"
       d="m 61.412899,631.5321 4.20778,-0.073 2.103767,-0.35782 2.103852,-0.55578 4.20778,-1.60967 4.207627,-2.05143 4.207737,-2.16906 4.207738,-1.94398 4.20766,-1.41174 4.207739,-0.65644 2.103889,-0.008 2.103889,0.20989 4.207623,1.02956 4.20774,1.69391 4.20766,2.0906 4.20774,2.15698 4.20773,1.88253 4.20766,1.31069 2.10389,0.37162 2.10385,0.16009 4.20778,-0.33126 2.10373,-0.47813 2.10389,-0.66377 4.20774,-1.77211 4.20766,-2.12231 4.20774,-2.13721 4.20778,-1.81442 4.20762,-1.20494 2.10389,-0.3097 2.10389,-0.0954 4.20774,0.45877 2.10377,0.53585 2.10389,0.71429 4.20774,1.84401 4.20766,2.14649 4.20773,2.10984 4.20774,1.73982 4.20766,1.09493 2.10385,0.24669 2.10389,0.0303 4.2077,-0.58466 4.20771,-1.35396 4.20772,-1.90932 4.20771,-2.16302 4.20771,-2.07495 4.20771,-1.65904 4.20772,-0.98101 2.10386,-0.1828 2.10385,0.0348 4.2077,0.70845 4.20772,1.45294 4.20771,1.96786 4.20771,2.17184 4.20772,2.03269 4.20771,1.57235 4.20771,0.86359 2.10386,0.11827 2.10386,-0.0999 4.2077,-0.82973 4.20772,-1.54675 4.20772,-2.01938 4.2077,-2.17295 4.20771,-1.98318 4.20772,-1.48006 4.20771,-0.74311 2.10385,-0.0533 2.10386,0.16457 4.2077,0.94806 4.20773,1.63508 4.2077,2.06371 4.20771,2.16631 4.20771,1.92661 4.20772,1.3825 4.20771,0.61998 2.10385,-0.0119 2.10386,-0.22868 4.20771,-1.06301 4.20772,-1.71754 4.2077,-2.10071 4.20772,-2.15197 4.20771,-1.86317 4.20771,-1.28004 2.10386,-0.35353 2.10386,-0.14111 4.2077,0.36891 2.10386,0.49531 2.10386,0.67889 4.2077,1.79391 4.20772,2.13023 4.20771,2.12994 4.20771,1.79313 4.20771,1.173 2.10386,0.29128 2.10386,0.0762 4.2077,-0.49599 2.10386,-0.55247 2.10385,-0.7287 4.20772,-1.86392 4.20772,-2.15215 4.2077,-2.10034 4.20771,-1.71669 4.20772,-1.0618 2.10386,-0.22799 2.10385,-0.0111 4.20771,0.62131 4.2077,1.38359 4.20772,1.92727 4.20772,2.16642 4.2077,2.06326 4.20772,1.63415 4.20771,0.94681 2.10386,0.16387 2.10385,-0.054 4.20772,-0.74443 4.2077,-1.4811 4.20771,-1.98374 4.20772,-2.17297 4.20771,-2.01887 4.20771,-1.54576 4.20772,-0.82845 2.10385,-0.0992 2.10386,0.11895 4.20771,0.86488 4.20772,1.57333 4.2077,2.03319 4.20772,2.17178 4.20771,1.96726 4.20771,1.4519 4.20772,0.70714 2.10385,0.0341 2.10386,-0.1835 4.2077,-0.98225 4.20771,-1.65995 4.20771,-2.07537 4.20772,-2.16289 4.20771,-1.90865 4.2077,-1.35285 4.20773,-0.58332 2.10385,0.031 2.10386,0.2474 4.20771,1.09612 4.2077,1.74066 4.20771,2.11018 4.20773,2.14627 4.2077,1.84325 4.20772,1.249 2.10384,0.33534 2.10387,0.12207 4.20771,-0.40647 2.10386,-0.51231 2.10386,-0.6938 4.2077,-1.81519 4.20771,-2.13746 4.20772,-2.12202 4.20771,-1.77129 4.20771,-1.1407 2.10385,-0.27275 2.10385,-0.0571 4.20772,0.53307 2.10385,0.56893 2.10386,0.74286 4.20771,1.88324 4.20771,2.15716 4.20772,2.0902 4.20771,1.69302 4.20771,1.02834 2.10386,0.20921 2.10385,-0.008 4.20772,-0.65779 4.2077,-1.41281 4.20772,-1.9446 4.20771,-2.16915 4.20771,-2.05097 4.20772,-1.60872 4.2077,-0.91231 2.10386,-0.1449 2.10386,0.0732 4.20772,0.78015 4.2077,1.5088 4.20771,1.99903 4.20771,2.17343 4.20773,2.00442 4.2077,1.51871 4.2077,0.79304 2.10386,0.0801 2.10385,-0.138 4.20773,-0.89974 4.20771,-1.59941 4.2077,-2.04636 4.20771,-2.16997 4.20772,-1.95073 4.20771,-1.42328 4.20772,-0.67095 2.10384,-0.015 2.10386,0.20236 4.20771,1.01615 4.20772,1.68432 4.20771,2.08639 4.20771,2.15879 4.20771,1.8901 4.20771,1.3228 2.10386,0.3788 2.10386,0.16765 4.2077,-0.31621 2.10387,-0.47123 2.10385,-0.65767 4.20771,-1.76326 4.20771,-2.11898 4.20771,-2.13993 4.20772,-1.82275 4.20771,-1.21757 2.10384,-0.31705 2.10387,-0.10302 4.2077,0.44387 2.10387,0.52918 2.10386,0.7085 4.2077,1.83589 4.20771,2.14405 4.20771,2.11343 4.20773,1.74892 4.2077,1.10804 2.10385,0.25414 2.10385,0.0379 4.2077,-0.56998 4.20774,-1.34202 4.2077,-1.90199 4.2077,-2.16149 4.20773,-2.07942 4.20771,-1.66885 4.20769,-0.99457 2.10385,-0.19034 2.10386,0.0272 4.20773,0.69405 4.2077,1.44159 4.2077,1.96134 4.20774,2.1712 4.2077,2.03804 4.2077,1.58282 4.20774,0.87754 2.10385,0.12586 2.10385,-0.0923 4.20769,-0.81564 4.20775,-1.53602 4.2077,-2.01371 4.2077,-2.17322 4.20769,-1.98936 4.20778,-1.49117 4.2077,-0.7574 2.10385,-0.0609 2.10385,0.157 4.2077,0.93434 4.2077,1.62499 4.2077,2.0589 4.20778,2.16749 4.2077,1.93361 4.2077,1.39422 4.20778,0.63455 2.10385,-0.004 2.10384,-0.22119 4.20771,-1.04971 4.20769,-1.70817 4.20769,-2.09676 4.2077,-2.15404 4.2077,-1.87097 4.2078,-1.29232 2.1038,-0.36076 2.1039,-0.14868 4.2077,0.35391 2.1038,0.48846 2.1039,0.67288 4.2077,1.78528 4.2077,2.12716 4.2078,2.13291 4.2077,1.8017 4.2077,1.18578 2.1038,0.29864 2.1039,0.0839 4.2076,-0.48117 2.1039,-0.54586 2.1038,-0.72297 4.2078,-1.85605 4.2078,-2.14996 4.2077,-2.10422 4.2076,-1.72598 4.2077,-1.07505 2.1039,-0.23547 2.1038,-0.0188 4.2077,0.60671 4.2078,1.37181 4.2078,1.92018 4.2076,2.16514 4.2077,2.06802 4.2077,1.64414 4.2077,0.96048 2.1038,0.17144 2.104,-0.0463 4.2077,-0.7301 4.2077,-1.4699 4.2077,-1.97749 4.2077,-2.17237"
       stroke-opacity="0.8"
       stroke-linecap="round"
       stroke-linejoin="round"
       stroke-miterlimit="10"
       stroke-width="2.73118"
       id="path3793"
       style="stroke:#000000;stroke-opacity:1;stroke-width:5;stroke-dasharray:none" /><path
       fill="none"
       stroke="#2e7d32"
       paint-order="fill stroke markers"
       d="m 61.412899,658.76804 4.20778,-0.073 2.103767,-0.35782 2.103852,-0.55578 4.20778,-1.60967 4.207627,-2.05143 4.207737,-2.16906 4.207738,-1.94398 4.20766,-1.41174 4.207739,-0.65644 2.103889,-0.008 2.103889,0.20989 4.207623,1.02956 4.20774,1.69391 4.20766,2.0906 4.20774,2.15698 4.20773,1.88253 4.20766,1.31069 2.10389,0.37162 2.10385,0.16009 4.20778,-0.33126 2.10373,-0.47813 2.10389,-0.66377 4.20774,-1.77211 4.20766,-2.12231 4.20774,-2.13721 4.20778,-1.81442 4.20762,-1.20494 2.10389,-0.3097 2.10389,-0.0954 4.20774,0.45877 2.10377,0.53585 2.10389,0.71429 4.20774,1.84401 4.20766,2.14649 4.20773,2.10984 4.20774,1.73982 4.20766,1.09493 2.10385,0.24669 2.10389,0.0303 4.2077,-0.58466 4.20771,-1.35396 4.20772,-1.90932 4.20771,-2.16302 4.20771,-2.07495 4.20771,-1.65904 4.20772,-0.98101 2.10386,-0.1828 2.10385,0.0348 4.2077,0.70845 4.20772,1.45294 4.20771,1.96786 4.20771,2.17184 4.20772,2.03269 4.20771,1.57235 4.20771,0.86359 2.10386,0.11827 2.10386,-0.0999 4.2077,-0.82973 4.20772,-1.54675 4.20772,-2.01938 4.2077,-2.17295 4.20771,-1.98318 4.20772,-1.48006 4.20771,-0.74311 2.10385,-0.0533 2.10386,0.16457 4.2077,0.94806 4.20773,1.63508 4.2077,2.06371 4.20771,2.16631 4.20771,1.92661 4.20772,1.3825 4.20771,0.61998 2.10385,-0.0119 2.10386,-0.22868 4.20771,-1.06301 4.20772,-1.71754 4.2077,-2.10071 4.20772,-2.15197 4.20771,-1.86317 4.20771,-1.28004 2.10386,-0.35353 2.10386,-0.14111 4.2077,0.36891 2.10386,0.49531 2.10386,0.67889 4.2077,1.79391 4.20772,2.13023 4.20771,2.12994 4.20771,1.79313 4.20771,1.173 2.10386,0.29128 2.10386,0.0762 4.2077,-0.49599 2.10386,-0.55247 2.10385,-0.7287 4.20772,-1.86392 4.20772,-2.15215 4.2077,-2.10034 4.20771,-1.71669 4.20772,-1.0618 2.10386,-0.22799 2.10385,-0.0111 4.20771,0.62131 4.2077,1.38359 4.20772,1.92727 4.20772,2.16642 4.2077,2.06326 4.20772,1.63415 4.20771,0.94681 2.10386,0.16387 2.10385,-0.054 4.20772,-0.74443 4.2077,-1.4811 4.20771,-1.98374 4.20772,-2.17297 4.20771,-2.01887 4.20771,-1.54576 4.20772,-0.82845 2.10385,-0.0992 2.10386,0.11895 4.20771,0.86488 4.20772,1.57333 4.2077,2.03319 4.20772,2.17178 4.20771,1.96726 4.20771,1.4519 4.20772,0.70714 2.10385,0.0341 2.10386,-0.1835 4.2077,-0.98225 4.20771,-1.65995 4.20771,-2.07537 4.20772,-2.16289 4.20771,-1.90865 4.2077,-1.35285 4.20773,-0.58332 2.10385,0.031 2.10386,0.2474 4.20771,1.09612 4.2077,1.74066 4.20771,2.11018 4.20773,2.14627 4.2077,1.84325 4.20772,1.249 2.10384,0.33534 2.10387,0.12207 4.20771,-0.40647 2.10386,-0.51231 2.10386,-0.6938 4.2077,-1.81519 4.20771,-2.13746 4.20772,-2.12202 4.20771,-1.77129 4.20771,-1.1407 2.10385,-0.27275 2.10385,-0.0571 4.20772,0.53307 2.10385,0.56893 2.10386,0.74286 4.20771,1.88324 4.20771,2.15716 4.20772,2.0902 4.20771,1.69302 4.20771,1.02834 2.10386,0.20921 2.10385,-0.008 4.20772,-0.65779 4.2077,-1.41281 4.20772,-1.9446 4.20771,-2.16915 4.20771,-2.05097 4.20772,-1.60872 4.2077,-0.91231 2.10386,-0.1449 2.10386,0.0732 4.20772,0.78015 4.2077,1.5088 4.20771,1.99903 4.20771,2.17343 4.20773,2.00442 4.2077,1.51871 4.2077,0.79304 2.10386,0.0801 2.10385,-0.138 4.20773,-0.89974 4.20771,-1.59941 4.2077,-2.04636 4.20771,-2.16997 4.20772,-1.95073 4.20771,-1.42328 4.20772,-0.67095 2.10384,-0.015 2.10386,0.20236 4.20771,1.01615 4.20772,1.68432 4.20771,2.08639 4.20771,2.15879 4.20771,1.8901 4.20771,1.3228 2.10386,0.3788 2.10386,0.16765 4.2077,-0.31621 2.10387,-0.47123 2.10385,-0.65767 4.20771,-1.76326 4.20771,-2.11898 4.20771,-2.13993 4.20772,-1.82275 4.20771,-1.21757 2.10384,-0.31705 2.10387,-0.10302 4.2077,0.44387 2.10387,0.52918 2.10386,0.7085 4.2077,1.83589 4.20771,2.14405 4.20771,2.11343 4.20773,1.74892 4.2077,1.10804 2.10385,0.25414 2.10385,0.0379 4.2077,-0.56998 4.20774,-1.34202 4.2077,-1.90199 4.2077,-2.16149 4.20773,-2.07942 4.20771,-1.66885 4.20769,-0.99457 2.10385,-0.19034 2.10386,0.0272 4.20773,0.69405 4.2077,1.44159 4.2077,1.96134 4.20774,2.1712 4.2077,2.03804 4.2077,1.58282 4.20774,0.87754 2.10385,0.12586 2.10385,-0.0923 4.20769,-0.81564 4.20775,-1.53602 4.2077,-2.01371 4.2077,-2.17322 4.20769,-1.98936 4.20778,-1.49117 4.2077,-0.7574 2.10385,-0.0609 2.10385,0.157 4.2077,0.93434 4.2077,1.62499 4.2077,2.0589 4.20778,2.16749 4.2077,1.93361 4.2077,1.39422 4.20778,0.63455 2.10385,-0.004 2.10384,-0.22119 4.20771,-1.04971 4.20769,-1.70817 4.20769,-2.09676 4.2077,-2.15404 4.2077,-1.87097 4.2078,-1.29232 2.1038,-0.36076 2.1039,-0.14868 4.2077,0.35391 2.1038,0.48846 2.1039,0.67288 4.2077,1.78528 4.2077,2.12716 4.2078,2.13291 4.2077,1.8017 4.2077,1.18578 2.1038,0.29864 2.1039,0.0839 4.2076,-0.48117 2.1039,-0.54586 2.1038,-0.72297 4.2078,-1.85605 4.2078,-2.14996 4.2077,-2.10422 4.2076,-1.72598 4.2077,-1.07505 2.1039,-0.23547 2.1038,-0.0188 4.2077,0.60671 4.2078,1.37181 4.2078,1.92018 4.2076,2.16514 4.2077,2.06802 4.2077,1.64414 4.2077,0.96048 2.1038,0.17144 2.104,-0.0463 4.2077,-0.7301 4.2077,-1.4699 4.2077,-1.97749 4.2077,-2.17237"
       stroke-opacity="0.8"
       stroke-linecap="round"
       stroke-linejoin="round"
       stroke-miterlimit="10"
       stroke-width="2.73118"
       id="path3795"
       style="stroke:#000000;stroke-opacity:1;stroke-width:5;stroke-dasharray:none" /><path
       fill="none"
       stroke="#2e7d32"
       paint-order="fill stroke markers"
       d="m 64.210172,548.43708 4.20778,-1.60967 4.207627,-2.05143 4.207737,-2.16906 4.207738,-1.94398 4.20766,-1.41174 4.207739,-0.65644 2.103889,-0.008 2.103889,0.20989 4.207623,1.02956 4.207736,1.69391 4.20766,2.0906 4.20774,2.15698 4.20773,1.88253 4.20766,1.31069 2.10389,0.37162 2.10385,0.16009 4.20778,-0.33126 2.10373,-0.47813 2.10389,-0.66377 4.20774,-1.77211 4.20766,-2.12231 4.20774,-2.13721 4.20778,-1.81442 4.20762,-1.20494 2.10389,-0.3097 2.10389,-0.0954 4.20774,0.45877 2.10377,0.53585 2.10389,0.71429 4.20774,1.84401 4.20766,2.14649 4.20773,2.10984 4.20774,1.73982 4.20766,1.09493 2.10385,0.24669 2.10389,0.0303 4.2077,-0.58466 4.20771,-1.35396 4.20772,-1.90932 4.20771,-2.16302 4.20771,-2.07495 4.20771,-1.65904 4.20772,-0.98101 2.10386,-0.1828 2.10385,0.0348 4.2077,0.70845 4.20772,1.45294 4.20771,1.96786 4.20771,2.17184 4.20772,2.03269 4.20771,1.57235 4.20771,0.86359 2.10386,0.11827 2.10386,-0.0999 4.2077,-0.82973 4.20772,-1.54675 4.20772,-2.01938 4.2077,-2.17295 4.20771,-1.98318 4.20772,-1.48006 4.20771,-0.74311 2.10385,-0.0533 2.10386,0.16457 4.2077,0.94806 4.20773,1.63508 4.2077,2.06371 4.20771,2.16631 4.20771,1.92661 4.20772,1.3825 4.20771,0.61998 2.10385,-0.0119 2.10386,-0.22868 4.20771,-1.06301 4.20772,-1.71754 4.2077,-2.10071 4.20772,-2.15197 4.20771,-1.86317 4.20771,-1.28004 2.10386,-0.35353 2.10386,-0.14111 4.2077,0.36891 2.10386,0.49531 2.10386,0.67889 4.2077,1.79391 4.20772,2.13023 4.20771,2.12994 4.20771,1.79313 4.20771,1.173 2.10386,0.29128 2.10386,0.0762 4.2077,-0.49599 2.10386,-0.55247 2.10385,-0.7287 4.20772,-1.86392 4.20772,-2.15215 4.2077,-2.10034 4.20771,-1.71669 4.20772,-1.0618 2.10386,-0.22799 2.10385,-0.0111 4.20771,0.62131 4.2077,1.38359 4.20772,1.92727 4.20772,2.16642 4.2077,2.06326 4.20772,1.63415 4.20771,0.94681 2.10386,0.16387 2.10385,-0.054 4.20772,-0.74443 4.2077,-1.4811 4.20771,-1.98374 4.20772,-2.17297 4.20771,-2.01887 4.20771,-1.54576 4.20772,-0.82845 2.10385,-0.0992 2.10386,0.11895 4.20771,0.86488 4.20772,1.57333 4.2077,2.03319 4.20772,2.17178 4.20771,1.96726 4.20771,1.4519 4.20772,0.70714 2.10385,0.0341 2.10386,-0.1835 4.2077,-0.98225 4.20771,-1.65995 4.20771,-2.07537 4.20772,-2.16289 4.20771,-1.90865 4.2077,-1.35285 4.20773,-0.58332 2.10385,0.031 2.10386,0.2474 4.20771,1.09612 4.2077,1.74066 4.20771,2.11018 4.20773,2.14627 4.2077,1.84325 4.20772,1.249 2.10384,0.33534 2.10387,0.12207 4.20771,-0.40647 2.10386,-0.51231 2.10386,-0.6938 4.2077,-1.81519 4.20771,-2.13746 4.20772,-2.12202 4.20771,-1.77129 4.20771,-1.1407 2.10385,-0.27275 2.10385,-0.0571 4.20772,0.53307 2.10385,0.56893 2.10386,0.74286 4.20771,1.88324 4.20771,2.15716 4.20772,2.0902 4.20771,1.69302 4.20771,1.02834 2.10386,0.20921 2.10385,-0.008 4.20772,-0.65779 4.2077,-1.41281 4.20772,-1.9446 4.20771,-2.16915 4.20771,-2.05097 4.20772,-1.60872 4.2077,-0.91231 2.10386,-0.1449 2.10386,0.0732 4.20772,0.78015 4.2077,1.5088 4.20771,1.99903 4.20771,2.17343 4.20773,2.00442 4.2077,1.51871 4.2077,0.79304 2.10386,0.0801 2.10385,-0.138 4.20773,-0.89974 4.20771,-1.59941 4.2077,-2.04636 4.20771,-2.16997 4.20772,-1.95073 4.20771,-1.42328 4.20772,-0.67095 2.10384,-0.015 2.10386,0.20236 4.20771,1.01615 4.20772,1.68432 4.20771,2.08639 4.20771,2.15879 4.20771,1.8901 4.20771,1.3228 2.10386,0.3788 2.10386,0.16765 4.2077,-0.31621 2.10387,-0.47123 2.10385,-0.65767 4.20771,-1.76326 4.20771,-2.11898 4.20771,-2.13993 4.20772,-1.82275 4.20771,-1.21757 2.10384,-0.31705 2.10387,-0.10302 4.2077,0.44387 2.10387,0.52918 2.10386,0.7085 4.2077,1.83589 4.20771,2.14405 4.20771,2.11343 4.20773,1.74892 4.2077,1.10804 2.10385,0.25414 2.10385,0.0379 4.2077,-0.56998 4.20774,-1.34202 4.2077,-1.90199 4.2077,-2.16149 4.20773,-2.07942 4.20771,-1.66885 4.20769,-0.99457 2.10385,-0.19034 2.10386,0.0272 4.20773,0.69405 4.2077,1.44159 4.2077,1.96134 4.20774,2.1712 4.2077,2.03804 4.2077,1.58282 4.20774,0.87754 2.10385,0.12586 2.10385,-0.0923 4.20769,-0.81564 4.20775,-1.53602 4.2077,-2.01371 4.2077,-2.17322 4.20769,-1.98936 4.20778,-1.49117 4.2077,-0.7574 2.10385,-0.0609 2.10385,0.157 4.2077,0.93434 4.2077,1.62499 4.2077,2.0589 4.20778,2.16749 4.2077,1.93361 4.2077,1.39422 4.20778,0.63455 2.10385,-0.004 2.10384,-0.22119 4.20771,-1.04971 4.20769,-1.70817 4.20769,-2.09676 4.20773,-2.15404 4.2077,-1.87097 4.2078,-1.29232 2.1038,-0.36076 2.1039,-0.14868 4.2077,0.35391 2.1038,0.48846 2.1039,0.67288 4.2077,1.78528 4.2077,2.12716 4.2078,2.13291 4.2077,1.8017 4.2077,1.18578 2.1038,0.29864 2.1039,0.0839 4.2076,-0.48117 2.1039,-0.54586 2.1038,-0.72297 4.2078,-1.85605 4.2078,-2.14996 4.2077,-2.10422 4.2076,-1.72598 4.2077,-1.07505 2.1039,-0.23547 2.1038,-0.0188 4.2077,0.60671 4.2078,1.37181 4.2078,1.92018 4.2076,2.16514 4.2077,2.06802 4.2077,1.64414 4.2077,0.96048 2.1038,0.17144 2.104,-0.0463 4.2077,-0.7301 4.2077,-1.4699 4.2077,-1.97749 4.2077,-2.17237"
       stroke-opacity="0.8"
       stroke-linecap="round"
       stroke-linejoin="round"
       stroke-miterlimit="10"
       stroke-width="2.73118"
       id="path3797"
       style="stroke:#000000;stroke-opacity:1;stroke-width:5;stroke-dasharray:none"
       sodipodi:nodetypes="ccccccccccccccccccccccccccccccccccccccccccccccccccccccccccccccccccccccccccccccccccccccccccccccccccccccccccccccccccccccccccccccccccccccccccccccccccccccccccccccccccccccccccccccccccccccccccccccccccccccccccccccccccccccccccccccccccccccccccccccccccccccccccccccccccccccccccccccccccccccccccccccccccccccccc" /><text
       xml:space="preserve"
       id="text5339"
       style="font-style:normal;font-variant:normal;font-weight:bold;font-stretch:normal;font-size:26.6667px;font-family:FreeSans;-inkscape-font-specification:'FreeSans Bold';text-align:end;white-space:pre;shape-inside:url(#rect5341);display:inline;fill:#000000;fill-opacity:1;stroke:none;stroke-width:35;stroke-linecap:round;stroke-linejoin:round;stroke-dasharray:none;stroke-opacity:1;paint-order:stroke fill markers"
       transform="matrix(9.7264185,0,0,9.7264185,-1562.9274,-4065.8691)"><tspan
         x="184.76321"
         y="512.33662"
         id="tspan6398">1MHZ</tspan></text><text
       xml:space="preserve"
       id="text6329"
       style="font-style:normal;font-variant:normal;font-weight:bold;font-stretch:normal;font-size:26.6667px;font-family:FreeSans;-inkscape-font-specification:'FreeSans Bold';text-align:center;white-space:pre;shape-inside:url(#rect6331);display:inline;fill:#000000;fill-opacity:1;stroke:none;stroke-width:35;stroke-linecap:round;stroke-linejoin:round;stroke-dasharray:none;stroke-opacity:1;paint-order:stroke fill markers"
       transform="matrix(4.9258894,0,0,4.9258894,4237.8408,-2230.1715)"
       x="-36.01334"
       y="0"><tspan
         x="-770.51454"
         y="512.33662"
         id="tspan6400">LOW
</tspan><tspan
         x="-776.39452"
         y="545.66999"
         id="tspan6402">FREQ</tspan></text></g></svg>
