<?xml version="1.0" encoding="UTF-8" standalone="no"?>
<!-- Created with Inkscape (http://www.inkscape.org/) -->

<svg
   width="1200"
   height="1200"
   viewBox="0 0 1200 1200"
   version="1.1"
   id="svg5"
   inkscape:version="1.1.2 (1:1.1+202202050950+0a00cf5339)"
   sodipodi:docname="militar-phone.svg"
   xmlns:inkscape="http://www.inkscape.org/namespaces/inkscape"
   xmlns:sodipodi="http://sodipodi.sourceforge.net/DTD/sodipodi-0.dtd"
   xmlns="http://www.w3.org/2000/svg"
   xmlns:svg="http://www.w3.org/2000/svg">
  <sodipodi:namedview
     id="namedview7"
     pagecolor="#ffffff"
     bordercolor="#666666"
     borderopacity="1.0"
     inkscape:pageshadow="2"
     inkscape:pageopacity="0.0"
     inkscape:pagecheckerboard="0"
     inkscape:document-units="px"
     showgrid="false"
     units="px"
     width="1200px"
     inkscape:zoom="0.27393729"
     inkscape:cx="412.50317"
     inkscape:cy="611.45381"
     inkscape:window-width="1600"
     inkscape:window-height="840"
     inkscape:window-x="0"
     inkscape:window-y="0"
     inkscape:window-maximized="1"
     inkscape:current-layer="layer1" />
  <defs
     id="defs2" />
  <g
     inkscape:label="Capa 1"
     inkscape:groupmode="layer"
     id="layer1">
    <path
       id="rect3088"
       style="fill:#040000;stroke-width:18.8311;paint-order:markers stroke fill"
       d="m 432.53951,100.31217 a 25.108111,25.108111 0 0 0 -25.10811,25.1081 25.108111,25.108111 0 0 0 16.57773,23.54866 v 224.79606 h -8.74616 v 197.47382 l -10.26147,1.10339 -0.0859,-0.56886 -25.19638,3.74906 c -2.94207,-2.59788 -7.16478,-6.11162 -13.01993,-9.83973 -4.66243,-2.96869 -9.86421,-5.77695 -15.7882,-7.20387 -1.48099,-0.35674 -3.07485,-0.61049 -4.72493,-0.71108 -4.95024,-0.30173 -10.40492,0.76549 -14.80741,4.4871 -3.32206,2.80826 -5.38033,7.25217 -5.70817,11.1172 -0.32785,3.86503 0.51617,7.1438 1.59132,10.14378 2.15029,5.99996 5.55583,11.33364 8.60149,16.4257 3.04566,5.09207 5.6966,9.95962 6.52712,12.69627 0.17885,0.58931 0.11537,0.45742 0.15693,0.76992 -0.49434,-0.0643 -1.26398,-0.26014 -2.75601,-0.85819 -1.36717,-0.54799 -3.06437,-1.53518 -4.81075,-2.63586 -2.6502,-3.30276 -5.50911,-6.36963 -8.50586,-9.04039 -4.60512,-4.10417 -9.24236,-7.52726 -12.56386,-9.89858 -1.14359,-0.81643 -1.81577,-1.28787 -2.5525,-1.8071 -0.27142,-0.25109 -0.52581,-0.5053 -0.83612,-0.76746 -0.32549,-0.27499 -0.66889,-0.56423 -1.25295,-0.95627 -0.58407,-0.39204 -1.05771,-1.07492 -3.82752,-1.58151 -0.71235,-0.1303 -1.55172,-0.87396 -5.07066,0.44626 -1.75946,0.6601 -4.52141,2.75727 -5.5586,5.6199 -1.0372,2.86262 -0.45936,5.13589 -0.0196,6.3751 0.87942,2.47844 1.54162,2.79737 1.93705,3.23415 0.39543,0.43677 0.6367,0.64515 0.83857,0.82386 0.80746,0.71481 1.12767,0.908 1.62321,1.26521 0.0644,0.0464 0.1786,0.12639 0.24519,0.17409 0.88168,0.86361 2.09541,2.08997 3.63136,3.62645 3.30644,3.30758 7.77212,7.69342 12.81641,11.86751 1.93182,1.59855 4.01336,3.10281 6.10539,4.58272 0.19903,0.30214 0.56521,0.68343 0.72823,0.96607 0.75059,1.30127 1.03697,1.99601 1.16714,2.47158 -0.48387,0.0426 -0.75202,0.13271 -1.95421,-0.0172 -3.67744,-0.45836 -9.74076,-2.39073 -16.01623,-4.55575 -6.27548,-2.16502 -12.73594,-4.56253 -19.4171,-5.45072 -3.34059,-0.44409 -6.88253,-0.60115 -10.796,0.71843 -3.91348,1.31958 -7.94231,4.87094 -9.64602,9.09189 -1.42495,3.53028 -1.79636,8.07603 -0.26973,11.88957 1.52665,3.81353 4.29662,6.23797 6.78459,7.83892 4.97594,3.2019 9.90993,4.33391 14.37831,5.70572 4.09486,1.25714 7.27966,2.58374 8.84425,3.51858 -0.93022,0.35639 -1.93491,0.77434 -4.00161,1.07396 -5.45779,0.79122 -13.79624,0.68054 -22.26384,0.53942 -8.46758,-0.14111 -17.00887,-0.3757 -24.79916,1.20146 -3.89514,0.78858 -7.81198,1.97694 -11.4237,4.97994 -3.61172,3.00301 -6.14139,8.50539 -5.92394,13.53729 0.19152,4.43197 2.16752,9.32645 5.70081,12.2917 0.2523,0.21174 0.52058,0.33871 0.77727,0.52964 -2.08781,0.81192 -4.15675,1.84188 -6.12991,3.54063 -3.27524,2.81975 -5.71829,7.87497 -5.61745,12.62025 0.0889,4.18093 1.84963,8.70182 4.80586,11.62966 2.95621,2.92786 6.41872,4.25031 9.56265,4.99221 6.28785,1.4838 12.31875,1.04169 18.0244,0.77727 1.20068,-0.0556 2.22224,-0.0643 3.37144,-0.10545 -1.09536,0.24957 -2.06669,0.50543 -3.21207,0.74786 -5.43173,1.14966 -11.13208,2.14321 -16.63168,4.77152 -2.74979,1.31414 -5.72579,3.12371 -7.98849,6.60313 -2.26271,3.47942 -2.83083,8.60634 -1.65753,12.5467 1.14221,3.83593 4.321,7.88018 8.20673,9.5553 3.88572,1.67514 7.40145,1.40691 10.33992,0.88517 5.87699,-1.0435 10.82927,-3.48981 15.71464,-5.57087 4.88538,-2.08106 9.5767,-3.77577 12.06856,-4.08251 0.53295,-0.0657 0.4411,-0.019 0.71843,-0.008 -0.28497,0.68941 -0.63951,1.57567 -1.76541,3.07476 -2.83222,3.77099 -8.22212,8.84821 -13.81437,13.99335 -5.59224,5.14514 -11.38144,10.29334 -15.64107,16.34479 -2.12981,3.02573 -4.04708,6.38826 -4.62195,10.80581 -0.57489,4.41755 1.08449,9.87303 4.36694,13.36811 2.86261,3.04803 7.206,5.37987 11.56837,5.50711 4.36237,0.12723 7.90306,-1.52485 10.63661,-3.32487 5.46714,-3.60002 9.14022,-8.35097 12.81643,-12.70117 2.70888,-3.20553 5.15655,-5.83067 7.18915,-7.76536 -1.52705,4.04215 -4.89026,9.92157 -8.53283,15.95983 -3.75596,6.22621 -7.72806,12.48212 -10.09229,19.14983 -1.1821,3.33387 -2.13625,6.92182 -1.43685,11.30356 0.6994,4.38174 4.15723,9.184 8.3661,11.29129 3.6022,1.80352 8.57267,2.50374 12.69873,0.868 2.81454,-1.11582 4.65153,-2.89671 6.16424,-4.74946 -1.3633,4.61531 -2.5391,9.2463 -2.92766,13.89038 -0.31733,3.79273 -0.26248,7.82921 1.77277,12.07102 2.03527,4.24181 6.82616,7.85501 11.61251,8.80255 4.57006,0.90473 10.2109,-0.28394 13.78249,-3.35919 0.005,-0.005 0.009,-0.01 0.0147,-0.0147 0.12039,0.22818 0.11148,0.44531 0.24519,0.67429 2.35347,4.02928 7.44089,7.05568 12.09555,7.53244 4.5824,0.46935 9.98937,-1.27096 13.20136,-4.54594 3.212,-3.27499 4.45387,-7.00226 5.21778,-10.48706 1.52783,-6.96957 1.15937,-14.19016 0.92195,-21.27079 -0.23744,-7.08062 -0.42276,-13.97265 0.15201,-17.95818 0.0226,-0.15695 0.0334,-0.0893 0.0589,-0.23539 0.0241,0.0321 0.0166,0.0181 0.0417,0.0515 1.43733,1.91094 3.16994,5.80282 4.37921,10.00892 2.41854,8.4122 3.11889,17.56097 3.11889,17.56097 l 0.64733,9.30029 19.1572,-1.14507 v 167.38563 c -2e-5,17.3494 13.96715,31.3165 31.31648,31.3165 h 4.12174 v 33.7979 h 179.16011 v -33.7979 h 154.66253 v 37.8731 h 179.1601 v -37.8731 h 0.22314 c 17.34933,0 31.31648,-13.9671 31.31648,-31.3165 V 726.85516 c 0,-0.7868 -0.17402,-1.52313 -0.23049,-2.29503 a 142.37104,31.415068 7.6496338 0 0 21.27079,-12.99542 142.37104,31.415068 7.6496338 0 0 -136.92257,-50.08626 142.37104,31.415068 7.6496338 0 0 -69.48865,-5.2423 v -1.70902 h 71.3693 V 625.46155 H 696.80727 v -71.4061 h 43.09082 v -45.70461 c 17.26667,4.07855 33.21965,9.44815 47.12676,15.73671 -8.97714,5.28741 -16.8367,11.29035 -18.9586,16.94062 -2.8198,7.50868 -3.87191,18.35536 -3.59457,27.31978 0.18915,6.11261 -0.0655,9.68573 4.43805,15.98189 4.50361,6.29616 16.50762,9.81672 27.94503,13.43677 17.05254,5.39731 42.67009,8.7814 64.95988,9.69752 46.27518,1.9019 55.82878,-13.77514 55.82878,-13.77514 0,0 6.80711,-38.66476 -9.64357,-65.45272 -1.28027,-2.08474 -2.92861,-3.94069 -4.81811,-5.63462 -43.42733,-67.5729 -135.62791,-98.65719 -235.03301,-97.4533 -88.80531,1.07552 -171.19754,27.79976 -217.55296,82.39825 V 373.76499 h -8.90063 V 148.736 a 25.108111,25.108111 0 0 0 15.95248,-23.31573 25.108111,25.108111 0 0 0 -25.10811,-25.1081 z m 169.08253,408.9508 v 44.79248 h 43.09081 v 71.4061 H 498.73272 v 29.06558 h 71.36932 v 41.01155 H 450.59577 v -87.65772 c 7.70489,1.20685 17.46052,1.75947 29.93113,0.94401 22.26106,-1.45567 47.78805,-5.45809 64.70487,-11.26678 11.34639,-3.89599 23.26174,-7.70765 27.61156,-14.11105 4.34982,-6.40338 4.00717,-9.96704 4.0482,-16.08243 0.0601,-8.96853 -1.25579,-19.79087 -4.25661,-27.22906 -2.04991,-5.08118 -8.86317,-10.32021 -16.90629,-15.0379 13.64539,-6.24926 29.15616,-11.64616 45.89341,-15.83478 z M 344.82785,576.5277 c 0.42131,0.0346 0.76617,0.0392 1.67224,0.25746 2.57723,0.62078 6.43993,2.46046 10.08493,4.78132 7.29003,4.64174 13.61329,10.68566 13.61329,10.68566 l 3.33714,3.22925 34.15094,-5.08048 -0.24519,-1.64036 7.82177,-0.84102 v 107.61915 h -7.11805 c -17.34933,0 -31.31651,13.96715 -31.31648,31.31648 v 117.39513 l -2.19207,0.12996 c -0.58053,-3.62035 -1.36716,-7.78204 -2.63341,-12.18627 -1.56563,-5.44564 -3.65088,-11.10372 -7.42699,-16.12412 -3.77611,-5.02037 -10.67987,-9.6935 -18.53195,-8.92269 -3.11562,0.30585 -6.09528,1.8322 -8.47154,3.79564 -2.49549,-2.67159 -6.10099,-4.67622 -9.60923,-5.21042 -2.62389,-0.39954 -5.52853,0.0374 -8.17976,1.01757 -0.12756,-0.59903 -0.0888,-1.15548 -0.27707,-1.77032 -1.28885,-4.20886 -5.10901,-8.76 -9.84218,-10.46988 -1.65165,-0.59667 -3.51547,-0.79525 -5.3649,-0.8631 1.13029,-3.2844 1.98142,-6.73415 1.68204,-10.70282 -0.31942,-4.23454 -2.55416,-9.15148 -6.34568,-12.16665 -3.35969,-2.67176 -8.0545,-4.15406 -12.19116,-3.75395 -0.89961,0.087 -1.60643,0.43309 -2.42499,0.63505 1.24108,-1.3878 2.60497,-2.69563 3.70736,-4.16343 2.28587,-3.04353 4.31472,-6.31936 5.38451,-10.4184 1.06981,-4.09903 0.74419,-9.38019 -1.74579,-13.61575 -1.99888,-3.40016 -5.22288,-6.08725 -8.67014,-7.57902 0.0222,-0.0277 0.049,-0.0407 0.0711,-0.0687 2.42784,-3.07479 3.83653,-7.73978 3.33222,-11.94842 -0.50576,-4.22068 -3.05209,-8.505 -6.2329,-10.87936 -3.1808,-2.37436 -6.47519,-3.25912 -9.54304,-3.76868 -0.89838,-0.14922 -1.76182,-0.0895 -2.65302,-0.17898 4.3311,-0.28117 8.6471,-0.72364 12.80416,-1.82918 3.44179,-0.9153 6.99701,-2.22895 10.19771,-5.29133 3.2007,-3.06239 5.21888,-8.38281 4.79605,-13.04935 -0.28183,-3.11021 -1.70794,-6.40878 -3.80545,-8.9791 0.59764,-0.0704 1.24176,-0.0395 1.83161,-0.12504 4.0327,-0.58464 7.95005,-1.48371 11.76207,-3.61175 3.81203,-2.12804 7.62098,-6.16696 8.84669,-11.22999 1.49457,-6.17361 -0.95919,-12.65098 -4.57782,-16.93327 2.97854,0.84617 5.99485,1.61172 9.07717,1.9959 3.43867,0.42859 7.05837,0.52631 10.95048,-0.6939 3.8921,-1.22022 7.9543,-4.31626 10.0604,-8.39063 0.83427,-1.61394 1.27619,-3.27527 1.59869,-4.93334 4.21506,0.14482 8.56134,-0.69914 12.37015,-3.51612 3.45923,-2.55844 5.98459,-6.6986 6.70368,-10.65869 0.71907,-3.96009 0.0778,-7.48373 -0.87536,-10.62436 -1.90627,-6.28127 -5.28192,-11.70476 -8.38572,-16.89403 -3.10379,-5.18927 -5.96857,-10.12907 -7.03714,-13.11065 -0.15426,-0.43047 -0.0805,-0.31623 -0.15937,-0.63506 z m 157.01887,168.53575 c 12.69436,0 22.9136,10.21924 22.9136,22.9136 v 221.40008 c 0,12.69437 -10.21924,22.91357 -22.9136,22.91357 -12.69436,0 -22.9136,-10.2192 -22.9136,-22.91357 V 767.97705 c 0,-12.69436 10.21924,-22.9136 22.9136,-22.9136 z m 333.82263,0 c 12.69436,0 22.91361,10.21924 22.91361,22.9136 v 221.40008 c 0,12.69437 -10.21925,22.91357 -22.91361,22.91357 -12.69436,0 -22.91604,-10.2192 -22.91604,-22.91357 V 767.97705 c 0,-12.69436 10.22168,-22.9136 22.91604,-22.9136 z M 668.28358,799.703 c 11.87768,2e-5 21.43998,10.2217 21.43998,22.91606 v 112.1185 c 0,12.69438 -9.5623,22.91362 -21.43998,22.91362 -11.87768,0 -21.43997,-10.21924 -21.43997,-22.91362 v -112.1185 c 0,-12.69436 9.56229,-22.91604 21.43997,-22.91606 z" />
  </g>
</svg>
