<?xml version="1.0" encoding="UTF-8" standalone="no"?>
<!-- Created with Inkscape (http://www.inkscape.org/) -->

<svg
   xmlns:dc="http://purl.org/dc/elements/1.1/"
   xmlns:cc="http://creativecommons.org/ns#"
   xmlns:rdf="http://www.w3.org/1999/02/22-rdf-syntax-ns#"
   xmlns:svg="http://www.w3.org/2000/svg"
   xmlns="http://www.w3.org/2000/svg"
   xmlns:xlink="http://www.w3.org/1999/xlink"
   xmlns:sodipodi="http://sodipodi.sourceforge.net/DTD/sodipodi-0.dtd"
   xmlns:inkscape="http://www.inkscape.org/namespaces/inkscape"
   width="870"
   height="939.09015"
   viewBox="0 0 870 939.09017"
   version="1.1"
   id="com_radio"
   inkscape:version="0.92.5 (2060ec1f9f, 2020-04-08)"
   sodipodi:docname="radio-2l.svg"
   inkscape:export-filename="C:\Users\lagoleta\Desktop\PRYECTOS\dingbat-telecom\radio-2l.png"
   inkscape:export-xdpi="96"
   inkscape:export-ydpi="96">
  <title
     id="title857">Radio_com</title>
  <defs
     id="com_radio_1">
    <color-profile
       name="sRGB-v4-ICC-preference-perceptual-intent-beta-display-class"
       xlink:href="C:\Windows\system32\spool\drivers\color\sRGB_v4_ICC_preference_displayclass.icc"
       id="color-profile859" />
  </defs>
  <sodipodi:namedview
     id="base"
     pagecolor="#ffffff"
     bordercolor="#666666"
     borderopacity="1.0"
     inkscape:pageopacity="0.0"
     inkscape:pageshadow="2"
     inkscape:zoom="0.49497475"
     inkscape:cx="364.28361"
     inkscape:cy="442.54619"
     inkscape:document-units="px"
     inkscape:current-layer="layer1"
     showgrid="false"
     units="px"
     width="1000px"
     inkscape:window-width="1600"
     inkscape:window-height="837"
     inkscape:window-x="-4"
     inkscape:window-y="-4"
     inkscape:window-maximized="1"
     showguides="false"
     inkscape:guide-bbox="true"
     fit-margin-top="0"
     fit-margin-left="0"
     fit-margin-right="0"
     fit-margin-bottom="0">
    <sodipodi:guide
       position="-64.999999,-37.337592"
       orientation="0,1000"
       id="guide2005"
       inkscape:locked="false" />
    <sodipodi:guide
       position="935.00001,-37.337592"
       orientation="-1000,0"
       id="guide2007"
       inkscape:locked="false" />
    <sodipodi:guide
       position="935.00001,962.66243"
       orientation="0,-1000"
       id="guide2009"
       inkscape:locked="false" />
    <sodipodi:guide
       position="-64.999999,962.66243"
       orientation="1000,0"
       id="guide2011"
       inkscape:locked="false" />
    <inkscape:grid
       type="xygrid"
       id="grid2013"
       originx="-65"
       originy="-37.337596" />
    <sodipodi:guide
       position="415,722.66242"
       orientation="0,1"
       id="guide2044"
       inkscape:locked="false" />
    <sodipodi:guide
       position="575.00001,652.66242"
       orientation="1,0"
       id="guide2169"
       inkscape:locked="false" />
    <sodipodi:guide
       position="695.00001,692.66242"
       orientation="1,0"
       id="guide2171"
       inkscape:locked="false" />
    <sodipodi:guide
       position="645.00001,682.66242"
       orientation="0,1"
       id="guide2173"
       inkscape:locked="false" />
    <sodipodi:guide
       position="645.00001,562.66242"
       orientation="0,1"
       id="guide2175"
       inkscape:locked="false" />
    <sodipodi:guide
       position="615.00001,572.66242"
       orientation="1,0"
       id="guide2177"
       inkscape:locked="false" />
    <sodipodi:guide
       position="655.00001,622.66242"
       orientation="1,0"
       id="guide2179"
       inkscape:locked="false" />
  </sodipodi:namedview>
  <metadata
     id="metadata_com_radio">
    <rdf:RDF>
      <cc:Work
         rdf:about="">
        <dc:format>image/svg+xml</dc:format>
        <dc:type
           rdf:resource="http://purl.org/dc/dcmitype/StillImage" />
        <dc:title>Radio_com</dc:title>
        <cc:license
           rdf:resource="http://creativecommons.org/publicdomain/zero/1.0/" />
        <dc:date>03/11/20</dc:date>
        <dc:creator>
          <cc:Agent>
            <dc:title>La Goleta</dc:title>
          </cc:Agent>
        </dc:creator>
        <dc:rights>
          <cc:Agent>
            <dc:title>Public domain</dc:title>
          </cc:Agent>
        </dc:rights>
        <dc:publisher>
          <cc:Agent>
            <dc:title>David Digan</dc:title>
          </cc:Agent>
        </dc:publisher>
        <dc:source>Bahia Blanca - Argentina</dc:source>
        <dc:language>English</dc:language>
      </cc:Work>
      <cc:License
         rdf:about="http://creativecommons.org/publicdomain/zero/1.0/">
        <cc:permits
           rdf:resource="http://creativecommons.org/ns#Reproduction" />
        <cc:permits
           rdf:resource="http://creativecommons.org/ns#Distribution" />
        <cc:permits
           rdf:resource="http://creativecommons.org/ns#DerivativeWorks" />
      </cc:License>
    </rdf:RDF>
  </metadata>
  <g
     inkscape:label="Capa 1"
     inkscape:groupmode="layer"
     id="layer1"
     transform="translate(-65,-55.988933)">
    <path
       style="color:#000000;font-style:normal;font-variant:normal;font-weight:normal;font-stretch:normal;font-size:medium;line-height:normal;font-family:sans-serif;font-variant-ligatures:normal;font-variant-position:normal;font-variant-caps:normal;font-variant-numeric:normal;font-variant-alternates:normal;font-feature-settings:normal;text-indent:0;text-align:start;text-decoration:none;text-decoration-line:none;text-decoration-style:solid;text-decoration-color:#000000;letter-spacing:normal;word-spacing:normal;text-transform:none;writing-mode:lr-tb;direction:ltr;text-orientation:mixed;dominant-baseline:auto;baseline-shift:baseline;text-anchor:start;white-space:normal;shape-padding:0;clip-rule:nonzero;display:inline;overflow:visible;visibility:visible;opacity:1;isolation:auto;mix-blend-mode:normal;color-interpolation:sRGB;color-interpolation-filters:linearRGB;solid-color:#000000;solid-opacity:1;vector-effect:none;fill:#000000;fill-opacity:1;fill-rule:nonzero;stroke:none;stroke-width:30;stroke-linecap:butt;stroke-linejoin:miter;stroke-miterlimit:4;stroke-dasharray:none;stroke-dashoffset:0;stroke-opacity:1;color-rendering:auto;image-rendering:auto;shape-rendering:auto;text-rendering:auto;enable-background:accumulate"
       d="m 178.57227,23.572266 c -41.24369,0 -75,33.756316 -75,75 -1e-5,29.068244 16.80345,54.355844 41.14257,66.789064 L 125.66016,546.39648 C 91.183848,553.12675 65,583.61241 65,620 v 120 c 0,41.29054 33.709458,75 75,75 h 680 c 26.25944,0 49.4355,-13.6462 62.8418,-34.19336 1.6959,1.67518 3.53117,3.67178 5.44531,6.06445 C 896.45873,797.08562 905,813.33333 905,840 c 0,26.66666 -8.54127,42.91632 -16.71289,53.13086 -5.93772,7.42215 -10.15874,10.3793 -12.57227,11.86914 H 251.04102 a 9.245211,9.245211 0 0 0 -1.39844,-3.71875 l -31.06055,-47.57813 a 9.245211,9.245211 0 0 0 -4.42383,-3.57421 l -69.27148,-26.62305 a 9.245211,9.245211 0 0 0 -7.75977,0.52148 l -22.92578,12.57227 a 9.245211,9.245211 0 0 0 -4.43164,5.51758 L 89.0625,913.11328 a 9.245211,9.245211 0 0 0 0.769531,7.03516 l 12.572269,22.92578 a 9.245211,9.245211 0 0 0 6.26367,4.61133 l 72.7207,14.79101 a 9.245211,9.245211 0 0 0 5.65235,-0.63476 l 51.76953,-23.41992 A 9.245211,9.245211 0 0 0 242.76367,935 h 640.77735 l 3.16796,-1.58203 c 0,0 13.17553,-6.76141 25.00391,-21.54688 C 923.54127,897.08562 935,873.33333 935,840 c 0,-33.33334 -11.45873,-57.08368 -23.28711,-71.86914 -6.18857,-7.73571 -12.72802,-13.25568 -17.57422,-16.7793 C 894.70579,747.64771 895,743.85749 895,740 V 620 c 0,-41.29055 -33.70946,-75 -75,-75 H 234.26953 L 215.21484,163.89258 c 22.82937,-12.8974 38.35743,-37.37049 38.35743,-65.320314 0,-41.243684 -33.75632,-75 -75,-75 z m 0,30 c 25.03048,0 45,19.96952 45,45 0,25.030494 -19.96952,45.000004 -45,45.000004 -25.03049,0 -45.00001,-19.96951 -45,-45.000004 0,-25.03048 19.96951,-45 45,-45 z M 174.26758,175 h 11.46289 l 18.50195,370 H 155.76758 Z M 140,575 H 235.76953 820 c 25.18946,0 45,19.81054 45,45 v 120 c 0,25.18945 -19.81054,45 -45,45 H 140 C 114.81054,785 95,765.18945 95,740 V 620 c 0,-25.18946 19.81054,-45 45,-45 z m 2.25586,267.30078 62.47852,24.01367 27.10351,41.51367 -4.52148,15.50196 -45.17188,20.43359 -65.58984,-13.33984 -8.66992,-15.8086 18.5625,-63.64453 z"
       transform="translate(0,32.416667)"
       id="path2153"
       inkscape:connector-curvature="0" />
    <rect
       style="opacity:1;fill:none;fill-opacity:1;fill-rule:nonzero;stroke:#000000;stroke-width:30;stroke-linecap:round;stroke-linejoin:bevel;stroke-miterlimit:4;stroke-dasharray:none;stroke-dashoffset:0;stroke-opacity:1;paint-order:normal"
       id="rect2159"
       width="280"
       height="79.999977"
       x="120"
       y="632.41669"
       ry="19.999981" />
    <path
       style="fill:none;stroke:#000000;stroke-width:30;stroke-linecap:round;stroke-linejoin:miter;stroke-miterlimit:4;stroke-dasharray:none;stroke-opacity:1"
       d="m 680,772.41667 c 20,0 140,0 140,0"
       id="path2161"
       inkscape:connector-curvature="0" />
    <path
       inkscape:connector-curvature="0"
       id="path2163"
       d="m 680,722.41667 c 20,0 140,0 140,0"
       style="fill:none;stroke:#000000;stroke-width:30;stroke-linecap:round;stroke-linejoin:miter;stroke-miterlimit:4;stroke-dasharray:none;stroke-opacity:1" />
    <path
       style="fill:none;stroke:#000000;stroke-width:30;stroke-linecap:round;stroke-linejoin:miter;stroke-miterlimit:4;stroke-dasharray:none;stroke-opacity:1"
       d="m 680,672.41667 c 20,0 140,0 140,0"
       id="path2165"
       inkscape:connector-curvature="0" />
    <g
       id="g2191"
       transform="matrix(0.17256002,-0.59163434,0.59163434,0.17256002,-179.58777,1278.031)">
      <path
         inkscape:connector-curvature="0"
         id="path2181"
         d="M 645,327.41667 H 755"
         style="fill:none;stroke:#000000;stroke-width:30;stroke-linecap:round;stroke-linejoin:miter;stroke-miterlimit:4;stroke-dasharray:none;stroke-opacity:1" />
      <path
         sodipodi:nodetypes="cc"
         style="fill:none;stroke:#000000;stroke-width:30;stroke-linecap:round;stroke-linejoin:miter;stroke-miterlimit:4;stroke-dasharray:none;stroke-opacity:1"
         d="M 650,367.41667 H 750"
         id="path2183"
         inkscape:connector-curvature="0" />
      <path
         inkscape:connector-curvature="0"
         id="path2185"
         d="m 660,407.41667 h 80"
         style="fill:none;stroke:#000000;stroke-width:30;stroke-linecap:round;stroke-linejoin:miter;stroke-miterlimit:4;stroke-dasharray:none;stroke-opacity:1"
         sodipodi:nodetypes="cc" />
    </g>
    <circle
       style="opacity:1;fill:none;fill-opacity:1;fill-rule:nonzero;stroke:#000000;stroke-width:16.15384674;stroke-linecap:butt;stroke-linejoin:round;stroke-miterlimit:4;stroke-dasharray:none;stroke-dashoffset:0;stroke-opacity:1;paint-order:normal"
       id="path2193"
       cx="155"
       cy="770.27386"
       r="26.923079" />
    <circle
       r="67.58242"
       cy="712.41669"
       cx="551.42853"
       id="circle2195"
       style="opacity:1;fill:none;fill-opacity:1;fill-rule:nonzero;stroke:#000000;stroke-width:40.54944992;stroke-linecap:butt;stroke-linejoin:round;stroke-miterlimit:4;stroke-dasharray:none;stroke-dashoffset:0;stroke-opacity:1;paint-order:normal" />
    <rect
       style="opacity:1;fill:none;fill-opacity:1;fill-rule:nonzero;stroke:#000000;stroke-width:8.5714283;stroke-linecap:butt;stroke-linejoin:round;stroke-miterlimit:4;stroke-dasharray:none;stroke-dashoffset:0;stroke-opacity:1;paint-order:normal"
       id="rect2197"
       width="40"
       height="34.285702"
       x="250"
       y="752.41669"
       ry="5.7142744" />
    <rect
       ry="5.7142744"
       y="752.41669"
       x="310"
       height="34.285702"
       width="40"
       id="rect2199"
       style="opacity:1;fill:none;fill-opacity:1;fill-rule:nonzero;stroke:#000000;stroke-width:8.5714283;stroke-linecap:butt;stroke-linejoin:round;stroke-miterlimit:4;stroke-dasharray:none;stroke-dashoffset:0;stroke-opacity:1;paint-order:normal" />
    <rect
       style="opacity:1;fill:none;fill-opacity:1;fill-rule:nonzero;stroke:#000000;stroke-width:8.5714283;stroke-linecap:butt;stroke-linejoin:round;stroke-miterlimit:4;stroke-dasharray:none;stroke-dashoffset:0;stroke-opacity:1;paint-order:normal"
       id="rect2201"
       width="40"
       height="34.285702"
       x="370"
       y="752.41669"
       ry="5.7142744" />
  </g>
</svg>
