<?xml version="1.0" encoding="UTF-8" standalone="no"?>
<!-- Created with Inkscape (http://www.inkscape.org/) -->

<svg
   width="1200"
   height="1200"
   viewBox="0 0 1200 1200"
   version="1.1"
   id="svg5"
   inkscape:version="1.1.1 (3bf5ae0d25, 2021-09-20)"
   sodipodi:docname="search-signal.svg"
   xmlns:inkscape="http://www.inkscape.org/namespaces/inkscape"
   xmlns:sodipodi="http://sodipodi.sourceforge.net/DTD/sodipodi-0.dtd"
   xmlns="http://www.w3.org/2000/svg"
   xmlns:svg="http://www.w3.org/2000/svg">
  <sodipodi:namedview
     id="namedview7"
     pagecolor="#ffffff"
     bordercolor="#666666"
     borderopacity="1.0"
     inkscape:pageshadow="2"
     inkscape:pageopacity="0.0"
     inkscape:pagecheckerboard="0"
     inkscape:document-units="px"
     showgrid="false"
     units="px"
     showguides="false"
     inkscape:guide-bbox="true"
     inkscape:snap-bbox="true"
     inkscape:bbox-paths="true"
     inkscape:bbox-nodes="true"
     inkscape:snap-bbox-edge-midpoints="true"
     inkscape:snap-bbox-midpoints="true"
     inkscape:zoom="0.32"
     inkscape:cx="462.5"
     inkscape:cy="740.625"
     inkscape:window-width="1600"
     inkscape:window-height="837"
     inkscape:window-x="-8"
     inkscape:window-y="-8"
     inkscape:window-maximized="1"
     inkscape:current-layer="layer1"
     inkscape:snap-global="true">
    <inkscape:grid
       type="xygrid"
       id="grid854" />
    <sodipodi:guide
       position="953.9843,600"
       orientation="0,-1"
       id="guide27994" />
    <sodipodi:guide
       position="612.49369,781.91498"
       orientation="1,0"
       id="guide27996" />
  </sodipodi:namedview>
  <defs
     id="defs2" />
  <g
     inkscape:label="Capa 1"
     inkscape:groupmode="layer"
     id="layer1">
    <path
       id="path27760"
       style="color:#000000;fill:#000000;stroke-width:0.691405;stroke-linecap:square;-inkscape-stroke:none;paint-order:markers stroke fill"
       d="M 596.55664 59.259766 L 596.55664 239.875 A 15 15 0 0 0 588.83398 246.00781 C 515.85588 248.2426 443.73883 272.78453 383.43945 319.24023 A 17.285116 17.285116 0 0 0 366.08203 322.10742 A 17.285116 17.285116 0 0 0 364.34961 346.49219 L 573.81445 587.96875 L 479.35156 587.96875 A 15 15 0 0 0 465.11914 577.69531 A 15 15 0 0 0 450.91406 587.96875 L 412.54102 587.96875 A 15 15 0 0 0 398.12695 577.11133 A 15 15 0 0 0 383.71875 587.96875 L 343.51172 587.96875 A 15 15 0 0 0 329.36133 577.94141 A 15 15 0 0 0 315.24609 587.96875 L 267.35547 587.96875 A 15 15 0 0 0 253.51562 578.75 A 15 15 0 0 0 239.70312 587.96875 L 79.660156 587.96875 L 79.660156 597.96875 L 239.12109 597.96875 A 15 15 0 0 0 253.51562 608.75 A 15 15 0 0 0 267.91016 597.96875 L 315.26758 597.96875 A 15 15 0 0 0 324.68359 606.44727 L 321.10938 606.64258 L 321.58203 615.27344 C 322.7886 637.22855 326.5926 658.96289 332.91211 680.02344 L 335.39648 688.30078 L 351.95117 683.33398 L 349.4668 675.05469 C 343.53959 655.30144 339.97344 634.91651 338.8418 614.32422 L 338.36914 605.69531 L 335.98047 605.82617 A 15 15 0 0 0 343.45508 597.96875 L 384.34375 597.96875 A 15 15 0 0 0 398.12695 607.11133 A 15 15 0 0 0 411.91211 597.96875 L 451.11914 597.96875 A 15 15 0 0 0 455.66602 603.81055 C 457.37791 668.61615 502.24897 724.62646 565.54102 740.0332 L 573.9375 742.07812 L 578.02539 725.2832 L 569.62891 723.24023 C 514.45232 709.80898 475.3134 661.5285 473.01172 605.21289 A 15 15 0 0 0 479.12109 597.96875 L 582.48828 597.96875 L 586.56836 602.67188 A 17.285116 17.285116 0 0 0 596.55664 607.86719 L 596.55664 721.69531 A 15 15 0 0 0 586.67383 735.75586 A 15 15 0 0 0 596.55664 749.81641 L 596.55664 786.99023 A 15 15 0 0 0 591.54102 790.78711 C 579.68708 790.2774 567.75332 788.75624 555.85352 785.95508 L 547.43945 783.97461 L 543.47852 800.79883 L 551.89258 802.7793 C 564.18512 805.67291 576.51978 807.34601 588.78125 807.98828 A 15 15 0 0 0 596.55664 815.18555 L 596.55664 856.39062 A 15 15 0 0 0 590.16992 860.91016 C 511.25837 858.05104 436.24842 819.52147 388.26367 753.41602 L 383.18555 746.42188 L 369.19727 756.57617 L 374.27344 763.57031 C 425.17396 833.69265 504.6947 874.71926 588.40234 878.11523 A 15 15 0 0 0 596.55664 885.04297 L 596.55664 931.91211 A 15 15 0 0 0 590.30469 936.88477 C 456.00486 933.23226 335.43014 849.7608 285.75195 722.85547 L 282.60156 714.80859 L 266.50586 721.10938 L 269.65625 729.15625 C 321.82558 862.42526 448.55203 950.14136 589.58789 954.09375 A 15 15 0 0 0 596.55664 959.77148 L 596.55664 1086.7754 L 606.55664 1086.7754 L 606.55664 960.11914 A 15 15 0 0 0 614.36133 953.95508 C 616.72785 953.85622 619.08866 953.80646 621.46094 953.66016 C 774.99962 944.17866 904.94445 836.63577 942.96875 687.57812 C 949.99929 660.01805 953.56972 632.19917 953.93164 604.64062 A 15 15 0 0 0 959.19336 597.96875 L 1091.707 597.96875 L 1091.707 587.96875 L 959.50391 587.96875 A 15 15 0 0 0 953.36914 580.22852 C 947.05908 467.72927 887.22762 362.24584 788.20898 299.99805 C 734.44469 266.19923 674.19343 248.46692 613.6875 246.08203 A 15 15 0 0 0 606.55664 240.11523 L 606.55664 59.259766 L 596.55664 59.259766 z M 589.48633 263.22852 A 15 15 0 0 0 596.55664 268.35742 L 596.55664 316.4707 A 15 15 0 0 0 589.72656 321.92578 C 534.93175 323.91182 480.93087 341.87894 435.18164 375.38867 L 396.64258 330.96289 C 453.51359 288.02426 521.10415 265.30677 589.48633 263.22852 z M 612.66992 263.27148 C 670.32201 265.48252 727.74587 282.4059 779.00977 314.63281 C 873.15685 373.81818 930.04268 473.9756 936.11523 580.88086 A 15 15 0 0 0 930.98438 587.96875 L 884.17578 587.96875 A 15 15 0 0 0 877.16602 579.79688 C 870.37253 486.43527 816.89966 401.11749 732.51953 355.29102 C 695.30355 335.07917 654.90804 324.20362 614.34375 322.08594 A 15 15 0 0 0 606.55664 316.07617 L 606.55664 268.08008 A 15 15 0 0 0 612.66992 263.27148 z M 590.11523 339.15234 A 15 15 0 0 0 596.55664 344.29883 L 596.55664 385.67383 A 15 15 0 0 0 588.96289 392.00781 C 551.13184 393.95506 513.7613 406.17056 481.32031 428.58008 L 446.51562 388.45508 C 489.13439 357.58655 539.25341 341.02436 590.11523 339.15234 z M 614.0332 339.33594 C 651.86944 341.41198 689.5386 351.61913 724.27148 370.48242 C 803.64381 413.5892 853.82456 493.84308 859.98633 581.67188 A 15 15 0 0 0 855.52344 587.96875 L 812.99414 587.96875 A 15 15 0 0 0 806.71094 579.11523 C 801.09988 523.76877 773.6136 471.2368 727.16406 435.27344 C 693.60807 409.29286 654.14357 395.13317 614.0957 392.37109 A 15 15 0 0 0 606.55664 385.7168 L 606.55664 344.67773 A 15 15 0 0 0 614.0332 339.33594 z M 590.23242 409.24219 A 15 15 0 0 0 596.55664 413.96289 L 596.55664 450.55273 A 15 15 0 0 0 589.32617 456.39648 C 566.28291 458.06183 543.73628 465.12115 523.75195 477.5 L 492.75586 441.76562 C 522.25811 421.81089 556.04857 410.94975 590.23242 409.24219 z M 612.24219 409.53516 C 649.17066 411.94654 685.59204 424.9471 716.58008 448.93945 C 758.80251 481.62999 783.92727 529.14914 789.4043 579.33594 A 15 15 0 0 0 783.72656 587.96875 L 748.98242 587.96875 A 15 15 0 0 0 742.33008 580.26172 C 735.21674 528.83629 700.98631 485.07944 652.58398 465.95703 C 640.11585 461.03122 627.20972 458.15621 614.23828 456.83984 A 15 15 0 0 0 606.55664 450.39258 L 606.55664 413.88086 A 15 15 0 0 0 612.24219 409.53516 z M 589.99805 473.58203 A 15 15 0 0 0 596.55664 478.63086 L 596.55664 561.43164 L 535.26953 490.7793 C 552.09128 480.86288 570.83808 475.06134 589.99805 473.58203 z M 612.91016 474.05469 C 624.17851 475.23435 635.39211 477.74973 646.23438 482.0332 C 688.65707 498.79323 718.6575 536.98264 725.11523 581.98828 A 15 15 0 0 0 720.6543 587.96875 L 616.48242 587.96875 A 17.285116 17.285116 0 0 0 612.68164 580.02148 L 606.55664 572.96094 L 606.55664 478.76172 A 15 15 0 0 0 612.91016 474.05469 z M 615.56445 597.96875 L 720.74219 597.96875 A 15 15 0 0 0 726.29883 605.14844 C 724.72528 644.04785 705.35699 680.52993 672.97266 703.48242 L 665.92188 708.48047 L 675.91602 722.58203 L 682.9668 717.58398 C 720.02137 691.32143 742.11275 649.40056 743.60938 604.83203 A 15 15 0 0 0 748.86133 597.96875 L 785.01172 597.96875 A 15 15 0 0 0 790.62695 603.9707 C 790.08126 630.43557 784.04934 657.09636 772.06055 682.23438 C 741.55524 746.19769 679.21481 786.3879 611.33203 790.54492 A 15 15 0 0 0 606.55664 786.94141 L 606.55664 749.90234 A 15 15 0 0 0 616.67383 735.75586 A 15 15 0 0 0 606.55664 721.57617 L 606.55664 606.54102 A 17.285116 17.285116 0 0 0 610.95117 604.4043 A 17.285116 17.285116 0 0 0 615.56445 597.96875 z M 811.67383 597.96875 L 855.95703 597.96875 A 15 15 0 0 0 860.59766 603.72852 C 860.46101 613.07307 860.00296 622.45286 858.84375 631.87695 C 845.74005 738.40781 768.85721 826.03059 664.93359 852.87109 C 647.1906 857.4536 629.28545 859.9588 611.4668 860.77148 A 15 15 0 0 0 606.55664 856.80469 L 606.55664 815.19922 A 15 15 0 0 0 614.45117 807.72266 C 687.65505 802.47262 754.742 758.69641 787.66016 689.67383 C 801.06427 661.56817 807.60643 631.69163 807.88281 602.07812 A 15 15 0 0 0 811.67383 597.96875 z M 883.73047 597.96875 L 931.27539 597.96875 A 15 15 0 0 0 936.64844 604.7832 C 936.27168 630.87244 932.87816 657.20704 926.2207 683.30469 C 890.0345 825.1564 766.5107 927.385 620.39453 936.4082 C 618.16238 936.54605 615.94163 936.59201 613.71484 936.68555 A 15 15 0 0 0 606.55664 931.54492 L 606.55664 884.59766 A 15 15 0 0 0 613.68945 878.08203 C 632.21441 877.14449 650.82082 874.3667 669.25586 869.60547 C 780.00396 841.00247 862.0358 747.51483 876 633.98828 C 877.19701 624.25681 877.68702 614.56883 877.85938 604.91406 A 15 15 0 0 0 883.73047 597.96875 z M 263.22461 622.8457 L 246.01562 624.45898 L 246.82422 633.06445 C 248.31828 649.00111 250.88891 664.81737 254.52148 680.40625 L 256.48242 688.82422 L 273.31641 684.90039 L 271.35547 676.48438 C 267.90004 661.65593 265.45438 646.61043 264.0332 631.45117 L 263.22461 622.8457 z M 417.4082 658.0332 L 401.19336 664.01562 L 404.18555 672.12305 C 414.7443 700.73354 431.45651 726.67903 453.14062 748.12305 L 459.28516 754.19922 L 471.43945 741.91016 L 465.29297 735.83203 C 445.40777 716.16702 430.08318 692.37757 420.40039 666.14062 L 417.4082 658.0332 z " />
  </g>
</svg>
