<?xml version="1.0" encoding="UTF-8" standalone="no"?>
<!-- Created with Inkscape (http://www.inkscape.org/) -->

<svg
   xmlns:dc="http://purl.org/dc/elements/1.1/"
   xmlns:cc="http://creativecommons.org/ns#"
   xmlns:rdf="http://www.w3.org/1999/02/22-rdf-syntax-ns#"
   xmlns:svg="http://www.w3.org/2000/svg"
   xmlns="http://www.w3.org/2000/svg"
   xmlns:sodipodi="http://sodipodi.sourceforge.net/DTD/sodipodi-0.dtd"
   xmlns:inkscape="http://www.inkscape.org/namespaces/inkscape"
   width="1000"
   height="1000"
   viewBox="0 0 1000 1000"
   version="1.1"
   id="svg1460"
   inkscape:version="0.92.4 (5da689c313, 2019-01-14)"
   sodipodi:docname="TELECOMUNICACIONES.svg"
   inkscape:export-filename="C:\Users\lagoleta\Desktop\PRYECTOS\dingbat-telecom\handies2.png"
   inkscape:export-xdpi="96"
   inkscape:export-ydpi="96"
   enable-background="new">
  <defs
     id="defs1454">
    <filter
       inkscape:collect="always"
       style="color-interpolation-filters:sRGB"
       id="filter13929">
      <feBlend
         inkscape:collect="always"
         mode="screen"
         in2="BackgroundImage"
         id="feBlend13931" />
    </filter>
  </defs>
  <sodipodi:namedview
     id="base"
     pagecolor="#ffffff"
     bordercolor="#666666"
     borderopacity="1.0"
     inkscape:pageopacity="0.0"
     inkscape:pageshadow="2"
     inkscape:zoom="0.49497475"
     inkscape:cx="708.35161"
     inkscape:cy="505.02828"
     inkscape:document-units="px"
     inkscape:current-layer="layer1"
     showgrid="true"
     units="px"
     width="1000px"
     inkscape:window-width="1280"
     inkscape:window-height="737"
     inkscape:window-x="-4"
     inkscape:window-y="-4"
     inkscape:window-maximized="1"
     showguides="true"
     inkscape:guide-bbox="true">
    <sodipodi:guide
       position="0,0"
       orientation="0,1000"
       id="guide2005"
       inkscape:locked="false" />
    <sodipodi:guide
       position="1000,0"
       orientation="-1000,0"
       id="guide2007"
       inkscape:locked="false" />
    <sodipodi:guide
       position="1000,1000"
       orientation="0,-1000"
       id="guide2009"
       inkscape:locked="false" />
    <sodipodi:guide
       position="0,1000"
       orientation="1000,0"
       id="guide2011"
       inkscape:locked="false" />
    <inkscape:grid
       type="xygrid"
       id="grid2013" />
    <sodipodi:guide
       position="488.57143,193.57143"
       orientation="0,1"
       id="guide14087"
       inkscape:locked="false" />
    <sodipodi:guide
       position="482.85714,170"
       orientation="0,1"
       id="guide14089"
       inkscape:locked="false" />
    <sodipodi:guide
       position="490.71429,148.57143"
       orientation="0,1"
       id="guide14091"
       inkscape:locked="false" />
    <sodipodi:guide
       position="500,500"
       orientation="1,0"
       id="guide14320"
       inkscape:locked="false" />
  </sodipodi:namedview>
  <metadata
     id="metadata1457">
    <rdf:RDF>
      <cc:Work
         rdf:about="">
        <dc:format>image/svg+xml</dc:format>
        <dc:type
           rdf:resource="http://purl.org/dc/dcmitype/StillImage" />
        <dc:title></dc:title>
        <cc:license
           rdf:resource="http://creativecommons.org/licenses/by/4.0/" />
        <dc:date />
        <dc:creator>
          <cc:Agent>
            <dc:title>La Goleta</dc:title>
          </cc:Agent>
        </dc:creator>
        <dc:rights>
          <cc:Agent>
            <dc:title>Creative Commons</dc:title>
          </cc:Agent>
        </dc:rights>
        <dc:publisher>
          <cc:Agent>
            <dc:title>David Digan</dc:title>
          </cc:Agent>
        </dc:publisher>
        <dc:source>Bahia Blanca - Argentina</dc:source>
        <dc:language>Español</dc:language>
      </cc:Work>
      <cc:License
         rdf:about="http://creativecommons.org/licenses/by/4.0/">
        <cc:permits
           rdf:resource="http://creativecommons.org/ns#Reproduction" />
        <cc:permits
           rdf:resource="http://creativecommons.org/ns#Distribution" />
        <cc:requires
           rdf:resource="http://creativecommons.org/ns#Notice" />
        <cc:requires
           rdf:resource="http://creativecommons.org/ns#Attribution" />
        <cc:permits
           rdf:resource="http://creativecommons.org/ns#DerivativeWorks" />
      </cc:License>
    </rdf:RDF>
  </metadata>
  <g
     inkscape:label="Capa 1"
     inkscape:groupmode="layer"
     id="layer1"
     transform="translate(0,-32.416667)"
     style="filter:url(#filter13929)">
    <g
       id="g17337"
       transform="translate(0.03767767,5.0000011)">
      <g
         aria-label="TELECOM"
         transform="matrix(5.3720698,0,0,5.3720698,-382.38965,-222.5927)"
         style="font-style:normal;font-variant:normal;font-weight:normal;font-stretch:normal;font-size:40px;line-height:1.25;font-family:Aharoni;-inkscape-font-specification:Aharoni;letter-spacing:0px;word-spacing:0px;fill:#000000;fill-opacity:1;stroke:none"
         id="flowRoot17271">
        <path
           d="M 98.59375,93.535156 H 92.851562 V 114.39453 H 85.917969 V 93.535156 H 80.273437 V 87.734375 H 98.59375 Z"
           id="path17339"
           inkscape:connector-curvature="0" />
        <path
           d="M 116.79688,114.39453 H 101.62109 V 87.734375 h 15.17579 v 5.800781 h -8.24219 v 4.511719 h 7.79297 v 5.800785 h -7.79297 v 4.74609 h 8.24219 z"
           id="path17341"
           inkscape:connector-curvature="0" />
        <path
           d="m 136.48437,114.39453 h -15.2539 V 87.734375 h 6.93359 v 20.859375 h 8.32031 z"
           id="path17343"
           inkscape:connector-curvature="0" />
        <path
           d="M 155.23437,114.39453 H 140.05859 V 87.734375 h 15.17578 v 5.800781 h -8.24218 v 4.511719 h 7.79297 v 5.800785 h -7.79297 v 4.74609 h 8.24218 z"
           id="path17345"
           inkscape:connector-curvature="0" />
        <path
           d="m 178.86719,113.76953 q -3.39844,1.34766 -6.28907,1.34766 -5.03906,0 -9.02343,-3.22266 -5.07813,-4.12109 -5.07813,-10.74219 0,-6.640621 5.07813,-10.761715 3.98437,-3.222656 9.08203,-3.222656 2.77344,0 6.23047,1.347656 v 8.300781 Q 177.89062,95.625 176.875,95.019531 q -1.85547,-1.113281 -3.98438,-1.113281 -2.69531,0 -4.6875,1.621094 -2.51953,2.050781 -2.51953,5.624996 0,3.55469 2.51953,5.60547 1.99219,1.6211 4.6875,1.6211 2.12891,0 3.98438,-1.11328 0.99609,-0.58594 1.99219,-1.79688 z"
           id="path17347"
           inkscape:connector-curvature="0" />
        <path
           d="m 211.58203,101.15234 q 0,5.42969 -3.61328,9.53125 -4.12109,4.66797 -11.15234,4.66797 -7.01172,0 -11.13282,-4.66797 -3.61328,-4.10156 -3.61328,-9.53125 0,-2.480465 0.97656,-5.078121 0.97657,-2.617188 2.61719,-4.472657 4.1211,-4.667968 11.15235,-4.667968 7.03125,0 11.15234,4.667968 3.61328,4.101563 3.61328,9.550778 z m -7.20703,0 q 0,-2.812496 -1.79688,-4.863278 -2.30468,-2.617187 -5.76171,-2.617187 -2.38282,0 -4.31641,1.347656 -1.93359,1.328125 -2.75391,3.554688 -0.46875,1.269531 -0.46875,2.578121 0,2.69532 1.79688,4.82422 2.22656,2.63672 5.74219,2.63672 3.51562,0 5.76171,-2.61719 1.79688,-2.08984 1.79688,-4.84375 z"
           id="path17349"
           inkscape:connector-curvature="0" />
        <path
           d="m 248.22266,114.39453 h -6.9336 l -1.97265,-15.351561 -6.44532,15.351561 h -2.7539 l -6.15235,-15.351561 -2.26562,15.351561 h -6.89453 l 4.53125,-26.660155 h 6.83593 l 5.41016,14.218755 5.72266,-14.218755 h 6.89453 z"
           id="path17351"
           inkscape:connector-curvature="0" />
      </g>
      <g
         aria-label="UNICA"
         transform="matrix(7.0511024,0,0,7.0511024,-508.01307,-193.60933)"
         style="font-style:normal;font-variant:normal;font-weight:normal;font-stretch:normal;font-size:40px;line-height:1.25;font-family:Aharoni;-inkscape-font-specification:Aharoni;letter-spacing:0px;word-spacing:0px;fill:#000000;fill-opacity:1;stroke:none"
         id="flowRoot17285">
        <path
           d="m 106.05469,103.10547 q 0,2.40234 -0.39063,4.10156 -0.60547,2.63672 -2.89062,4.80469 -3.24219,3.06641 -8.671878,3.06641 -5.527343,0 -8.632812,-3.125 -1.640625,-1.64063 -2.246094,-4.1211 -0.429687,-1.75781 -0.429687,-4.72656 V 87.734375 h 6.933593 v 14.433595 q 0,1.73828 0.05859,2.59766 0.195313,2.71484 2.480469,3.78906 0.9375,0.44922 2.070312,0.44922 2.539063,0 3.828125,-1.77735 0.957032,-1.30859 0.957032,-5.05859 V 87.734375 h 6.9336 z"
           id="path17354"
           inkscape:connector-curvature="0" />
        <path
           d="m 138.24219,114.39453 h -6.9336 l -12.7539,-16.328124 v 16.328124 h -6.9336 V 87.734375 h 6.9336 l 12.7539,16.308595 V 87.734375 h 6.9336 z"
           id="path17356"
           inkscape:connector-curvature="0" />
        <path
           d="m 150.74219,114.39453 h -6.9336 V 87.734375 h 6.9336 z"
           id="path17358"
           inkscape:connector-curvature="0" />
        <path
           d="m 175.58594,113.76953 q -3.39844,1.34766 -6.28907,1.34766 -5.03906,0 -9.02343,-3.22266 -5.07813,-4.12109 -5.07813,-10.74219 0,-6.640621 5.07813,-10.761715 3.98437,-3.222656 9.08203,-3.222656 2.77344,0 6.23047,1.347656 v 8.300781 q -0.97657,-1.191406 -1.99219,-1.796875 -1.85547,-1.113281 -3.98438,-1.113281 -2.69531,0 -4.6875,1.621094 -2.51953,2.050781 -2.51953,5.624996 0,3.55469 2.51953,5.60547 1.99219,1.6211 4.6875,1.6211 2.12891,0 3.98438,-1.11328 0.99609,-0.58594 1.99219,-1.79688 z"
           id="path17360"
           inkscape:connector-curvature="0" />
        <path
           d="m 205.3125,114.39453 h -7.40234 l -1.71875,-4.64844 h -9.57032 l -1.83593,4.64844 h -7.32422 l 10.2539,-26.660155 h 7.5586 z m -10.99609,-9.92187 -2.8711,-8.496098 -2.91015,8.496098 z"
           id="path17362"
           inkscape:connector-curvature="0" />
      </g>
      <g
         aria-label="CIONES"
         transform="matrix(6.2473009,0,0,6.2473009,-445.23844,89.776778)"
         style="font-style:normal;font-variant:normal;font-weight:normal;font-stretch:normal;font-size:40px;line-height:1.25;font-family:Aharoni;-inkscape-font-specification:Aharoni;letter-spacing:0px;word-spacing:0px;fill:#000000;fill-opacity:1;stroke:none"
         id="flowRoot17297">
        <path
           d="m 101.99219,113.76953 q -3.39844,1.34766 -6.289065,1.34766 -5.039063,0 -9.023438,-3.22266 -5.078125,-4.12109 -5.078125,-10.74219 0,-6.640621 5.078125,-10.761715 3.984375,-3.222656 9.082032,-3.222656 2.773437,0 6.230471,1.347656 v 8.300781 Q 101.01563,95.625 100,95.019531 98.144531,93.90625 96.015625,93.90625 q -2.695313,0 -4.6875,1.621094 -2.519531,2.050781 -2.519531,5.624996 0,3.55469 2.519531,5.60547 1.992187,1.6211 4.6875,1.6211 2.128906,0 3.984375,-1.11328 0.99609,-0.58594 1.99219,-1.79688 z"
           id="path17365"
           inkscape:connector-curvature="0" />
        <path
           d="m 113.32031,114.39453 h -6.93359 V 87.734375 h 6.93359 z"
           id="path17367"
           inkscape:connector-curvature="0" />
        <path
           d="m 147.28516,101.15234 q 0,5.42969 -3.61329,9.53125 -4.12109,4.66797 -11.15234,4.66797 -7.01172,0 -11.13281,-4.66797 -3.61328,-4.10156 -3.61328,-9.53125 0,-2.480465 0.97656,-5.078121 0.97656,-2.617188 2.61719,-4.472657 4.12109,-4.667968 11.15234,-4.667968 7.03125,0 11.15234,4.667968 3.61329,4.101563 3.61329,9.550778 z m -7.20704,0 q 0,-2.812496 -1.79687,-4.863278 -2.30469,-2.617187 -5.76172,-2.617187 -2.38281,0 -4.31641,1.347656 -1.93359,1.328125 -2.7539,3.554688 -0.46875,1.269531 -0.46875,2.578121 0,2.69532 1.79687,4.82422 2.22657,2.63672 5.74219,2.63672 3.51563,0 5.76172,-2.61719 1.79687,-2.08984 1.79687,-4.84375 z"
           id="path17369"
           inkscape:connector-curvature="0" />
        <path
           d="m 178.32031,114.39453 h -6.93359 L 158.63281,98.066406 v 16.328124 h -6.93359 V 87.734375 h 6.93359 l 12.75391,16.308595 V 87.734375 h 6.93359 z"
           id="path17371"
           inkscape:connector-curvature="0" />
        <path
           d="M 199.0625,114.39453 H 183.88672 V 87.734375 h 15.17578 v 5.800781 h -8.24219 v 4.511719 h 7.79297 v 5.800785 h -7.79297 v 4.74609 h 8.24219 z"
           id="path17373"
           inkscape:connector-curvature="0" />
        <path
           d="m 221.97266,105.56641 q 0,6.75781 -5.9375,8.80859 -2.07032,0.72266 -4.45313,0.72266 -5,0 -9.27734,-3.02735 l 2.96875,-5.58593 q 3.125,2.8125 6.11328,2.8125 1.34765,0 2.28515,-0.625 1.09375,-0.70313 1.09375,-1.99219 0,-1.17188 -1.21093,-1.95313 -0.89844,-0.58593 -3.02735,-1.1914 -2.57812,-0.76172 -3.24218,-1.05469 -1.05469,-0.44922 -1.79688,-1.05469 -2.12891,-1.757811 -2.12891,-5.312499 0,-3.710937 2.20704,-6.152344 2.57812,-2.871093 6.875,-2.871093 4.3164,0 8.45703,2.167968 l -2.77344,5.390625 q -2.26563,-1.757812 -4.57031,-1.757812 -1.11328,0 -1.99219,0.566406 -0.99609,0.644531 -0.99609,1.71875 0,1.054688 1.30859,1.816406 0.58594,0.351563 3.51562,1.210938 3.67188,1.074219 5.23438,3.046875 1.34766,1.67969 1.34766,4.31641 z"
           id="path17375"
           inkscape:connector-curvature="0" />
      </g>
    </g>
  </g>
</svg>
