<?xml version="1.0" encoding="UTF-8" standalone="no"?>
<!-- Created with Inkscape (http://www.inkscape.org/) -->

<svg
   width="1200"
   height="1200"
   viewBox="0 0 1200 1200"
   version="1.1"
   id="svg5"
   inkscape:version="1.1.2 (1:1.1+202202050950+0a00cf5339)"
   sodipodi:docname="torre-pc.svg"
   xmlns:inkscape="http://www.inkscape.org/namespaces/inkscape"
   xmlns:sodipodi="http://sodipodi.sourceforge.net/DTD/sodipodi-0.dtd"
   xmlns="http://www.w3.org/2000/svg"
   xmlns:svg="http://www.w3.org/2000/svg">
  <sodipodi:namedview
     id="namedview7"
     pagecolor="#ffffff"
     bordercolor="#666666"
     borderopacity="1.0"
     inkscape:pageshadow="2"
     inkscape:pageopacity="0.0"
     inkscape:pagecheckerboard="0"
     inkscape:document-units="px"
     showgrid="false"
     units="px"
     showguides="true"
     inkscape:guide-bbox="true"
     inkscape:snap-bbox="true"
     inkscape:bbox-paths="true"
     inkscape:bbox-nodes="true"
     inkscape:snap-bbox-edge-midpoints="true"
     inkscape:snap-bbox-midpoints="true"
     inkscape:zoom="0.38740583"
     inkscape:cx="678.87466"
     inkscape:cy="618.21475"
     inkscape:window-width="1600"
     inkscape:window-height="840"
     inkscape:window-x="0"
     inkscape:window-y="0"
     inkscape:window-maximized="1"
     inkscape:current-layer="layer1-3" />
  <defs
     id="defs2">
    <filter
       inkscape:collect="always"
       style="color-interpolation-filters:sRGB"
       id="filter13929"
       x="0"
       y="0"
       width="1"
       height="1">
      <feBlend
         inkscape:collect="always"
         mode="screen"
         in2="BackgroundImage"
         id="feBlend13931" />
    </filter>
  </defs>
  <g
     inkscape:label="Capa 1"
     inkscape:groupmode="layer"
     id="layer1">
    <g
       inkscape:label="Capa 1"
       id="layer1-3"
       transform="translate(284.72474,52.448041)"
       style="filter:url(#filter13929)">
      <path
         id="path14246"
         style="color:#000000;fill:#000000;-inkscape-stroke:none"
         d="m 753.29688,83.150391 c -27.37735,0 -50.00002,22.622679 -50,49.999999 0,19.07008 10.98225,35.82304 26.89648,44.24023 l -13.95898,181.47266 h -36.50977 v -180 a 15,15 0 0 0 -15,-15 15,15 0 0 0 -15,15 v 180 h -25 v 85 h -50 v -45 a 10,10 0 0 0 -10,-10 10,10 0 0 0 -10,10 v 260 a 10,10 0 0 0 10,10 10,10 0 0 0 10,-10 v -75 h 50 v 430.82422 h -77.03906 v 60 h 165 v 58.6289 H 306.76367 V 1002.5547 H 422.5332 v -22.48243 h -80.76953 v -26.16016 h 72.10938 c 35.50932,0 64.56445,-29.05513 64.56445,-64.56445 V 752.99219 c 0,-35.50933 -29.05513,-64.56446 -64.56445,-64.56446 h -234.2168 c -35.50932,0 -64.56445,29.05513 -64.56445,64.56446 v 136.35547 c 0,35.50932 29.05513,64.56445 64.56445,64.56445 h 72.10742 v 26.16016 h -80.76758 v 22.48243 h 115.76758 v 150.7617 h 445.92188 v -78.6289 h 165 v -60 H 824.72461 V 728.58398 l 27.89258,6.97266 c 0.0999,0.17428 0.18228,0.35544 0.2832,0.5293 19.50962,33.60831 55.50087,54.27526 94.36133,54.18359 a 8.8127308,8.8127308 0 0 0 8.79101,-8.83203 l -0.18945,-80.31641 29.24805,-6.04492 c 5.09322,5.99643 12.7756,9.71318 21.16597,9.38867 14.4848,-0.5602 25.9548,-12.95275 25.3946,-27.4375 -0.5602,-14.48475 -12.9528,-25.95474 -27.4375,-25.39453 -9.2243,0.35676 -17.21939,5.51676 -21.66995,12.95508 l -26.79492,-3.40625 -0.1875,-79.74414 a 8.8127308,8.8127308 0 0 0 -8.83398,-8.79102 c -38.7982,0.0915 -74.63313,20.8659 -94.00586,54.47071 l -28.01758,7.0039 V 481.67188 l 25.58789,6.39648 c 0.0996,0.17382 0.18255,0.35394 0.2832,0.52734 19.50963,33.60832 55.50087,54.27722 94.36133,54.18555 a 8.8127308,8.8127308 0 0 0 8.79102,-8.83203 l -0.18946,-80.31641 29.24805,-6.04492 c 5.09322,5.99643 12.77545,9.71318 21.16606,9.38867 14.4847,-0.56021 25.9547,-12.95275 25.3945,-27.4375 -0.5602,-14.48475 -12.9528,-25.95474 -27.4375,-25.39453 -9.22462,0.35677 -17.21948,5.5163 -21.66993,12.95508 l -26.79493,-3.40625 -0.1875,-79.74414 a 8.8127308,8.8127308 0 0 0 -8.83398,-8.79102 c -38.7982,0.0915 -74.63313,20.8659 -94.00586,54.47071 l -25.71289,6.42773 V 358.86328 H 793.21484 L 779.13672,175.8457 c 14.4257,-8.82337 24.16014,-24.73643 24.16016,-42.69531 0,-27.37732 -22.6227,-49.999999 -50,-49.999999 z m 6.31054,99.580079 13.54883,176.13281 h -36.86328 l 13.52539,-175.84961 c 1.15116,0.0812 2.3086,0.13672 3.47852,0.13672 2.13652,0 4.24041,-0.15286 6.31054,-0.41992 z m 285.38478,154.19531 a 8.8118496,8.8118496 0 0 0 -3.3574,0.73438 8.8118496,8.8118496 0 0 0 -4.6778,4.85742 8.8118496,8.8118496 0 0 0 4.9844,11.42187 c 31.5438,12.37206 52.3768,42.59685 52.7109,76.47852 0.3342,33.88167 -19.8977,64.51413 -51.1914,77.50586 a 8.8118496,8.8118496 0 0 0 -4.7597,11.51758 8.8118496,8.8118496 0 0 0 11.5176,4.75781 c 37.8821,-15.72697 62.4611,-52.93811 62.0566,-93.95313 -0.4045,-41.01502 -25.7135,-77.73606 -63.8984,-92.71289 a 8.8118496,8.8118496 0 0 0 -3.3848,-0.60742 z m -109.31642,6.46289 0.21289,90.60156 0.21485,90.60352 c -29.12713,-2.75984 -55.39437,-19.22573 -70.26563,-44.84375 -2.22449,-3.83203 -4.12153,-7.79255 -5.74414,-11.83398 l -3.22852,-9.52344 c -6.45721,-23.21287 -3.56015,-48.38338 8.75586,-69.83203 14.75023,-25.68789 40.94093,-42.27464 70.05469,-45.17188 z m 91.94722,17.08203 a 8.8118496,8.8118496 0 0 0 -8.1484,6.40039 8.8118496,8.8118496 0 0 0 6.0703,10.88282 c 24.0519,6.82945 40.578,28.71409 40.5645,53.71679 -0.014,25.0027 -16.5619,46.86841 -40.6211,53.67188 a 8.8118496,8.8118496 0 0 0 -6.0821,10.875 8.8118496,8.8118496 0 0 0 10.877,6.08203 c 31.5671,-8.92652 53.4315,-37.81621 53.4492,-70.62109 0.018,-32.80489 -21.8156,-61.71713 -53.373,-70.67774 a 8.8118496,8.8118496 0 0 0 -2.7364,-0.33008 z m -22.2011,19.94727 c -1.1537,-0.004 -2.3128,0.0341 -3.4746,0.11133 a 8.8118496,8.8118496 0 0 0 -8.20902,9.37695 8.8118496,8.8118496 0 0 0 9.37692,8.20703 c 12.0572,-0.80186 23.5147,5.15989 29.7774,15.49414 6.2627,10.33427 6.2439,23.24918 -0.047,33.56641 -6.2907,10.31721 -17.7615,16.24671 -29.8164,15.41211 a 8.8118496,8.8118496 0 0 0 -9.40039,8.18164 8.8118496,8.8118496 0 0 0 8.18159,9.39844 c 18.5862,1.28675 36.3851,-7.91142 46.084,-23.81836 9.699,-15.90694 9.7264,-35.94179 0.07,-51.875 -9.0522,-14.93739 -25.2376,-23.99905 -42.5429,-24.05469 z M 664.72461,398.86328 H 772.26953 L 664.72461,513.57617 Z m 175.81055,3.85742 c -6.08814,20.30786 -6.11125,41.95996 -0.0703,62.27149 l -15.74023,-3.93555 v -54.38476 z m -55.81055,12.09766 V 528.86328 H 677.80664 Z m 217.88669,6.9375 c 4.9673,-0.19212 8.9544,3.49753 9.1465,8.46484 0.1921,4.96732 -3.4975,8.95437 -8.4648,9.14649 -4.96741,0.19211 -8.95245,-3.49948 -9.14456,-8.4668 -0.19212,-4.96732 3.49563,-8.95242 8.46286,-9.14453 z m -44.7031,10.26758 8.12696,1.0332 -8.02344,1.6582 z m -383.18359,21.83984 h 50 v 120 h -50 z m 90,95 H 772.6875 L 664.72461,672.25 Z m 120,16.61328 V 688.86328 H 676.76172 Z m 262.57229,18.9375 a 8.8118496,8.8118496 0 0 0 -3.3574,0.73438 8.8118496,8.8118496 0 0 0 -4.6778,4.85937 8.8118496,8.8118496 0 0 0 4.9844,11.41992 c 31.5438,12.37206 52.3748,42.5988 52.709,76.48047 0.3341,33.88167 -19.8958,64.51218 -51.1895,77.50391 a 8.8118496,8.8118496 0 0 0 -4.7597,11.51758 8.8118496,8.8118496 0 0 0 11.5175,4.75976 c 37.8822,-15.72696 62.4612,-52.94006 62.0567,-93.95507 -0.4045,-41.01503 -25.7135,-77.73606 -63.8985,-92.7129 a 8.8118496,8.8118496 0 0 0 -3.3847,-0.60742 z m -109.31643,6.46289 0.21289,90.60352 0.21484,90.60156 c -29.12712,-2.75984 -55.39436,-19.22573 -70.26562,-44.84375 -16.36278,-28.18739 -16.44641,-62.92517 -0.2168,-91.18945 14.75023,-25.68789 40.94093,-42.27464 70.05469,-45.17188 z m 91.94723,17.08399 a 8.8118496,8.8118496 0 0 0 -8.1484,6.39844 8.8118496,8.8118496 0 0 0 6.0703,10.88281 c 24.0519,6.82945 40.578,28.71409 40.5645,53.71679 -0.014,25.00271 -16.5619,46.86841 -40.6211,53.67188 a 8.8118496,8.8118496 0 0 0 -6.0821,10.87695 8.8118496,8.8118496 0 0 0 10.877,6.08203 c 31.567,-8.92651 53.4315,-37.81816 53.4492,-70.62304 0.018,-32.80489 -21.8157,-61.71713 -53.373,-70.67774 a 8.8118496,8.8118496 0 0 0 -2.7364,-0.32812 z m -22.2011,19.94726 c -1.1537,-0.004 -2.3128,0.0321 -3.4746,0.10938 a 8.8118496,8.8118496 0 0 0 -8.20903,9.37695 8.8118496,8.8118496 0 0 0 9.37693,8.20703 c 12.0572,-0.80186 23.5147,5.15989 29.7774,15.49414 6.2627,10.33427 6.2439,23.24918 -0.047,33.56641 -6.2907,10.31721 -17.7615,16.24671 -29.8164,15.41211 a 8.8118496,8.8118496 0 0 0 -9.40041,8.18164 8.8118496,8.8118496 0 0 0 8.18161,9.40039 c 18.5862,1.28676 36.3851,-7.91336 46.084,-23.82031 9.699,-15.90694 9.7264,-35.94179 0.07,-51.875 -9.0522,-14.93739 -25.2376,-23.9971 -42.5429,-24.05274 z m -164.88676,22.30078 c -6.08813,20.30786 -6.11121,41.95996 -0.0703,62.27149 l -15.74023,-3.93555 v -54.38476 z m 162.07616,19.03711 c 4.9673,-0.19211 8.9544,3.49558 9.1465,8.46289 0.1921,4.96732 -3.4975,8.95437 -8.4648,9.14649 -4.9674,0.19211 -8.95245,-3.49948 -9.14458,-8.4668 -0.19209,-4.96731 3.49562,-8.95046 8.46288,-9.14258 z m -44.70311,10.26563 8.12695,1.0332 -8.02343,1.6582 z M 664.72461,708.86328 H 772.6875 L 664.72461,832.25 Z m -485.06836,9.56445 h 234.2168 c 19.40825,0 34.56445,15.1562 34.56445,34.56446 v 136.35547 c 0,19.40825 -15.1562,34.56445 -34.56445,34.56445 h -234.2168 c -19.40826,0 -34.56445,-15.1562 -34.56445,-34.56445 V 752.99219 c 0,-19.40826 15.15619,-34.56446 34.56445,-34.56446 z m 605.06836,7.04883 V 848.86328 H 676.76172 Z m -607.12305,36.25 v 15 h 95 v -15 z m 0,40 v 15 h 150 v -15 z m 0,40 v 15 h 150 v -15 z m 487.12305,27.13672 H 771.64453 L 664.72461,982.91016 Z m 120,15.28711 V 998.86328 H 677.18164 Z"
         transform="translate(-284.72474,-52.448041)" />
      <g
         id="g14286"
         transform="matrix(0,1,1,0,97.58333,899.97579)">
        <g
           transform="translate(-1000,-220)"
           id="g14118" />
      </g>
      <g
         transform="matrix(0,1,1,0,99.887956,1147.4645)"
         id="g14304">
        <g
           id="g14300"
           transform="translate(-1000,-220)" />
      </g>
      <g
         id="path14306"
         transform="translate(0,-26)">
        <path
           style="color:#000000;fill:#000000;stroke-width:40;stroke-linecap:round;stroke-linejoin:round;-inkscape-stroke:none"
           d="m 498.57144,106.70238 a 30,30 0 0 1 -30,30 30,30 0 0 1 -30,-30 30,30 0 0 1 30,-30.000003 30,30 0 0 1 30,30.000003 z"
           id="path2986" />
      </g>
    </g>
    <g
       id="g1942"
       transform="translate(14.870577,7.8281255)" />
  </g>
</svg>
