<?xml version="1.0" encoding="UTF-8" standalone="no"?>
<svg
   width="103.44819mm"
   height="103.44854mm"
   viewBox="0 0 103.44819 103.44854"
   version="1.1"
   id="svg2963"
   inkscape:version="1.1.2 (1:1.1+202202050950+0a00cf5339)"
   sodipodi:docname="warning.svg"
   xmlns:inkscape="http://www.inkscape.org/namespaces/inkscape"
   xmlns:sodipodi="http://sodipodi.sourceforge.net/DTD/sodipodi-0.dtd"
   xmlns="http://www.w3.org/2000/svg"
   xmlns:svg="http://www.w3.org/2000/svg"
   xmlns:rdf="http://www.w3.org/1999/02/22-rdf-syntax-ns#"
   xmlns:cc="http://creativecommons.org/ns#"
   xmlns:dc="http://purl.org/dc/elements/1.1/">
  <defs
     id="defs2957">
    <filter
       inkscape:collect="always"
       style="color-interpolation-filters:sRGB"
       id="filter13929"
       x="0"
       y="0"
       width="1"
       height="1">
      <feBlend
         inkscape:collect="always"
         mode="screen"
         in2="BackgroundImage"
         id="feBlend13931" />
    </filter>
    <filter
       inkscape:collect="always"
       style="color-interpolation-filters:sRGB"
       id="filter13929-7"
       x="-0.052682561"
       y="-0.071219292"
       width="1.1053651"
       height="1.1053651">
      <feBlend
         inkscape:collect="always"
         mode="screen"
         in2="BackgroundImage"
         id="feBlend13931-5" />
    </filter>
    <filter
       inkscape:collect="always"
       style="color-interpolation-filters:sRGB"
       id="filter13929-6"
       x="0"
       y="0"
       width="1"
       height="1">
      <feBlend
         inkscape:collect="always"
         mode="screen"
         in2="BackgroundImage"
         id="feBlend13931-2" />
    </filter>
  </defs>
  <sodipodi:namedview
     id="base"
     pagecolor="#ffffff"
     bordercolor="#666666"
     borderopacity="1.0"
     inkscape:pageopacity="0.0"
     inkscape:pageshadow="2"
     inkscape:zoom="1.4142136"
     inkscape:cx="169.35207"
     inkscape:cy="231.57747"
     inkscape:document-units="mm"
     inkscape:current-layer="layer1"
     inkscape:document-rotation="0"
     showgrid="false"
     fit-margin-top="0"
     fit-margin-left="0"
     fit-margin-right="0"
     fit-margin-bottom="0"
     inkscape:window-width="1600"
     inkscape:window-height="840"
     inkscape:window-x="0"
     inkscape:window-y="0"
     inkscape:window-maximized="1"
     inkscape:pagecheckerboard="0"
     showguides="false"
     inkscape:guide-bbox="true"
     inkscape:snap-bbox="true"
     inkscape:bbox-paths="true"
     inkscape:bbox-nodes="true"
     inkscape:snap-bbox-edge-midpoints="true"
     inkscape:snap-bbox-midpoints="true"
     inkscape:snap-global="true">
    <sodipodi:guide
       position="51.310267,42.877856"
       orientation="0,-1"
       id="guide6374" />
    <sodipodi:guide
       position="44.509116,21.20835"
       orientation="0,-1"
       id="guide6378" />
  </sodipodi:namedview>
  <metadata
     id="metadata2960">
    <rdf:RDF>
      <cc:Work
         rdf:about="">
        <dc:format>image/svg+xml</dc:format>
        <dc:type
           rdf:resource="http://purl.org/dc/dcmitype/StillImage" />
      </cc:Work>
    </rdf:RDF>
  </metadata>
  <g
     inkscape:label="Capa 1"
     inkscape:groupmode="layer"
     id="layer1"
     transform="translate(-64.692584,-136.5079)">
    <g
       id="signal"
       transform="matrix(0.04396469,-0.07810779,0.07810779,0.04396469,39.343315,239.11202)"
       style="filter:url(#filter13929)" />
    <g
       id="g1061"
       transform="matrix(0.37671708,0,0,0.37671708,70.802815,103.43348)"
       style="fill:#000000;fill-opacity:0.997682" />
    <g
       id="g4081"
       transform="matrix(-0.04396469,-0.07810779,-0.07810779,0.04396469,190.1583,239.11202)"
       style="filter:url(#filter13929)" />
    <g
       id="g4085"
       transform="matrix(-0.04118057,0.0521485,0.0521485,0.04118057,115.44339,118.85998)"
       style="filter:url(#filter13929)" />
    <g
       style="enable-background:new"
       id="g5942"
       transform="matrix(0.08966734,0,0,0.08966734,71.583007,143.3985)">
      <g
         inkscape:label="Capa 1"
         id="layer1-5"
         transform="translate(0,-32.416667)"
         style="filter:url(#filter13929-7)">
        <path
           style="fill:none;stroke:#000000;stroke-width:50;stroke-linecap:round;stroke-linejoin:miter;stroke-miterlimit:4;stroke-dasharray:none;stroke-opacity:1"
           d="M 100,912.06533 500,179.91148 900,912.06533 Z"
           id="path14318"
           inkscape:connector-curvature="0"
           sodipodi:nodetypes="cccc" />
      </g>
    </g>
    <g
       id="signal-2"
       transform="matrix(0.02913694,-0.04575945,0.04575945,0.02913694,83.012767,206.8574)"
       style="filter:url(#filter13929-6)">
      <path
         style="color:#000000;font-style:normal;font-variant:normal;font-weight:normal;font-stretch:normal;font-size:medium;line-height:normal;font-family:sans-serif;font-variant-ligatures:normal;font-variant-position:normal;font-variant-caps:normal;font-variant-numeric:normal;font-variant-alternates:normal;font-feature-settings:normal;text-indent:0;text-align:start;text-decoration:none;text-decoration-line:none;text-decoration-style:solid;text-decoration-color:#000000;letter-spacing:normal;word-spacing:normal;text-transform:none;writing-mode:lr-tb;direction:ltr;text-orientation:mixed;dominant-baseline:auto;baseline-shift:baseline;text-anchor:start;white-space:normal;shape-padding:0;clip-rule:nonzero;display:inline;overflow:visible;visibility:visible;opacity:1;isolation:auto;mix-blend-mode:normal;color-interpolation:sRGB;color-interpolation-filters:linearRGB;solid-color:#000000;solid-opacity:1;vector-effect:none;fill:#000000;fill-opacity:1;fill-rule:nonzero;stroke:none;stroke-width:25;stroke-linecap:round;stroke-linejoin:round;stroke-miterlimit:4;stroke-dasharray:none;stroke-dashoffset:0;stroke-opacity:1;paint-order:normal;color-rendering:auto;image-rendering:auto;shape-rendering:auto;text-rendering:auto;enable-background:accumulate"
         d="m 394.07617,133.61133 c -3.98718,0.0263 -7.96984,0.1724 -11.94336,0.43555 -40.87043,2.70661 -80.7299,17.90328 -113.63281,44.79101 -58.49406,47.80042 -85.16071,124.50096 -68.9375,198.2793 a 12.50125,12.50125 0 1 0 24.41602,-5.36914 c -14.21042,-64.62471 9.10505,-131.68093 60.34179,-173.55078 51.23674,-41.86985 121.59275,-51.36282 182.0918,-24.56446 a 12.50125,12.50125 0 1 0 10.125,-22.85742 c -26.44023,-11.71182 -54.55067,-17.34826 -82.46094,-17.16406 z m 9.9043,48.70508 c -4.53904,0.0164 -9.06932,0.22701 -13.57617,0.63086 -30.04567,2.6923 -59.09864,13.93795 -83.45703,32.97461 -38.97344,30.45866 -61.50031,77.40154 -60.87696,126.86132 a 13.555952,13.555952 0 1 0 27.10742,-0.34179 c -0.51696,-41.01982 18.14,-79.89907 50.46289,-105.16016 32.3229,-25.26111 74.55697,-33.97012 114.23633,-23.55664 a 13.555952,13.555952 0 1 0 6.88282,-26.2207 c -13.456,-3.53141 -27.16219,-5.23678 -40.7793,-5.1875 z m -0.82227,51.9707 c -3.41041,0.0359 -6.79255,0.23231 -10.13672,0.58398 -46.81826,4.92341 -86.29874,40.15423 -95.17578,87.94922 a 12.50125,12.50125 0 1 0 24.57813,4.56446 c 7.83832,-42.20245 46.16413,-71.42272 88.93555,-67.80469 a 12.50125,12.50125 0 1 0 2.10937,-24.91211 c -3.45996,-0.29268 -6.90013,-0.41681 -10.31055,-0.38086 z"
         transform="rotate(8.9517898,246.13783,1215.3815)"
         id="signals"
         inkscape:connector-curvature="0" />
    </g>
    <g
       id="g6235"
       transform="matrix(-0.02913694,-0.04575945,-0.04575945,0.02913694,149.74162,206.8574)"
       style="filter:url(#filter13929-6)">
      <path
         style="color:#000000;font-style:normal;font-variant:normal;font-weight:normal;font-stretch:normal;font-size:medium;line-height:normal;font-family:sans-serif;font-variant-ligatures:normal;font-variant-position:normal;font-variant-caps:normal;font-variant-numeric:normal;font-variant-alternates:normal;font-feature-settings:normal;text-indent:0;text-align:start;text-decoration:none;text-decoration-line:none;text-decoration-style:solid;text-decoration-color:#000000;letter-spacing:normal;word-spacing:normal;text-transform:none;writing-mode:lr-tb;direction:ltr;text-orientation:mixed;dominant-baseline:auto;baseline-shift:baseline;text-anchor:start;white-space:normal;shape-padding:0;clip-rule:nonzero;display:inline;overflow:visible;visibility:visible;opacity:1;isolation:auto;mix-blend-mode:normal;color-interpolation:sRGB;color-interpolation-filters:linearRGB;solid-color:#000000;solid-opacity:1;vector-effect:none;fill:#000000;fill-opacity:1;fill-rule:nonzero;stroke:none;stroke-width:25;stroke-linecap:round;stroke-linejoin:round;stroke-miterlimit:4;stroke-dasharray:none;stroke-dashoffset:0;stroke-opacity:1;paint-order:normal;color-rendering:auto;image-rendering:auto;shape-rendering:auto;text-rendering:auto;enable-background:accumulate"
         d="m 394.07617,133.61133 c -3.98718,0.0263 -7.96984,0.1724 -11.94336,0.43555 -40.87043,2.70661 -80.7299,17.90328 -113.63281,44.79101 -58.49406,47.80042 -85.16071,124.50096 -68.9375,198.2793 a 12.50125,12.50125 0 1 0 24.41602,-5.36914 c -14.21042,-64.62471 9.10505,-131.68093 60.34179,-173.55078 51.23674,-41.86985 121.59275,-51.36282 182.0918,-24.56446 a 12.50125,12.50125 0 1 0 10.125,-22.85742 c -26.44023,-11.71182 -54.55067,-17.34826 -82.46094,-17.16406 z m 9.9043,48.70508 c -4.53904,0.0164 -9.06932,0.22701 -13.57617,0.63086 -30.04567,2.6923 -59.09864,13.93795 -83.45703,32.97461 -38.97344,30.45866 -61.50031,77.40154 -60.87696,126.86132 a 13.555952,13.555952 0 1 0 27.10742,-0.34179 c -0.51696,-41.01982 18.14,-79.89907 50.46289,-105.16016 32.3229,-25.26111 74.55697,-33.97012 114.23633,-23.55664 a 13.555952,13.555952 0 1 0 6.88282,-26.2207 c -13.456,-3.53141 -27.16219,-5.23678 -40.7793,-5.1875 z m -0.82227,51.9707 c -3.41041,0.0359 -6.79255,0.23231 -10.13672,0.58398 -46.81826,4.92341 -86.29874,40.15423 -95.17578,87.94922 a 12.50125,12.50125 0 1 0 24.57813,4.56446 c 7.83832,-42.20245 46.16413,-71.42272 88.93555,-67.80469 a 12.50125,12.50125 0 1 0 2.10937,-24.91211 c -3.45996,-0.29268 -6.90013,-0.41681 -10.31055,-0.38086 z"
         transform="rotate(8.9517898,246.13783,1215.3815)"
         id="path6233"
         inkscape:connector-curvature="0" />
    </g>
    <circle
       style="fill:#000000;fill-opacity:1;stroke:none;stroke-width:2.64583;stroke-miterlimit:4;stroke-dasharray:none;stroke-opacity:1;paint-order:markers stroke fill"
       id="path6259"
       cx="116.41668"
       cy="193.03581"
       r="2.1166666" />
    <path
       id="path6376"
       style="fill:#000000;fill-opacity:1;stroke:none;stroke-width:0.264583px;stroke-linecap:butt;stroke-linejoin:miter;stroke-opacity:1"
       d="m 115.06844,197.07836 -5.32422,21.63796 -0.12867,0.0315 h 13.60226 l -0.12815,-0.0315 -5.32474,-21.63796 z"
       sodipodi:nodetypes="ccccccc" />
  </g>
</svg>
