<?xml version="1.0" encoding="UTF-8" standalone="no"?>
<svg
   width="103.44819mm"
   height="103.44854mm"
   viewBox="0 0 103.44819 103.44854"
   version="1.1"
   id="svg2963"
   inkscape:version="1.1.2 (1:1.1+202202050950+0a00cf5339)"
   sodipodi:docname="weather-ballon.svg"
   xmlns:inkscape="http://www.inkscape.org/namespaces/inkscape"
   xmlns:sodipodi="http://sodipodi.sourceforge.net/DTD/sodipodi-0.dtd"
   xmlns="http://www.w3.org/2000/svg"
   xmlns:svg="http://www.w3.org/2000/svg"
   xmlns:rdf="http://www.w3.org/1999/02/22-rdf-syntax-ns#"
   xmlns:cc="http://creativecommons.org/ns#"
   xmlns:dc="http://purl.org/dc/elements/1.1/">
  <defs
     id="defs2957">
    <filter
       inkscape:collect="always"
       style="color-interpolation-filters:sRGB"
       id="filter13929"
       x="0"
       y="0"
       width="1"
       height="1">
      <feBlend
         inkscape:collect="always"
         mode="screen"
         in2="BackgroundImage"
         id="feBlend13931" />
    </filter>
    <filter
       inkscape:collect="always"
       style="color-interpolation-filters:sRGB"
       id="filter13929-7"
       x="0"
       y="0"
       width="1"
       height="1">
      <feBlend
         inkscape:collect="always"
         mode="screen"
         in2="BackgroundImage"
         id="feBlend13931-0" />
    </filter>
  </defs>
  <sodipodi:namedview
     id="base"
     pagecolor="#ffffff"
     bordercolor="#666666"
     borderopacity="1.0"
     inkscape:pageopacity="0.0"
     inkscape:pageshadow="2"
     inkscape:zoom="0.70710678"
     inkscape:cx="214.25335"
     inkscape:cy="234.05234"
     inkscape:document-units="mm"
     inkscape:current-layer="layer1"
     inkscape:document-rotation="0"
     showgrid="false"
     fit-margin-top="0"
     fit-margin-left="0"
     fit-margin-right="0"
     fit-margin-bottom="0"
     inkscape:window-width="1600"
     inkscape:window-height="840"
     inkscape:window-x="0"
     inkscape:window-y="0"
     inkscape:window-maximized="1"
     inkscape:pagecheckerboard="0"
     showguides="false"
     inkscape:guide-bbox="true"
     inkscape:snap-bbox="true"
     inkscape:bbox-paths="true"
     inkscape:bbox-nodes="true"
     inkscape:snap-bbox-edge-midpoints="true"
     inkscape:snap-bbox-midpoints="true"
     inkscape:snap-global="false"
     inkscape:object-paths="true"
     inkscape:snap-intersection-paths="true"
     inkscape:snap-smooth-nodes="true"
     inkscape:snap-midpoints="true">
    <sodipodi:guide
       position="51.931939,72.170822"
       orientation="1,0"
       id="guide14501" />
  </sodipodi:namedview>
  <metadata
     id="metadata2960">
    <rdf:RDF>
      <cc:Work
         rdf:about="">
        <dc:format>image/svg+xml</dc:format>
        <dc:type
           rdf:resource="http://purl.org/dc/dcmitype/StillImage" />
      </cc:Work>
    </rdf:RDF>
  </metadata>
  <g
     inkscape:label="Capa 1"
     inkscape:groupmode="layer"
     id="layer1"
     transform="translate(-64.692584,-136.5079)">
    <g
       id="signal"
       transform="matrix(0.04396469,-0.07810779,0.07810779,0.04396469,39.343315,239.11202)"
       style="filter:url(#filter13929)" />
    <g
       id="g1061"
       transform="matrix(0.37671708,0,0,0.37671708,70.802815,103.43348)"
       style="fill:#000000;fill-opacity:0.997682" />
    <g
       id="g4081"
       transform="matrix(-0.04396469,-0.07810779,-0.07810779,0.04396469,190.1583,239.11202)"
       style="filter:url(#filter13929)" />
    <g
       id="g15539"
       transform="matrix(0.52719463,0,0,0.52719463,55.07137,85.122818)">
      <g
         id="g15543"
         transform="translate(0.13150614)" />
    </g>
    <g
       id="g15847"
       transform="translate(1.3819064,-2.6160036)">
      <path
         style="color:#000000;font-style:normal;font-variant:normal;font-weight:normal;font-stretch:normal;font-size:medium;line-height:normal;font-family:sans-serif;font-variant-ligatures:normal;font-variant-position:normal;font-variant-caps:normal;font-variant-numeric:normal;font-variant-alternates:normal;font-feature-settings:normal;text-indent:0;text-align:start;text-decoration:none;text-decoration-line:none;text-decoration-style:solid;text-decoration-color:#000000;letter-spacing:normal;word-spacing:normal;text-transform:none;writing-mode:lr-tb;direction:ltr;text-orientation:mixed;dominant-baseline:auto;baseline-shift:baseline;text-anchor:start;white-space:normal;shape-padding:0;clip-rule:nonzero;display:inline;overflow:visible;visibility:visible;isolation:auto;mix-blend-mode:normal;color-interpolation:sRGB;color-interpolation-filters:linearRGB;solid-color:#000000;solid-opacity:1;vector-effect:none;fill:#000000;fill-opacity:1;fill-rule:nonzero;stroke:none;stroke-width:25;stroke-linecap:round;stroke-linejoin:round;stroke-miterlimit:4;stroke-dasharray:none;stroke-dashoffset:0;stroke-opacity:1;paint-order:normal;filter:url(#filter13929-7);color-rendering:auto;image-rendering:auto;shape-rendering:auto;text-rendering:auto;enable-background:accumulate"
         d="m 394.07617,133.61133 c -3.98718,0.0263 -7.96984,0.1724 -11.94336,0.43555 -40.87043,2.70661 -80.7299,17.90328 -113.63281,44.79101 -58.49406,47.80042 -85.16071,124.50096 -68.9375,198.2793 a 12.50125,12.50125 0 1 0 24.41602,-5.36914 c -14.21042,-64.62471 9.10505,-131.68093 60.34179,-173.55078 51.23674,-41.86985 121.59275,-51.36282 182.0918,-24.56446 a 12.50125,12.50125 0 1 0 10.125,-22.85742 c -26.44023,-11.71182 -54.55067,-17.34826 -82.46094,-17.16406 z m 9.9043,48.70508 c -4.53904,0.0164 -9.06932,0.22701 -13.57617,0.63086 -30.04567,2.6923 -59.09864,13.93795 -83.45703,32.97461 -38.97344,30.45866 -61.50031,77.40154 -60.87696,126.86132 a 13.555952,13.555952 0 1 0 27.10742,-0.34179 c -0.51696,-41.01982 18.14,-79.89907 50.46289,-105.16016 32.3229,-25.26111 74.55697,-33.97012 114.23633,-23.55664 a 13.555952,13.555952 0 1 0 6.88282,-26.2207 c -13.456,-3.53141 -27.16219,-5.23678 -40.7793,-5.1875 z m -0.82227,51.9707 c -3.41041,0.0359 -6.79255,0.23231 -10.13672,0.58398 -46.81826,4.92341 -86.29874,40.15423 -95.17578,87.94922 a 12.50125,12.50125 0 1 0 24.57813,4.56446 c 7.83832,-42.20245 46.16413,-71.42272 88.93555,-67.80469 a 12.50125,12.50125 0 1 0 2.10937,-24.91211 c -3.45996,-0.29268 -6.90013,-0.41681 -10.31055,-0.38086 z"
         transform="matrix(0.03774456,-0.04786925,0.04786925,0.03774456,75.997964,228.85014)"
         id="signals"
         inkscape:connector-curvature="0" />
      <path
         id="path12596"
         style="stroke-width:1.58293;paint-order:markers stroke fill"
         d="m 114.64547,147.56317 c -3.15372,-2e-5 -6.28779,1.29796 -8.51783,3.52795 -2.23003,2.22999 -3.5284,5.36411 -3.52847,8.51783 0.002,2.95311 1.72137,6.44463 3.11868,8.08013 1.39732,1.63551 4.79522,4.91009 7.73389,5.20278 0.64945,0.0649 0.76694,1.46409 0.15607,1.69395 -0.45683,0.17182 0.13524,0.22477 0.46922,0.43667 v 10.73009 c -0.32609,0.69849 -0.74802,1.52496 -1.23093,2.26343 -0.69713,1.06605 -0.9501,2.0265 0.19172,2.65255 0.31271,0.17146 0.71025,0.54452 1.03921,0.8847 v 27.32133 h -6.83834 v 6.99957 h 15.00011 v -6.99957 h -6.83937 V 191.5207 c 0.33968,-0.33126 0.73739,-0.68609 1.04024,-0.85215 1.14182,-0.62605 0.88885,-1.5865 0.19172,-2.65255 -0.4834,-0.7392 -0.90564,-1.56658 -1.23196,-2.2655 v -10.7704 c 0.29547,-0.17565 0.70665,-0.23709 0.28732,-0.39532 -0.12662,-0.0478 -0.22164,-0.1463 -0.28732,-0.27234 v -0.68626 h -0.0997 c 0.0459,-0.36722 0.23282,-0.70375 0.54312,-0.73484 2.938,-0.29345 6.06483,-3.34381 7.73183,-5.2033 1.66701,-1.85949 3.11573,-5.12658 3.11764,-8.07909 -5e-5,-3.15372 -1.29843,-6.28784 -3.52847,-8.51783 -2.23004,-2.22998 -5.36464,-3.52797 -8.51834,-3.52795 z" />
      <path
         style="color:#000000;font-style:normal;font-variant:normal;font-weight:normal;font-stretch:normal;font-size:medium;line-height:normal;font-family:sans-serif;font-variant-ligatures:normal;font-variant-position:normal;font-variant-caps:normal;font-variant-numeric:normal;font-variant-alternates:normal;font-feature-settings:normal;text-indent:0;text-align:start;text-decoration:none;text-decoration-line:none;text-decoration-style:solid;text-decoration-color:#000000;letter-spacing:normal;word-spacing:normal;text-transform:none;writing-mode:lr-tb;direction:ltr;text-orientation:mixed;dominant-baseline:auto;baseline-shift:baseline;text-anchor:start;white-space:normal;shape-padding:0;clip-rule:nonzero;display:inline;overflow:visible;visibility:visible;isolation:auto;mix-blend-mode:normal;color-interpolation:sRGB;color-interpolation-filters:linearRGB;solid-color:#000000;solid-opacity:1;vector-effect:none;fill:#000000;fill-opacity:1;fill-rule:nonzero;stroke:none;stroke-width:25;stroke-linecap:round;stroke-linejoin:round;stroke-miterlimit:4;stroke-dasharray:none;stroke-dashoffset:0;stroke-opacity:1;paint-order:normal;filter:url(#filter13929-7);color-rendering:auto;image-rendering:auto;shape-rendering:auto;text-rendering:auto;enable-background:accumulate"
         d="m 394.07617,133.61133 c -3.98718,0.0263 -7.96984,0.1724 -11.94336,0.43555 -40.87043,2.70661 -80.7299,17.90328 -113.63281,44.79101 -58.49406,47.80042 -85.16071,124.50096 -68.9375,198.2793 a 12.50125,12.50125 0 1 0 24.41602,-5.36914 c -14.21042,-64.62471 9.10505,-131.68093 60.34179,-173.55078 51.23674,-41.86985 121.59275,-51.36282 182.0918,-24.56446 a 12.50125,12.50125 0 1 0 10.125,-22.85742 c -26.44023,-11.71182 -54.55067,-17.34826 -82.46094,-17.16406 z m 9.9043,48.70508 c -4.53904,0.0164 -9.06932,0.22701 -13.57617,0.63086 -30.04567,2.6923 -59.09864,13.93795 -83.45703,32.97461 -38.97344,30.45866 -61.50031,77.40154 -60.87696,126.86132 a 13.555952,13.555952 0 1 0 27.10742,-0.34179 c -0.51696,-41.01982 18.14,-79.89907 50.46289,-105.16016 32.3229,-25.26111 74.55697,-33.97012 114.23633,-23.55664 a 13.555952,13.555952 0 1 0 6.88282,-26.2207 c -13.456,-3.53141 -27.16219,-5.23678 -40.7793,-5.1875 z m -0.82227,51.9707 c -3.41041,0.0359 -6.79255,0.23231 -10.13672,0.58398 -46.81826,4.92341 -86.29874,40.15423 -95.17578,87.94922 a 12.50125,12.50125 0 1 0 24.57813,4.56446 c 7.83832,-42.20245 46.16413,-71.42272 88.93555,-67.80469 a 12.50125,12.50125 0 1 0 2.10937,-24.91211 c -3.45996,-0.29268 -6.90013,-0.41681 -10.31055,-0.38086 z"
         transform="matrix(-0.03774456,-0.04786925,-0.04786925,0.03774456,154.07158,228.85014)"
         id="path15672"
         inkscape:connector-curvature="0" />
    </g>
  </g>
</svg>
