<?xml version="1.0" encoding="UTF-8" standalone="no"?>
<!-- Created with Inkscape (http://www.inkscape.org/) -->

<svg
   width="1200"
   height="1200"
   viewBox="0 0 1200 1200"
   version="1.1"
   id="svg5"
   inkscape:version="1.1.2 (1:1.1+202202050950+0a00cf5339)"
   sodipodi:docname="yagi-antena.svg"
   xmlns:inkscape="http://www.inkscape.org/namespaces/inkscape"
   xmlns:sodipodi="http://sodipodi.sourceforge.net/DTD/sodipodi-0.dtd"
   xmlns="http://www.w3.org/2000/svg"
   xmlns:svg="http://www.w3.org/2000/svg">
  <sodipodi:namedview
     id="namedview7"
     pagecolor="#ffffff"
     bordercolor="#666666"
     borderopacity="1.0"
     inkscape:pageshadow="2"
     inkscape:pageopacity="0.0"
     inkscape:pagecheckerboard="0"
     inkscape:document-units="px"
     showgrid="false"
     units="px"
     width="1200px"
     inkscape:zoom="0.38740583"
     inkscape:cx="513.67322"
     inkscape:cy="538.19531"
     inkscape:window-width="1600"
     inkscape:window-height="840"
     inkscape:window-x="0"
     inkscape:window-y="0"
     inkscape:window-maximized="1"
     inkscape:current-layer="layer1" />
  <defs
     id="defs2" />
  <g
     inkscape:label="Capa 1"
     inkscape:groupmode="layer"
     id="layer1">
    <path
       id="rect846"
       style="stroke-width:15;paint-order:markers stroke fill"
       d="m 418.75754,169.50047 c -12.15583,0 -21.94141,9.78558 -21.94141,21.9414 v 84.59766 h -14.25195 v 17.28711 h -11.50586 c -7.02817,0 -12.68555,5.65932 -12.68555,12.6875 0,7.02817 5.65738,12.68554 12.68555,12.68554 h 11.50586 v 17.28711 h 14.25195 v 771.57231 c 0,12.1559 9.78558,21.9414 21.94141,21.9414 h 1.11719 c 12.15582,0 21.9414,-9.7855 21.9414,-21.9414 V 335.98679 h 11.27149 v -17.28711 h 58.60547 v 105.16016 c 0,4.63563 3.73155,8.36719 8.36718,8.36719 h 0.89649 c 4.63563,0 8.36719,-3.73156 8.36719,-8.36719 V 318.69968 h 81.10351 v 91.78516 c 0,4.63564 3.73155,8.36914 8.36719,8.36914 h 0.89648 c 4.63563,0 8.36719,-3.7335 8.36719,-8.36914 v -91.78516 h 81.10352 v 91.78516 c 0,4.63564 3.73155,8.36914 8.36718,8.36914 h 0.89649 c 4.63564,0 8.36719,-3.7335 8.36719,-8.36914 v -91.78516 h 81.10351 v 91.78516 c 0,4.63564 3.73351,8.36914 8.36914,8.36914 h 0.89453 c 4.63563,0 8.36914,-3.7335 8.36914,-8.36914 v -91.78516 h 81.10352 v 91.78516 c 0,4.63564 3.73155,8.36914 8.36719,8.36914 h 0.89648 c 4.63564,0 8.36719,-3.7335 8.36719,-8.36914 v -91.78516 h 21.42187 c 7.02818,0 12.6875,-5.65737 12.6875,-12.68554 0,-7.02818 -5.65932,-12.6875 -12.6875,-12.6875 H 924.2634 v -91.78516 c 0,-4.63563 -3.73155,-8.36719 -8.36719,-8.36719 h -0.89648 c -4.63564,0 -8.36719,3.73156 -8.36719,8.36719 v 91.78516 h -81.10352 v -91.78516 c 0,-4.63563 -3.73351,-8.36719 -8.36914,-8.36719 h -0.89453 c -4.63563,0 -8.36914,3.73156 -8.36914,8.36719 v 91.78516 H 726.7927 v -91.78516 c 0,-4.63563 -3.73155,-8.36719 -8.36719,-8.36719 h -0.89649 c -4.63563,0 -8.36718,3.73156 -8.36718,8.36719 v 91.78516 h -81.10352 v -91.78516 c 0,-4.63563 -3.73156,-8.36719 -8.36719,-8.36719 h -0.89648 c -4.63564,0 -8.36719,3.73156 -8.36719,8.36719 v 91.78516 h -81.10351 v -106.6211 c 0,-4.63564 -3.73156,-8.36914 -8.36719,-8.36914 h -0.89649 c -4.63563,0 -8.36718,3.7335 -8.36718,8.36914 v 106.6211 h -58.60547 v -17.28711 h -11.27149 v -84.59766 c 0,-12.15582 -9.78558,-21.9414 -21.9414,-21.9414 z" />
    <g
       id="g2030" />
  </g>
</svg>
